<svg width="45" height="45" viewBox="0 0 45 45" fill="none" xmlns="http://www.w3.org/2000/svg">
<path d="M29.8977 0H15C6.71573 0 0 6.71574 0 15V29.6224C0 37.9066 6.71573 44.6224 15 44.6224H29.8977C38.182 44.6224 44.8977 37.9066 44.8977 29.6224V15C44.8977 6.71573 38.182 0 29.8977 0Z" fill="#343534"/>
<path d="M32.9688 16.9701H29.2977C29.2031 16.9701 29.1265 17.0467 29.1265 17.1413V32.2133C29.1265 32.3078 29.2031 32.3845 29.2977 32.3845H32.9688C33.0634 32.3845 33.14 32.3078 33.14 32.2133V17.1413C33.14 17.0467 33.0634 16.9701 32.9688 16.9701Z" fill="#FCFCFC"/>
<path d="M31.133 14.9332C32.311 14.9332 33.2659 14.02 33.2659 12.8934C33.2659 11.7668 32.311 10.8535 31.133 10.8535C29.955 10.8535 29 11.7668 29 12.8934C29 14.02 29.955 14.9332 31.133 14.9332Z" fill="#FCFCFC"/>
<path fill-rule="evenodd" clip-rule="evenodd" d="M21.054 26.9061L22.5902 31.8627C22.6699 32.1555 22.8263 32.2272 23.0378 32.2243H26.9718C27.2754 32.2272 27.2968 32.1376 27.2508 31.9404L20.7535 10.8231C20.7412 10.7842 20.7106 10.7573 20.6492 10.7573L15.2005 10.7424C14.9859 10.7424 14.9828 10.85 15.0012 11.0531C15.0687 11.7881 15.0319 12.2004 14.8725 12.7771L9.12021 31.9524C9.05889 32.1346 9.07422 32.2243 9.31952 32.2272L13.0327 32.2243C13.4252 32.2123 13.4467 32.1077 13.5141 31.9165L14.8019 26.9061H21.054ZM20.2598 23.0519H15.7494L17.9356 14.4352L20.2598 23.0519Z" fill="#FCFCFC"/>
</svg>
