<svg width="835" height="525" viewBox="0 0 835 525" fill="none" xmlns="http://www.w3.org/2000/svg">
<rect width="835" height="525" fill="white"/>
<rect x="251" y="60" width="584" height="352" rx="89" fill="#F4F4F4"/>
<g clip-path="url(#clip0)">
<path d="M418.582 223.801V156.902H547.573V324.692H685.082V247.951H720.108" stroke="#4F80FF" stroke-width="4" stroke-miterlimit="10"/>
<path d="M550.384 154.518H543.682V161.238H550.384V154.518Z" fill="white" stroke="#4F80FF" stroke-width="3" stroke-miterlimit="10"/>
<path d="M422.82 153.65H416.117V160.371H422.82V153.65Z" fill="white" stroke="#4F80FF" stroke-width="3" stroke-miterlimit="10"/>
<path d="M550.816 319.706H544.113V326.427H550.816V319.706Z" fill="white" stroke="#4F80FF" stroke-width="3" stroke-miterlimit="10"/>
<path d="M688.758 321.007H682.056V327.727H688.758V321.007Z" fill="white" stroke="#4F80FF" stroke-width="3" stroke-miterlimit="10"/>
<path d="M689.19 244.699H682.487V251.419H689.19V244.699Z" fill="white" stroke="#4F80FF" stroke-width="3" stroke-miterlimit="10"/>
<path d="M723.352 244.266H716.649V250.986H723.352V244.266Z" fill="white" stroke="#4F80FF" stroke-width="3" stroke-miterlimit="10"/>
<path d="M200.946 384.785C200.946 384.785 171.022 345.287 150.742 359.204C142.828 364.624 136.342 378.238 133.748 405.553C124.451 502.758 56.3877 445.181 56.3877 445.181C56.3877 445.181 69.317 454.502 50.0744 440.541C30.8317 426.581 12.5404 435.555 10.8972 453.202C9.25399 470.848 9.90261 484.808 9.90261 484.808" stroke="#4F80FF" stroke-width="4" stroke-miterlimit="10"/>
<path d="M74.6787 472.191L155.974 442.492" stroke="#4F80FF" stroke-width="3" stroke-miterlimit="10"/>
<path d="M75.6305 474.446C74.3765 474.923 72.9495 474.273 72.5171 472.972C72.0414 471.715 72.6901 470.284 73.9873 469.85C75.2413 469.373 76.6683 470.024 77.1007 471.324C77.5332 472.582 76.8845 473.969 75.6305 474.446Z" fill="#4F80FF"/>
<path d="M156.929 444.725C158.129 444.132 158.623 442.677 158.032 441.474C157.441 440.271 155.99 439.775 154.79 440.368C153.59 440.96 153.096 442.415 153.687 443.619C154.278 444.822 155.729 445.317 156.929 444.725Z" fill="#4F80FF"/>
<path d="M120.731 372.818L185.594 342.772" stroke="#4F80FF" stroke-width="3" stroke-miterlimit="10"/>
<path d="M121.856 374.986C120.645 375.55 119.175 375.029 118.612 373.772C118.05 372.558 118.569 371.084 119.823 370.52C121.034 369.957 122.504 370.477 123.066 371.734C123.629 372.948 123.11 374.422 121.856 374.986Z" fill="#4F80FF"/>
<path d="M186.502 345.07C187.713 344.506 188.275 343.032 187.713 341.818C187.151 340.604 185.68 340.041 184.47 340.604C183.259 341.168 182.697 342.642 183.259 343.856C183.821 345.07 185.291 345.634 186.502 345.07Z" fill="#4F80FF"/>
<path d="M2.33496 441.669L55.0037 425.063" stroke="#4F80FF" stroke-width="3" stroke-miterlimit="10"/>
<path d="M3.15636 443.966C1.8591 444.357 0.518602 443.663 0.0861821 442.362C-0.346237 441.062 0.388876 439.717 1.68613 439.284C2.98339 438.894 4.32389 439.587 4.75631 440.888C5.18873 442.189 4.45362 443.533 3.15636 443.966Z" fill="#4F80FF"/>
<path d="M55.6089 427.448C56.9061 427.057 57.598 425.67 57.2088 424.369C56.8197 423.069 55.4359 422.375 54.1386 422.765C52.8414 423.155 52.1495 424.543 52.5387 425.843C52.9711 427.144 54.3549 427.838 55.6089 427.448Z" fill="#4F80FF"/>
<path d="M153.17 355.185L148.714 357.764L151.287 362.232L155.743 359.653L153.17 355.185Z" fill="white" stroke="#4F80FF" stroke-width="3" stroke-miterlimit="10"/>
<path d="M111.875 455.551L107.085 457.437L108.966 462.239L113.755 460.353L111.875 455.551Z" fill="white" stroke="#4F80FF" stroke-width="3" stroke-miterlimit="10"/>
<path d="M25.9898 432.031L20.8877 432.702L21.5572 437.817L26.6592 437.146L25.9898 432.031Z" fill="white" stroke="#4F80FF" stroke-width="3" stroke-miterlimit="10"/>
<path d="M301.353 308.65H143.001C132.191 308.65 123.369 299.806 123.369 288.966V173.118C123.369 162.278 132.191 153.434 143.001 153.434H301.353C312.164 153.434 320.985 162.278 320.985 173.118V288.966C320.985 299.806 312.12 308.65 301.353 308.65Z" fill="#9DD584"/>
<path d="M455.035 525C550.563 525 628.003 495.495 628.003 459.098C628.003 422.701 550.563 393.196 455.035 393.196C359.508 393.196 282.067 422.701 282.067 459.098C282.067 495.495 359.508 525 455.035 525Z" fill="#E15E46"/>
<path d="M460.656 219.119H196.016V471.888H460.656V219.119Z" fill="#F09536"/>
<path d="M442.279 236.461H214.394V454.545H442.279V236.461Z" fill="#301A04"/>
<path d="M287.256 369.306L279.819 398.919H253.614L286.781 279.688H319.731L352.595 398.919H325.569L317.656 369.306H287.256V369.306ZM314.196 349.839L307.84 324.605C306.067 317.495 304.121 307.653 302.478 300.412H302.088C300.489 307.696 298.716 317.712 296.986 324.649L290.716 349.839H314.196Z" fill="#F09536"/>
<path d="M388.702 288.62C388.788 296.077 383.296 301.8 374.951 301.8C367.081 301.8 361.676 296.077 361.719 288.62C361.632 280.902 367.254 275.396 375.21 275.396C383.297 275.396 388.659 280.859 388.702 288.62ZM362.411 398.875V312.292H388.183V398.875H362.411V398.875Z" fill="#F09536"/>
</g>
<defs>
<clipPath id="clip0">
<rect width="724" height="372" fill="white" transform="translate(0 153)"/>
</clipPath>
</defs>
</svg>
