<svg width="835" height="525" viewBox="0 0 835 525" fill="none" xmlns="http://www.w3.org/2000/svg">
<rect width="835" height="525" fill="white"/>
<rect y="173" width="539" height="352" rx="89" fill="#F4F4F4"/>
<g clip-path="url(#clip0)">
<path d="M672.157 26.438C654.513 46.9867 676.192 18.3561 675.377 17.7113C674.604 17.0665 668.465 25.2773 667.649 24.6325C666.834 23.9877 674.346 14.96 673.144 13.9713C671.985 12.9825 665.374 21.7523 664.172 20.8065C663.013 19.8178 678.854 0.644737 678.081 -9.58667e-05C677.308 -0.644929 664 13.0255 662.326 12.5956C660.695 12.1657 669.882 2.7082 668.293 1.37555C666.705 0.0428931 652.796 16.0777 652.41 15.7768C652.023 15.4329 656.445 7.69491 654.771 7.30801C653.139 6.87812 637.513 28.1576 636.783 26.61C636.054 25.0624 648.932 11.9508 646.872 11.22L525.684 157.812L554.746 181.929L687.225 21.8382C687.268 21.8382 689.844 5.93236 672.157 26.438ZM613.087 60.1843C611.498 58.8946 629.915 39.8506 631.503 41.1402C631.503 41.1402 614.675 61.5169 613.087 60.1843ZM589.347 133.781C586.299 133.48 614.89 100.508 616.092 102.27C616.993 103.56 592.395 134.082 589.347 133.781Z" fill="#EEA355"/>
<path d="M701.134 157.683C681.129 163.959 706.887 153.556 706.586 152.61C706.243 151.622 698.902 154.674 698.601 153.728C698.258 152.739 706.844 149.859 706.372 148.397C705.899 146.936 698 150.16 697.528 148.698C697.056 147.237 715.258 141.046 714.914 140.058C714.571 139.069 700.147 142.379 699.16 141.132C698.129 139.843 708.089 137.564 707.445 135.63C706.801 133.695 691.089 138.51 690.917 138.037C690.746 137.564 696.67 133.91 695.639 132.621C694.609 131.331 675.806 139.37 675.849 137.736C675.892 136.103 689.758 133.007 688.599 131.245L549.295 178.662L561.444 214.471L713.584 162.627C713.584 162.584 721.139 151.407 701.134 157.683ZM646.786 150.805C646.142 148.87 666.104 144.228 666.791 146.162C666.791 146.162 647.43 152.739 646.786 150.805ZM603.428 195.814C601.325 193.837 633.607 183.906 633.865 185.97C634.079 187.603 605.532 197.792 603.428 195.814Z" fill="#9DD584"/>
<path d="M530.492 73.2959C529.976 89.8036 528.431 67.9653 527.444 67.9653C526.413 67.9653 526.929 74.1987 525.898 74.1987C524.868 74.1987 524.868 67.0626 523.365 67.0626C521.82 67.0626 522.335 73.7258 520.833 73.7258C519.33 73.7258 519.287 58.5938 518.3 58.5938C517.312 58.5938 515.767 70.2007 514.222 70.6306C512.676 71.0605 513.706 63.0646 511.689 63.0646C509.628 63.0646 509.156 76.0042 508.641 76.0042C508.126 76.0042 506.58 70.6736 505.078 71.1035C503.532 71.5334 505.078 87.6112 503.532 87.1383C501.987 86.7084 503.532 75.5314 501.472 76.0042V191.902H539.249V65.257C539.163 65.257 531.007 56.7882 530.492 73.2959ZM506.494 112.072C504.434 112.072 506.494 95.994 508.555 95.994C508.555 95.994 508.555 112.072 506.494 112.072ZM535.085 155.792C532.552 156.823 533.54 130.256 535.6 130.6C537.146 130.901 537.618 154.76 535.085 155.792Z" fill="#E05F45"/>
<path d="M603.986 107.773H341.262V358.398H603.986V107.773Z" fill="#07CAFF"/>
<path d="M585.742 124.969H359.507V341.202H585.742V124.969Z" fill="#001D26"/>
<path d="M407.114 169.462C414.841 168.086 425.488 167.055 439.526 167.055C455.109 167.055 466.614 169.892 474.427 176.469C481.81 182.445 486.232 192.246 486.232 203.38C486.232 215.331 482.454 224.961 475.672 231.495C467.086 239.835 453.993 243.661 440.212 243.661C437.25 243.661 434.589 243.489 432.442 243.231V286.048H407.071V169.462H407.114ZM432.485 223.112C434.417 223.542 436.692 223.671 439.826 223.671C453.22 223.671 460.904 216.148 460.904 204.455C460.904 193.751 454.465 186.787 441.844 186.787C437.508 186.787 434.288 187.216 432.528 187.689V223.112H432.485Z" fill="#07CAFF"/>
<path d="M496.922 263.565C501.343 266.273 510.401 269.411 517.57 269.411C524.954 269.411 528.388 266.703 528.388 262.146C528.388 257.675 525.727 255.354 516.583 251.7C499.927 245.208 494.174 235.751 494.26 226.336C494.26 210.43 507.096 198.437 527.143 198.437C536.287 198.437 544.229 200.629 549.252 203.122L544.787 221.006C541.095 219.028 534.656 216.578 528.217 216.578C521.906 216.578 518.472 219.415 518.472 223.628C518.472 227.626 521.434 229.818 531.222 233.816C546.376 239.835 552.557 248.39 552.643 260.083C552.643 276.59 540.151 287.681 517.613 287.681C507.654 287.681 498.081 285.317 492.328 281.964L496.922 263.565Z" fill="#07CAFF"/>
<path d="M231.879 140.144C236.387 134.039 243.083 129.998 249.48 125.957C255.876 121.873 262.359 117.36 266.008 110.696C269.098 105.065 269.871 98.5304 271.502 92.34C278.672 65.7729 305.116 45.7401 332.633 46.084C336.11 46.127 339.63 46.4709 342.807 47.7606C346.671 49.3082 349.848 52.1455 353.497 54.123C365.731 60.7862 381.057 56.8312 393.42 50.4259C405.784 44.0206 417.203 35.2938 430.726 31.9837C436.736 30.5221 443.261 30.2212 448.884 32.7145C452.877 34.4341 456.182 37.4433 459.102 40.6245C469.404 51.8016 476.101 66.2458 477.99 81.3349C478.548 85.8487 478.677 90.5775 477.046 94.8764C475.414 99.0893 472.195 102.485 468.718 105.323C449.099 121.229 419.349 122.26 402.951 141.433C395.567 150.074 392.004 161.294 386.294 171.139C380.585 180.983 371.183 190.226 359.807 189.882C347.444 189.538 338.128 178.189 326.194 174.879C311.34 170.752 296.315 179.564 283.437 188.033C274.422 193.966 265.407 199.855 256.391 205.788C250.939 209.356 244.844 213.096 238.404 212.107C228.058 210.559 223.422 198.436 221.233 188.162C220.074 182.832 219.043 177.372 219.945 171.998C220.975 165.808 225.998 162.928 227.844 157.597C229.947 151.665 227.372 146.291 231.879 140.144Z" stroke="#666666" stroke-width="3" stroke-miterlimit="10" stroke-linecap="round" stroke-dasharray="10 10"/>
<path d="M471.121 389.006C476.144 398.506 484.429 405.901 493.487 411.661C505.207 419.098 519.073 424.128 532.81 422.15C557.494 418.582 574.236 394.122 598.148 387.071C612.572 382.816 627.983 385.352 642.965 386.255C657.99 387.157 674.432 385.868 685.637 375.851C693.75 368.586 697.743 357.839 700.705 347.393C705.04 332.003 707.788 315.796 705.513 299.976C703.624 286.693 698.258 274.183 693.75 261.544C685.808 239.362 680.142 215.675 683.447 192.375C683.748 190.398 684.048 188.291 683.276 186.443C682.803 185.325 681.988 184.422 681.086 183.605C670.397 173.804 652.281 176.813 641.763 186.786C631.246 196.76 626.867 211.548 624.678 225.863C621.673 245.552 621.93 265.585 621.2 285.489C620.685 299.503 619.569 313.775 614.117 326.672C605.016 348.253 583.38 363.9 560.07 365.835C553.63 366.351 547.019 365.921 540.88 363.857C519.974 356.893 509.242 334.195 492.414 319.966C465.455 297.139 463.351 374.218 471.121 389.006Z" stroke="#666666" stroke-width="3" stroke-miterlimit="10" stroke-linecap="round" stroke-dasharray="10 10"/>
<path d="M369.724 350.531C369.724 350.531 391.918 436.423 405.655 418.238C419.392 400.054 369.724 350.531 369.724 350.531Z" fill="#E15E46"/>
<path d="M316.791 310.035C316.791 310.035 262.272 286.392 264.418 305.737C266.565 325.082 316.791 310.035 316.791 310.035Z" fill="#EEA355"/>
<path d="M355.685 356.12C355.685 356.12 365.044 382.816 363.327 397.131C361.91 409.082 356.243 426.191 347.357 436.38C338.728 446.267 319.797 445.622 316.792 430.877C313.4 414.155 325.85 410.844 332.804 404.138C344.953 392.402 353.882 378.388 356.501 366.394C358.69 356.292 355.685 356.12 355.685 356.12Z" fill="#EEA355"/>
<path d="M365.302 331.573C365.302 331.573 289.79 324.996 270.472 356.635C251.154 388.275 289.79 409.813 316.106 381.698C342.421 353.583 345.555 336.817 365.302 331.573Z" fill="#9DD584"/>
<path d="M358.09 320.74C358.09 320.74 327.954 271.818 286.742 281.276C245.53 290.734 265.277 203.896 311.211 237.857C357.145 271.818 358.09 320.74 358.09 320.74Z" fill="#E15E46"/>
</g>
<defs>
<clipPath id="clip0">
<rect width="496" height="443" fill="white" transform="translate(219)"/>
</clipPath>
</defs>
</svg>
