<svg width="45" height="44" viewBox="0 0 45 44" fill="none" xmlns="http://www.w3.org/2000/svg">
<path d="M29.9808 0.0476074H15.29C7.00577 0.0476074 0.290039 6.76335 0.290039 15.0476V28.7619C0.290039 37.0462 7.00577 43.7619 15.29 43.7619H29.9808C38.2651 43.7619 44.9808 37.0462 44.9808 28.7619V15.0476C44.9808 6.76334 38.2651 0.0476074 29.9808 0.0476074Z" fill="#343534"/>
<path fill-rule="evenodd" clip-rule="evenodd" d="M34.7636 15.7479C31.2128 13.9699 25.0996 14.8312 25.0996 19.4699C25.0996 22.9244 27.5071 24.284 30.4506 25.4253C34.6335 27.0464 30.5683 30.1102 25.4621 26.9418C25.4621 26.9418 25.2793 26.8526 25.1895 26.9418C25.0996 27.031 25.0996 27.1202 25.0996 27.2125C25.0996 27.3017 25.0996 30.5408 25.0996 30.5408C26.8843 31.4483 28.2166 31.9097 30.2771 31.8882C36.9232 31.8205 37.8806 25.5022 34.3453 23.0721C33.7039 22.6291 31.9874 21.7463 31.4452 21.5402C28.6349 20.4758 28.8735 18.9624 29.7658 18.1995C30.7511 17.3536 33.484 18.6332 34.6335 19.3469C35.3306 19.7745 35.4453 19.2423 35.4422 18.7747L35.4329 16.563C35.4329 16.037 35.2501 15.9939 34.7636 15.7479Z" fill="#FCFCFC"/>
<path fill-rule="evenodd" clip-rule="evenodd" d="M14.3002 21.5328V13.5638C14.3002 13.5245 14.4444 13.3884 14.482 13.3884C17.9802 13.2159 19.9707 13.8755 20.1494 17.4818C20.3531 21.6206 16.7578 21.7083 14.3002 21.7083V21.5328ZM10.0811 10.4658V31.8889H14.3002V24.9848C19.4849 25.3418 24.1617 23.5478 24.1617 17.7631C24.1617 15.4305 23.4094 13.0828 21.6258 11.6639C19.1338 9.67919 13.3097 10.1209 10.0811 10.4658Z" fill="#FCFCFC"/>
</svg>
