<svg width="46" height="45" viewBox="0 0 46 45" fill="none" xmlns="http://www.w3.org/2000/svg">
<path d="M30.523 0H15.6279C7.34366 0 0.62793 6.71574 0.62793 15V29.6224C0.62793 37.9066 7.34367 44.6224 15.6279 44.6224H30.523C38.8073 44.6224 45.523 37.9066 45.523 29.6224V15C45.523 6.71573 38.8073 0 30.523 0Z" fill="#343534"/>
<path fill-rule="evenodd" clip-rule="evenodd" d="M19.1978 26.9977L20.8374 32.3152H25.4432L18.9027 10.9139C18.8905 10.8751 18.8601 10.8483 18.7962 10.8483L13.3843 10.8333C13.1744 10.8333 13.1684 10.9408 13.1866 11.1437C13.2535 11.8807 13.217 12.2925 13.0619 12.8684L7.26367 32.3182L11.6321 32.3122L12.9919 26.9947L19.1978 26.9977ZM18.4129 23.1424H13.9289L16.104 14.5275L18.4129 23.1424Z" fill="#FCFCFC"/>
<path fill-rule="evenodd" clip-rule="evenodd" d="M30.454 25.0187L38.8773 25.0305C39.4077 24.3672 39.5047 23.1206 39.4895 22.3033C39.4319 18.9867 37.1829 15.8122 33.1213 15.7915C26.3014 15.753 25.0102 24.1777 27.332 29.0371C28.0624 30.5651 29.5295 31.5364 31.2511 31.9983C32.0362 32.2086 32.8697 32.3152 33.7123 32.3181C35.3794 32.324 37.0738 31.9302 38.4347 31.1721C38.4559 31.1603 38.4923 31.1603 38.4953 31.1366V31.0418L38.4923 28.2968C38.4923 28.1724 38.3953 28.1013 38.2498 28.1458C36.5282 28.6521 30.6964 30.269 30.4267 25.1727C30.4236 25.1342 30.4145 25.0187 30.454 25.0187ZM34.6762 22.2677H30.3873C30.4085 20.0409 31.4542 18.7764 33.0698 18.7705C34.5368 18.7646 35.4703 19.7596 35.5158 22.2144C35.5158 22.3269 35.5158 22.2677 35.5158 22.2677H34.6762Z" fill="#FCFCFC"/>
</svg>
