<svg width="835" height="525" viewBox="0 0 835 525" fill="none" xmlns="http://www.w3.org/2000/svg">
<rect width="835" height="525" fill="white"/>
<rect y="173" width="539" height="352" rx="89" fill="#F4F4F4"/>
<g clip-path="url(#clip0)">
<path d="M532.652 184.072L265.911 153.727L236.987 407.681L503.728 438.026L532.652 184.072Z" fill="#CFA7F9"/>
<path d="M512.144 199.389L282.45 173.258L257.495 392.364L487.189 418.495L512.144 199.389Z" fill="#260E4D"/>
<path d="M327.618 313.581L316.739 342.472L290.332 339.49L337.4 223.489L370.606 227.259L390.083 350.801L362.842 347.689L358.236 317.044L327.618 313.581ZM357.052 297.097L353.499 271.012C352.534 263.646 351.7 253.563 350.867 246.066L350.472 246.023C348.016 253.169 345.077 263.033 342.576 269.784L333.364 294.379L357.052 297.097Z" fill="#CFA7F8"/>
<path d="M424.474 319.324C423.772 331.336 433.291 337.693 445.222 339.052C453.6 340.017 460.707 339.534 467.374 338.044L468.822 356.238C460.356 358.605 449.828 359.175 439.037 357.947C411.27 354.791 397.408 336.29 400.523 309.153C403.286 284.909 420.043 264.173 446.977 267.241C472.331 270.135 480.841 291.134 478.209 314.063C477.639 319.236 476.762 323.006 476.06 325.111L424.474 319.324ZM454.96 304.725C455.925 296.834 454.171 286.093 443.467 284.865C433.203 283.682 427.807 293.853 426.36 301.481L454.96 304.725Z" fill="#CFA7F8"/>
<path d="M530.015 408.101H520.364V418.623H530.015V408.101Z" fill="#CFA7F9"/>
<path d="M548 393.634H534.84V406.786H548V393.634Z" fill="#CFA7F9"/>
<path d="M545.368 414.677H535.718V424.322H545.368V414.677Z" fill="#CFA7F9"/>
<path d="M256.731 147.688L226.024 127.96L247.519 117L256.731 147.688Z" fill="#CFA7F9"/>
<path d="M261.995 142.427L258.485 128.398H267.697L261.995 142.427Z" fill="#CFA7F9"/>
<path d="M250.896 150.494L232.561 141.814L234.491 151.897L250.896 150.494Z" fill="#CFA7F9"/>
<path d="M210.233 305.733H100.568" stroke="#CFA7F9" stroke-width="9" stroke-miterlimit="10"/>
<path d="M199.705 322.393L51 321.077" stroke="#CFA7F9" stroke-width="9" stroke-miterlimit="10"/>
<path d="M210.672 338.614L108.903 337.737" stroke="#CFA7F9" stroke-width="9" stroke-miterlimit="10"/>
</g>
<defs>
<clipPath id="clip0">
<rect width="497" height="321" fill="white" transform="translate(51 117)"/>
</clipPath>
</defs>
</svg>
