<svg width="279" height="564" viewBox="0 0 279 564" fill="none" xmlns="http://www.w3.org/2000/svg">
<g filter="url(#filter0_f)">
<ellipse cx="160.5" cy="350.5" rx="99.5" ry="19.5" fill="#8D641B" fill-opacity="0.36"/>
</g>
<path d="M93.6703 169.704C90.9838 169.559 88.4565 168.777 85.9139 167.991C83.8139 167.342 81.7035 166.689 79.4847 166.389C77.0983 166.124 75.2422 164.666 76.9657 161.749C78.8218 160.953 79.4847 159.23 80.015 157.374C87.4392 161.484 95.3938 162.014 103.613 160.158C110.11 158.7 109.447 154.773 106 150C105.267 149.035 104.758 148.148 104.303 147.356C103.197 145.429 102.413 144.064 99.5 143.5C93.4015 142.307 82.5985 141.133 76.5 141C76.0085 139.771 76.5281 138.215 77.0426 136.674C77.6382 134.89 78.2268 133.128 77.2309 131.918C78.9895 132.008 80.7482 132.114 82.5016 132.219C85.9033 132.423 89.2853 132.626 92.6097 132.714C99.7687 132.846 106.53 134.57 112.098 139.475L117.666 144.646C121.511 148.093 126.151 148.889 130.791 146.9C134.371 145.309 135.697 141.597 135.697 137.619V136.956C135.962 136.691 136.227 136.426 136.36 136.161C136.36 136.061 136.358 135.961 136.355 135.861C136.341 135.17 136.327 134.503 137.023 134.04C137.818 143.983 144.049 149.949 151.871 154.722C156.246 157.374 160.886 157.109 165.659 155.12C170.564 153.131 174.276 149.552 177.458 145.574L178.254 144.779H178.121C179.179 144.682 180.958 143.683 182.462 142.837C183.032 142.517 183.563 142.219 184 142C187.539 140.194 190.558 139.916 193.666 139.63C196.263 139.391 198.922 139.147 202 138C202 138.474 203.348 138.644 204.269 138.76C204.893 138.839 205.321 138.893 205 139C200.492 141.121 196.284 143.983 197.742 148.756C198.67 151.805 200.394 154.324 202.648 156.578C207.818 161.616 212.856 166.654 216.038 173.284C219.75 181.238 222.277 190.515 224 199C222.361 199.123 220.379 199.111 218.271 199.097C213.557 199.068 208.209 199.034 204.636 200.5C204.289 196.569 204.573 192.48 204.86 188.337C205.231 182.979 205.608 177.532 204.636 172.223C203.178 173.549 203.045 174.742 202.913 175.935C202.852 176.4 202.795 176.868 202.737 177.337C202.416 179.948 202.088 182.611 201.189 185.083C199.853 188.481 198.737 191.989 197.619 195.503C194.854 204.19 192.079 212.91 185.943 220.085C184.75 221.543 183.689 223.134 182.629 224.858C181.435 226.979 181.17 228.968 184.22 229.896C187.534 230.956 189.523 233.343 190.716 236.525C191.861 239.872 192.304 243.395 192.744 246.899C192.967 248.669 193.188 250.434 193.5 252.169C194.693 258.533 196.151 265.03 198.14 271.261C199.996 277.36 202.133 285.004 202 291.5C200.409 291.036 198.705 290.643 197 290.25C195.295 289.857 193.591 289.464 192 289C191.424 288.832 190.846 288.662 190.265 288.492C182.167 286.119 173.691 283.635 165.526 282.398C157.215 281.166 151.493 282.007 144.292 283.064C142.188 283.373 139.958 283.7 137.5 284C134.21 284.435 130.11 284.856 125.797 285.299C118.291 286.069 110.141 286.905 104.5 288C104.406 286.822 104.219 285.574 104.029 284.306C103.684 282.005 103.329 279.637 103.5 277.5C101.814 273.081 104.34 268.337 106.752 263.808C107.813 261.815 108.852 259.864 109.5 258C110.362 255.415 111.674 252.664 112.987 249.914C114.299 247.164 115.612 244.413 116.473 241.828C116.75 240.999 116.876 239.911 117.007 238.789C117.191 237.219 117.381 235.583 118 234.5C118.651 233.502 118.943 232.568 119.194 231.763C119.711 230.109 120.057 229 123 229C124.723 229 124.765 228.826 124.5 227.5C124.442 226.917 124.782 226.278 125.114 225.655C125.537 224.862 125.946 224.094 125.5 223.5C123.35 220.275 121.401 221.382 119.829 222.276C118.3 223.145 117.127 223.812 116.473 220.085C116.257 218.858 115.966 217.341 115.635 215.612C113.532 204.639 109.793 185.132 113 177C109.995 177 111.678 175.632 113.006 174.552C113.787 173.917 114.445 173.382 113.954 173.284C110.345 174.75 106.055 173.405 101.761 172.058C99.5655 171.37 97.3689 170.681 95.2612 170.367C95.9798 170.835 95.9233 170.803 95.5722 170.604C95.0737 170.322 93.9814 169.704 93.6703 169.704ZM126.947 180.443C127.066 190.736 129.347 200.705 131.643 210.74C131.89 211.821 132.137 212.903 132.382 213.986C133.382 218.711 136.749 220.759 140.134 222.817C141.687 223.762 143.245 224.709 144.579 225.918C144.845 226.183 145.773 226.051 146.303 225.918C147.983 225.443 149.428 224.961 150.767 224.513C154.289 223.337 157.082 222.404 161.5 222.5C162.549 222.526 163.566 222.608 164.536 222.687C168.596 223.018 171.823 223.28 173 219C173.109 218.636 173.215 218.28 173.319 217.931C174.353 214.457 175.193 211.632 177 208.5C183.418 197.145 179.662 188.132 174.621 176.031C174.247 175.133 173.866 174.218 173.481 173.284C172.338 170.459 173.89 167.907 174.918 166.216C175.916 164.575 176.42 163.745 173.481 164.268C164.466 165.859 155.318 167.317 146.435 163.207C142.723 161.484 138.746 161.484 135.166 163.87C132.369 165.711 134.109 167.584 136.413 170.066C138.26 172.054 140.469 174.434 141 177.5C140.934 177.895 137.466 178.428 133.992 178.961C130.472 179.501 126.947 180.043 126.947 180.443ZM153.595 233.873C142.06 233.873 134.784 240.484 132 249.5C131.362 251.669 131.475 253.632 131.586 255.572C131.707 257.664 131.825 259.73 131 262C130.755 262.674 130.51 263.202 130.304 263.646C129.619 265.125 129.369 265.665 131 267.5C131.341 267.879 131.642 268.23 131.917 268.551C133.566 270.472 134.273 271.295 137 270.5C141.851 269.037 146.346 269.17 150.899 269.305C154.184 269.402 157.499 269.5 161 269C163.804 268.575 166.67 269.787 169.518 270.991C171.114 271.666 172.705 272.338 174.276 272.719C176.928 273.382 179.447 273.382 181.435 270.863C183.291 268.609 184.087 266.355 182.894 263.306C180.773 257.87 178.651 252.302 177.06 246.733C175.867 242.623 173.613 239.839 169.901 238.248C164.731 235.994 159.428 233.74 153.595 233.873Z" fill="#EA9A7F"/>
<path d="M93.6703 169.704C90.9838 169.559 88.4565 168.777 85.9139 167.991C83.8139 167.342 81.7035 166.689 79.4847 166.389C77.0983 166.124 75.2422 164.666 76.9657 161.749C78.8218 160.953 79.4847 159.23 80.015 157.374C87.4392 161.484 95.3938 162.014 103.613 160.158C110.11 158.7 109.447 154.773 106 150C105.267 149.035 104.758 148.148 104.303 147.356C103.197 145.429 102.413 144.064 99.5 143.5C93.4015 142.307 82.5985 141.133 76.5 141C76.0085 139.771 76.5281 138.215 77.0426 136.674C77.6382 134.89 78.2268 133.128 77.2309 131.918C78.9895 132.008 80.7482 132.114 82.5016 132.219C85.9033 132.423 89.2853 132.626 92.6097 132.714C99.7687 132.846 106.53 134.57 112.098 139.475L117.666 144.646C121.511 148.093 126.151 148.889 130.791 146.9C134.371 145.309 135.697 141.597 135.697 137.619V136.956C135.962 136.691 136.227 136.426 136.36 136.161C136.36 136.061 136.358 135.961 136.355 135.861C136.341 135.17 136.327 134.503 137.023 134.04C137.818 143.983 144.049 149.949 151.871 154.722C156.246 157.374 160.886 157.109 165.659 155.12C170.564 153.131 174.276 149.552 177.458 145.574L178.254 144.779H178.121C179.179 144.682 180.958 143.683 182.462 142.837C183.032 142.517 183.563 142.219 184 142C187.539 140.194 190.558 139.916 193.666 139.63C196.263 139.391 198.922 139.147 202 138C202 138.474 203.348 138.644 204.269 138.76C204.893 138.839 205.321 138.893 205 139C200.492 141.121 196.284 143.983 197.742 148.756C198.67 151.805 200.394 154.324 202.648 156.578C207.818 161.616 212.856 166.654 216.038 173.284C219.75 181.238 222.277 190.515 224 199C222.361 199.123 220.379 199.111 218.271 199.097C213.557 199.068 208.209 199.034 204.636 200.5C204.289 196.569 204.573 192.48 204.86 188.337C205.231 182.979 205.608 177.532 204.636 172.223C203.178 173.549 203.045 174.742 202.913 175.935C202.852 176.4 202.795 176.868 202.737 177.337C202.416 179.948 202.088 182.611 201.189 185.083C199.853 188.481 198.737 191.989 197.619 195.503C194.854 204.19 192.079 212.91 185.943 220.085C184.75 221.543 183.689 223.134 182.629 224.858C181.435 226.979 181.17 228.968 184.22 229.896C187.534 230.956 189.523 233.343 190.716 236.525C191.861 239.872 192.304 243.395 192.744 246.899C192.967 248.669 193.188 250.434 193.5 252.169C194.693 258.533 196.151 265.03 198.14 271.261C199.996 277.36 202.133 285.004 202 291.5C200.409 291.036 198.705 290.643 197 290.25C195.295 289.857 193.591 289.464 192 289C191.424 288.832 190.846 288.662 190.265 288.492C182.167 286.119 173.691 283.635 165.526 282.398C157.215 281.166 151.493 282.007 144.292 283.064C142.188 283.373 139.958 283.7 137.5 284C134.21 284.435 130.11 284.856 125.797 285.299C118.291 286.069 110.141 286.905 104.5 288C104.406 286.822 104.219 285.574 104.029 284.306C103.684 282.005 103.329 279.637 103.5 277.5C101.814 273.081 104.34 268.337 106.752 263.808C107.813 261.815 108.852 259.864 109.5 258C110.362 255.415 111.674 252.664 112.987 249.914C114.299 247.164 115.612 244.413 116.473 241.828C116.75 240.999 116.876 239.911 117.007 238.789C117.191 237.219 117.381 235.583 118 234.5C118.651 233.502 118.943 232.568 119.194 231.763C119.711 230.109 120.057 229 123 229C124.723 229 124.765 228.826 124.5 227.5C124.442 226.917 124.782 226.278 125.114 225.655C125.537 224.862 125.946 224.094 125.5 223.5C123.35 220.275 121.401 221.382 119.829 222.276C118.3 223.145 117.127 223.812 116.473 220.085C116.257 218.858 115.966 217.341 115.635 215.612C113.532 204.639 109.793 185.132 113 177C109.995 177 111.678 175.632 113.006 174.552C113.787 173.917 114.445 173.382 113.954 173.284C110.345 174.75 106.055 173.405 101.761 172.058C99.5655 171.37 97.3689 170.681 95.2612 170.367C95.9798 170.835 95.9233 170.803 95.5722 170.604C95.0737 170.322 93.9814 169.704 93.6703 169.704ZM126.947 180.443C127.066 190.736 129.347 200.705 131.643 210.74C131.89 211.821 132.137 212.903 132.382 213.986C133.382 218.711 136.749 220.759 140.134 222.817C141.687 223.762 143.245 224.709 144.579 225.918C144.845 226.183 145.773 226.051 146.303 225.918C147.983 225.443 149.428 224.961 150.767 224.513C154.289 223.337 157.082 222.404 161.5 222.5C162.549 222.526 163.566 222.608 164.536 222.687C168.596 223.018 171.823 223.28 173 219C173.109 218.636 173.215 218.28 173.319 217.931C174.353 214.457 175.193 211.632 177 208.5C183.418 197.145 179.662 188.132 174.621 176.031C174.247 175.133 173.866 174.218 173.481 173.284C172.338 170.459 173.89 167.907 174.918 166.216C175.916 164.575 176.42 163.745 173.481 164.268C164.466 165.859 155.318 167.317 146.435 163.207C142.723 161.484 138.746 161.484 135.166 163.87C132.369 165.711 134.109 167.584 136.413 170.066C138.26 172.054 140.469 174.434 141 177.5C140.934 177.895 137.466 178.428 133.992 178.961C130.472 179.501 126.947 180.043 126.947 180.443ZM153.595 233.873C142.06 233.873 134.784 240.484 132 249.5C131.362 251.669 131.475 253.632 131.586 255.572C131.707 257.664 131.825 259.73 131 262C130.755 262.674 130.51 263.202 130.304 263.646C129.619 265.125 129.369 265.665 131 267.5C131.341 267.879 131.642 268.23 131.917 268.551C133.566 270.472 134.273 271.295 137 270.5C141.851 269.037 146.346 269.17 150.899 269.305C154.184 269.402 157.499 269.5 161 269C163.804 268.575 166.67 269.787 169.518 270.991C171.114 271.666 172.705 272.338 174.276 272.719C176.928 273.382 179.447 273.382 181.435 270.863C183.291 268.609 184.087 266.355 182.894 263.306C180.773 257.87 178.651 252.302 177.06 246.733C175.867 242.623 173.613 239.839 169.901 238.248C164.731 235.994 159.428 233.74 153.595 233.873Z" stroke="#EA9A7F"/>
<path d="M191.909 360.223C187.932 366.454 189.788 373.216 190.053 379.845C190.318 386.209 191.379 392.705 191.909 399.069C194.295 423.729 187.534 446.931 179.977 470C178.121 475.568 176.265 481.137 174.409 486.705C172.155 490.285 170.564 494.13 169.371 498.24C168.841 499.433 168.31 500.626 167.78 501.819C163.935 499.566 162.742 495.19 159.958 492.141C156.379 488.296 154.522 483.788 153.329 478.75C152.269 473.845 152.666 468.807 152.004 463.769C151.473 460.189 150.678 456.477 151.208 452.632C152.269 444.677 152.004 436.722 151.871 428.767C151.738 416.57 151.341 404.372 153.992 392.175C155.451 385.678 155.716 378.784 157.969 372.686C160.091 366.985 161.284 362.477 159.693 355.98C157.704 348.158 155.727 338.69 160.5 331C161.561 329.144 163.405 327.386 163.007 325C171.36 318.901 182.496 314.748 192.704 313.554C199.731 312.626 208.269 311.962 214.5 317C214.765 318.591 215.163 320.542 214.5 322C211.981 326.375 209.652 334.257 207 338.5C201.962 346.853 195.223 351.473 187.004 357.306C184.75 358.897 182.894 360.886 180.507 363.007C185.147 363.537 188.197 360.753 191.909 360.223Z" fill="#B9DDE7"/>
<path d="M213.651 317.001C207.42 311.963 199.864 312.759 192.97 313.687C182.761 315.013 173.614 319.52 165.261 325.619C161.549 326.15 159.295 329.331 155.981 330.657C155.716 329.331 157.572 327.608 156.114 326.68C154.523 325.619 152.402 326.017 150.545 326.415C149.087 326.68 150.545 328.271 150.148 329.199C146.833 328.669 144.314 325.619 140.867 325.619C126.947 320.316 112.761 318.99 98.178 322.702C92.4773 323.233 87.572 325.752 83.0644 329.199C82.2689 323.1 84.2576 317.399 85.981 311.698C88.3674 304.141 89.8257 296.186 94.5985 289.557C98.4432 288.496 102.288 287.568 106.133 286.508C115.015 284.784 123.898 283.061 132.913 282C143.784 280.674 154.655 280.807 165.394 282.53C174.276 283.856 183.159 284.917 191.776 287.303C194.958 288.231 198.14 289.292 201.322 290.22C203.443 291.678 205.962 292.474 208.348 293.137C211.265 299.368 212.591 306.13 215.375 312.361C216.038 313.952 216.701 315.676 216.701 317.532C215.242 319.255 214.58 317.001 213.651 317.001Z" fill="#9FC0CA"/>
<path d="M30.0338 33.278C32.5528 33.0128 32.4202 30.6263 33.6134 29.1679C35.0717 27.1792 36.3975 23.467 39.3141 25.0579C41.5679 26.3837 40.2422 29.8308 38.9164 32.2173C35.602 37.9183 31.227 42.9564 26.7194 47.5967C21.4164 53.0325 21.0187 59.2638 21.6816 66.1581C22.477 74.6433 24.7308 82.7307 26.0566 91.2159C26.852 96.6517 28.8406 101.822 30.9619 106.993C31.227 107.789 31.7573 108.584 31.7573 109.38C32.4202 115.08 37.0603 117.202 41.3028 118.925C50.0528 122.505 58.6702 126.482 67.8179 129.134C70.4694 129.93 73.121 130.725 75.7725 131.123C75.905 132.846 75.5073 134.04 73.7838 134.968C72.1929 135.763 70.7346 136.956 69.1437 137.752C61.3217 142.26 52.5717 144.248 43.8217 142.923C38.7838 142.127 33.8785 140.138 28.5755 141.066C23.9353 139.475 19.9581 136.426 15.5831 134.437C14.2573 133.907 13.8596 132.581 13.3293 131.388C10.9429 125.024 10.28 118.66 8.95428 112.296C7.23079 103.546 7.23079 94.5304 6.17019 85.6475C5.77246 82.5981 5.24216 79.5488 4.84443 76.4994C4.97701 76.4994 5.10958 76.3668 5.10958 76.3668C5.10958 76.2342 4.97701 76.1016 4.84443 75.8365C4.84443 75.3062 4.84443 74.9084 4.84443 74.3781C7.49595 72.522 5.70455 68.1516 6.5 65.5C7.42803 62.0529 5.42045 59.019 9 56.5C9.66288 56.1023 10.7652 56.4281 10.5 55.5C10.1023 54.3068 9.92803 55.5 9 55.5C4.0947 55.2348 4.82576 57.6403 3.5 53C2.83712 50.7461 2.5 48.5 1.5 45.5C1.5 44.9697 1 39.5303 1 39C3.51894 32.6361 3.12095 26.2512 3.9164 19.3569C4.18155 16.7053 3.3861 14.0537 4.71185 11.5347C5.24216 10.6066 5.63988 9.1482 7.23079 9.54594C8.8217 9.8111 8.2914 11.2695 8.2914 12.1976C8.2914 15.9098 8.2914 19.4895 8.68913 23.3344C10.8103 19.6221 11.3406 15.3795 12.5338 11.4021C13.3293 9.01562 13.5944 6.62916 14.2573 4.2427C14.655 2.78431 15.3179 1.06075 17.4391 1.59108C19.1626 1.98882 19.4278 3.57979 19.1626 5.17077C18.6323 9.01562 17.9694 12.993 17.3066 16.8379C17.174 18.1637 16.1134 19.7547 18.4997 20.285C15.8482 22.9366 17.4508 22.9366 20.5 23.3344C21.8258 23.467 22.5417 23.6023 24 24C24.7955 24.2652 23.7045 25.4281 24.5 24.5C25.2955 23.5719 25.0606 25.5606 24 24.5C24.2652 23.8371 27.1172 21.0805 27.3823 20.4176C27.6475 20.1524 27.78 19.8873 28.0452 19.6221C28.0452 19.3569 28.0452 19.2244 28.0452 18.9592C28.3103 18.694 28.4429 18.4289 28.7081 18.1637C30.0338 13.2582 30.0338 8.08755 33.4808 3.97754C34.1437 3.31463 34.4088 2.1214 35.602 2.38656C36.9278 2.65172 36.3975 3.84495 36.6626 4.77302C39.049 12.8605 34.4088 19.6221 31.7573 26.5163C30.8293 28.7702 29.9013 30.7589 30.0338 33.278C29.9013 33.278 29.7687 33.278 29.7687 33.4105C29.7687 33.4105 29.7687 33.5431 29.7687 33.6757C29.7687 33.4105 29.9013 33.278 30.0338 33.278Z" fill="#F4E4BA"/>
<path d="M230.223 202.186C229.295 212.13 227.837 222.073 228.102 232.15C228.235 236.525 228.765 240.9 230.223 245.143C232.079 250.844 232.742 256.81 233.14 262.776C233.803 274.045 233.405 285.315 234.068 296.584C234.731 307.721 235.394 318.725 235.261 329.862C235.261 334.37 238.841 336.358 241.625 338.48C245.735 341.396 246.663 344.844 245.337 349.351C244.144 353.196 241.492 354.124 238.443 351.473C237.913 353.726 237.647 355.98 236.985 358.102C236.587 359.427 236.322 361.018 234.333 361.151C232.344 361.151 232.61 359.427 231.947 358.102C230.753 360.621 230.488 364.068 226.909 363.935C224.39 363.803 225.318 361.416 224.92 359.56C224.39 360.356 223.992 361.151 223.329 361.681C221.075 363.803 218.822 363.272 217.894 360.356C216.833 356.776 217.098 352.931 217.098 349.219C217.098 348.291 217.628 346.567 215.64 347.363C211.397 349.086 211.265 346.435 211.265 343.518C211.265 343.12 211.265 342.855 211.265 342.457C212.458 340.734 213.651 339.01 214.844 337.286C215.11 337.021 215.375 336.756 215.507 336.491C218.954 336.093 219.485 333.442 219.882 330.79C220.678 330.26 220.678 329.332 220.545 328.536C220.28 322.305 220.81 316.339 218.822 310.107C216.568 303.213 216.038 295.921 214.844 288.629C214.579 287.171 214.579 285.712 212.723 285.315C212.458 284.519 212.325 283.856 212.06 283.061C213.784 282.796 213.386 281.337 213.386 280.144C213.386 277.625 212.988 274.973 213.519 272.587C214.844 265.295 212.723 258.931 209.144 252.567C205.962 246.866 205.697 240.635 206.625 234.138C207.685 227.377 210.337 221.278 212.458 214.914C215.375 206.959 222.003 202.186 230.223 202.186ZM225.318 357.306C225.45 357.306 225.583 357.306 225.716 357.439C225.716 353.859 225.716 350.412 225.716 346.832C225.583 346.832 225.45 346.832 225.318 346.832C225.318 350.279 225.318 353.726 225.318 357.306Z" fill="#F4E4BA"/>
<path d="M144.049 490.418C139.143 481.932 135.299 473.049 132.117 463.901C128.272 452.765 124.03 441.628 122.174 429.828C120.981 422.138 120.053 414.449 118.727 406.759C116.871 395.755 117.666 384.485 115.943 373.481C115.412 370.432 112.893 367.913 113.822 364.598C115.943 365.924 117.931 367.382 120.318 368.178C120.715 368.576 121.113 369.106 121.511 369.504C127.079 374.144 133.708 374.277 140.602 374.011C144.712 373.879 148.424 373.216 151.473 370.299C150.545 378.784 150.412 387.27 150.28 395.755C149.882 408.748 148.822 421.608 149.352 434.601C149.352 435.662 149.352 436.722 149.219 437.783C147.761 450.246 146.568 462.708 146.303 475.303C146.17 480.474 145.507 485.512 144.049 490.418Z" fill="#9FC0CA"/>
<path d="M135.432 56.347C136.36 51.0438 141.53 47.0663 147.761 46.9338C157.97 46.8012 166.587 49.718 174.541 57.0099C182.894 64.6996 188.595 73.5826 191.776 84.189C193.765 91.2158 197.477 96.7842 203.576 100.762C206.89 103.016 209.542 105.932 211.928 109.114C217.231 116.141 214.712 123.168 206.492 125.82C201.985 127.278 197.875 129.532 195.621 134.172C195.091 135.365 194.03 136.293 193.235 137.354C188.595 138.812 184.087 138.017 179.712 136.559C178.916 136.426 177.988 136.691 177.458 135.763C177.723 135.365 175.204 128.298 177.458 131.5C179.579 122.484 178.398 116.413 178 107C177.867 104.481 178.5 102.519 178.5 100C178.5 93.2384 176.663 87.8972 174.011 81.931C173.613 81.1355 174.541 80.2116 174.011 80.7419C173.481 81.1397 173.216 81.67 173.348 82.3329C175.602 90.1552 174.807 98.3752 176.132 106.463C176.265 107.523 176.663 110.235 175.337 110.5C173 109.5 173 107.295 173 106.5C172.5 103 171.663 100.182 171 97C168.614 85.7306 164.352 76.4549 156 68.5C153.348 62.799 147.496 60.457 142.326 63.9041C141.663 64.3019 141.132 65.0974 140.072 64.567C137.685 63.1086 137.553 60.0593 139.939 58.6009C140.867 58.0706 141.795 57.5402 142.723 57.0099C146.568 54.2257 153.595 54.0931 157.572 56.8773C158.235 57.4077 158.837 57.6728 159.5 57.0099C159.5 56.5 159.03 56.1629 158.5 55.5C153.86 50.0642 141.663 47.7292 137.42 55.2864C136.757 55.9493 136.227 56.347 135.432 56.347Z" fill="#FEDA7E"/>
<path d="M135.564 137.221C135.564 137.487 135.564 137.619 135.564 137.884C134.238 138.68 133.841 140.138 133.178 141.331C130.791 145.839 125.091 146.767 122.041 142.657C118.594 137.884 113.822 135.63 108.386 134.437C106.397 134.039 104.807 133.376 103.746 131.52C103.348 126.747 105.072 122.903 107.723 118.925C111.303 113.754 113.291 107.656 113.954 101.292C116.473 100.496 116.075 98.3751 116.075 96.519C115.943 89.8899 117.269 83.526 120.318 77.5599C125.091 68.1466 131.322 64.9646 141.265 66.6882C139.409 71.0634 138.348 75.8363 134.769 79.2834C129.333 84.5867 128.14 91.0831 129.333 98.3751C130.526 106.463 134.769 113.092 138.481 119.986C139.409 122.637 139.144 125.289 139.144 127.941C139.674 130.592 137.022 132.183 136.89 134.437C136.094 134.967 136.227 135.763 136.227 136.558C136.094 136.691 135.829 136.956 135.564 137.221Z" fill="#FDD97E"/>
<path d="M158.633 532.843C156.644 539.075 157.307 545.439 157.307 551.67C157.307 554.454 157.307 557.238 157.307 559.89C157.174 562.807 154.523 564.795 151.871 563.47C148.689 561.879 145.242 561.481 141.795 561.746C137.951 562.011 136.492 560.022 135.564 556.84C133.974 550.874 134.636 544.908 135.697 539.075C136.758 532.976 136.227 527.142 135.167 521.309C134.371 517.066 135.299 513.221 137.42 510.039C140.205 505.797 141.928 500.891 144.845 496.781C148.159 501.024 150.811 505.797 153.462 510.437C156.777 516.271 158.235 522.635 157.307 529.396C157.042 530.722 157.572 531.915 158.633 532.843Z" fill="#F4E4BA"/>
<path d="M222.269 198.474C221.863 196.508 221.509 194.526 221.154 192.543C220.002 186.1 218.845 179.631 215.905 173.549C212.723 166.92 207.685 161.882 202.515 156.844C200.261 154.59 198.538 152.071 197.61 149.021C196.151 144.248 196.947 142.26 201.454 140.138C202.25 139.741 202.647 139.475 202.78 138.68V138.017C212.06 139.343 219.485 143.586 224.39 151.673C228.165 157.965 229.701 165.003 231.227 172.001C231.631 173.851 232.034 175.697 232.477 177.526C233.444 181.572 233.945 185.676 234.443 189.761C234.696 191.834 234.949 193.902 235.261 195.955C235.394 196.618 235.394 197.413 235.261 198.076C234.731 202.982 234.598 202.982 230.356 201.523C228.535 198.975 225.826 198.759 223.042 198.538C222.785 198.517 222.527 198.497 222.269 198.474Z" fill="#EFA188"/>
<path d="M222.269 198.474C221.863 196.508 221.509 194.526 221.154 192.543C220.002 186.1 218.845 179.631 215.905 173.549C212.723 166.92 207.685 161.882 202.515 156.844C200.261 154.59 198.538 152.071 197.61 149.021C196.151 144.248 196.947 142.26 201.454 140.138C202.25 139.741 202.647 139.475 202.78 138.68V138.017C212.06 139.343 219.485 143.586 224.39 151.673C228.165 157.965 229.701 165.003 231.227 172.001C231.631 173.851 232.034 175.697 232.477 177.526C233.444 181.572 233.945 185.676 234.443 189.761C234.696 191.834 234.949 193.902 235.261 195.955C235.394 196.618 235.394 197.413 235.261 198.076C234.731 202.982 234.598 202.982 230.356 201.523C228.535 198.975 225.826 198.759 223.042 198.538C222.785 198.517 222.527 198.497 222.269 198.474Z" stroke="#EFA188"/>
<path d="M144.049 490.417C145.375 485.512 146.17 480.474 146.303 475.436C146.568 462.841 147.761 450.378 149.219 437.915C149.352 436.855 149.352 435.794 149.352 434.733C148.822 421.74 149.882 408.88 150.28 395.887C150.545 387.402 150.678 378.917 151.473 370.432C153.992 366.322 151.871 362.079 152.136 357.836C152.401 351.738 150.545 346.037 148.689 340.336C146.966 334.9 143.254 330.657 140.602 325.619C144.182 325.619 146.568 328.669 149.882 329.199C150.943 333.839 151.871 338.347 152.932 343.12C153.86 339.01 154.788 334.767 155.716 330.657C159.03 329.331 161.284 326.149 164.996 325.619C165.394 328.006 164.068 329.862 163.007 331.718C158.235 339.408 157.704 348.291 159.693 356.113C161.284 362.609 160.091 367.117 157.969 372.818C155.716 378.917 155.451 385.811 153.992 392.307C151.341 404.372 151.738 416.57 151.871 428.9C151.871 436.855 152.269 444.81 151.208 452.764C150.678 456.477 151.473 460.189 152.004 463.901C152.666 468.939 152.269 473.977 153.329 478.883C154.39 483.921 156.379 488.429 159.958 492.274C162.742 495.323 163.935 499.698 167.78 501.952C167.648 502.217 167.382 502.482 167.25 502.748C166.057 502.748 165.394 501.819 164.466 501.157C160.621 498.505 157.307 495.19 153.064 493.202C148.822 491.08 148.822 491.08 147.496 495.588C146.701 495.588 146.038 495.456 145.242 495.456C141.928 494.66 144.314 492.141 144.049 490.417Z" fill="#ABCDD7"/>
<path d="M106.795 286.5C104.873 287.03 102.718 287.563 100.564 288.095C98.4097 288.627 96.2554 289.159 94.333 289.69C95.6588 283.591 97.1171 277.625 100.166 272.189C104.939 263.571 109.181 254.688 112.496 245.408C113.556 242.491 113.689 239.574 113.822 236.525C114.352 223.267 113.822 210.141 112.363 197.015C111.7 191.182 110.375 185.216 107.591 179.913C105.337 175.802 101.625 172.753 96.7194 171.825C96.2249 171.726 95.8779 171.332 95.5135 170.918C95.3893 170.777 95.2632 170.634 95.1285 170.499C98.244 170.963 101.36 171.46 104.475 171.958C107.591 172.455 110.706 172.952 113.822 173.416C115.147 173.681 115.413 174.609 114.882 175.935C111.974 183.309 113.622 190.602 115.238 197.75C115.684 199.726 116.129 201.692 116.473 203.645C117.565 209.869 121.266 215.194 124.907 220.435C125.687 221.557 126.464 222.675 127.212 223.797C128.007 224.858 128.803 225.918 129.068 227.244C129.2 228.57 129.068 229.63 127.344 229.63C123.009 229.63 120.887 232.885 118.914 235.911L118.86 235.994C117.666 237.718 117.003 239.839 116.341 241.96C114.617 247.131 112.761 252.302 110.905 257.472C108.784 263.571 107.325 270.068 106.795 276.564C106.397 279.879 106.53 283.053 106.795 286.5Z" fill="#D89179"/>
<path d="M106.795 286.5C104.873 287.03 102.718 287.563 100.564 288.095C98.4097 288.627 96.2554 289.159 94.333 289.69C95.6588 283.591 97.1171 277.625 100.166 272.189C104.939 263.571 109.181 254.688 112.496 245.408C113.556 242.491 113.689 239.574 113.822 236.525C114.352 223.267 113.822 210.141 112.363 197.015C111.7 191.182 110.375 185.216 107.591 179.913C105.337 175.802 101.625 172.753 96.7194 171.825C96.2249 171.726 95.8779 171.332 95.5135 170.918C95.3893 170.777 95.2632 170.634 95.1285 170.499C98.244 170.963 101.36 171.46 104.475 171.958C107.591 172.455 110.706 172.952 113.822 173.416C115.147 173.681 115.413 174.609 114.882 175.935C111.974 183.309 113.622 190.602 115.238 197.75C115.684 199.726 116.129 201.692 116.473 203.645C117.565 209.869 121.266 215.194 124.907 220.435C125.687 221.557 126.464 222.675 127.212 223.797C128.007 224.858 128.803 225.918 129.068 227.244C129.2 228.57 129.068 229.63 127.344 229.63C123.009 229.63 120.887 232.885 118.914 235.911L118.86 235.994C117.666 237.718 117.003 239.839 116.341 241.96C114.617 247.131 112.761 252.302 110.905 257.472C108.784 263.571 107.325 270.068 106.795 276.564C106.397 279.879 106.53 283.053 106.795 286.5Z" stroke="#D89179"/>
<path d="M28.4429 140.801C33.7459 139.873 38.6512 141.729 43.6891 142.657C52.4391 144.116 61.0565 142.127 69.0111 137.486C70.602 136.558 71.9277 135.498 73.6512 134.702C75.3747 133.907 75.7724 132.581 75.6398 130.857C76.0376 130.99 76.4353 131.123 76.9656 131.388C77.0982 131.653 77.0982 131.918 77.2308 132.183C78.9542 134.437 80.28 136.824 81.4732 139.475C82.4012 145.574 83.0641 151.673 80.1474 157.506C79.6171 159.362 78.9542 160.953 77.0982 161.881C71.1323 161.086 65.6967 158.434 60.2611 156.048C50.583 151.805 40.905 147.297 31.227 142.79C30.0338 142.259 28.9732 141.862 28.4429 140.801Z" fill="#ECDBB0"/>
<path d="M222.269 198.474C225.185 198.739 228.235 198.739 230.223 201.523C230.223 201.788 230.223 201.921 230.223 202.186C221.871 202.186 215.242 206.959 212.591 214.914C210.469 221.278 207.818 227.377 206.757 234.138C205.829 240.635 206.094 246.999 209.276 252.567C212.856 258.931 214.977 265.295 213.651 272.587C213.253 274.973 213.651 277.625 213.519 280.144C213.519 281.204 213.916 282.663 212.193 283.061C212.325 280.276 211.265 277.89 210.337 275.371C205.034 260.654 201.719 245.54 201.852 229.763C201.985 220.748 203.045 211.865 203.31 202.849C204.238 201.921 205.299 200.86 206.227 199.932C211.53 197.944 216.966 198.872 222.269 198.474Z" fill="#ECDBB0"/>
<path d="M141 67C131.057 65.2764 125.773 68.2193 121 77.5C117.951 83.4662 115.943 89.6248 116.076 96.2538C116.076 98.11 116.519 101.205 114 102C114 92.9845 112.496 82.9957 115.28 74.1128C117.799 66.0253 121.909 59.5288 129.864 55.8166C132.118 54.7559 133.708 55.1537 135.432 56.2143C136.227 56.2143 136.758 55.8166 137.155 55.1537C141.398 47.5965 153.993 49.7178 158.5 55.1537C159.03 55.8166 160.928 56.3469 160 57.4076C159.337 58.203 157.97 57.275 157.307 56.7446C153.462 53.9604 146.845 54.6233 143 57.4076C142.072 58.0705 140.735 58.4697 139.807 59C137.421 60.4584 138 62 139.807 64.4344C140.735 64.9647 141.265 64.3018 142.061 63.7714C147.364 60.3243 153.849 62.299 156.5 68C151.728 68.2652 145.773 68.3258 141 67Z" fill="#F7D67F"/>
<path d="M173.879 499.698C176.398 503.808 178.651 508.183 180.375 512.824C182.363 518.392 186.606 521.972 191.644 524.889C196.284 527.54 196.947 531.915 193.5 535.893C192.439 535.893 191.644 533.241 190.451 535.628C188.727 539.34 187.004 537.749 185.148 535.893C184.22 534.965 183.159 534.169 182.098 533.374C174.674 528.203 168.045 522.37 167.25 512.426C167.117 510.835 167.117 509.111 166.057 507.653C166.057 507.123 166.189 506.592 166.72 506.195C170.166 505.267 171.36 501.687 173.879 499.698Z" fill="#F4E4BA"/>
<path d="M165.924 507.653C166.985 508.979 166.985 510.835 167.117 512.426C167.913 522.37 174.541 528.203 181.966 533.374C183.026 534.169 184.087 534.965 185.015 535.893C186.871 537.749 188.727 539.34 190.318 535.628C191.379 533.241 192.307 535.893 193.367 535.893C192.041 539.207 189.257 540.401 186.208 540.135C180.905 539.605 176.132 537.749 172.951 532.976C170.299 528.866 166.985 525.286 163.935 521.441C163.273 520.646 162.61 519.32 161.416 519.85C160.356 520.248 161.019 521.574 160.754 522.37C159.693 525.817 158.102 529.264 158.5 532.976C157.439 532.048 156.909 530.855 157.174 529.396C158.235 522.635 156.644 516.271 153.329 510.437C150.678 505.797 148.026 501.024 144.712 496.781C144.977 496.251 145.242 495.853 145.375 495.323C146.17 495.323 146.833 495.456 147.629 495.456C153.727 498.903 160.223 502.085 163.803 508.714C165.129 510.702 165.261 507.918 165.924 507.653Z" fill="#ECDBB0"/>
<path d="M120.451 368.31C118.064 367.515 116.076 366.056 113.954 364.731C106.398 357.173 96.3218 352.401 89.2953 344.048C85.7157 339.805 83.3294 334.9 82.9316 329.199C87.4392 325.884 92.3445 323.365 98.0453 322.702C94.7309 325.619 93.8029 328.801 95.7915 333.176C100.166 342.855 106.132 351.472 113.424 359.295C115.943 362.212 118.727 364.731 120.451 368.31Z" fill="#ABCDD7"/>
<path d="M215.11 337.154C213.916 338.877 212.723 340.601 211.53 342.324C206.227 349.616 198.803 354.655 191.909 360.223C188.329 360.753 185.147 363.405 180.772 363.007C183.159 360.886 185.147 359.03 187.269 357.306C195.488 351.34 200.129 342.722 205.166 334.502C207.818 330.26 210.072 325.752 212.591 321.377C213.386 320.051 213.916 318.592 213.651 316.869C214.712 316.869 215.242 319.123 216.568 317.532C218.159 321.642 218.424 325.884 217.098 330.127C216.435 332.116 215.64 334.237 215.772 336.358C215.507 336.756 215.375 337.021 215.11 337.154Z" fill="#ABCDD7"/>
<path d="M77.0982 132.183C77.0319 132.051 76.9987 131.918 76.9656 131.786C76.9324 131.653 76.8993 131.52 76.833 131.388C81.6528 129.594 86.6621 129.886 91.7007 130.179C92.6216 130.233 93.5436 130.286 94.4656 130.327C96.6762 130.423 98.8869 130.728 101.148 131.041C102.006 131.159 102.871 131.278 103.746 131.388C104.674 133.244 106.397 133.907 108.386 134.305C113.822 135.498 118.594 137.752 122.041 142.525C125.091 146.635 130.791 145.707 133.178 141.199C133.336 140.913 133.48 140.612 133.625 140.309C134.084 139.345 134.556 138.357 135.564 137.752C135.564 141.729 134.371 145.441 130.659 147.032C126.151 149.021 121.511 148.226 117.534 144.778L111.966 139.608C106.397 134.57 99.5035 132.979 92.4769 132.846C88.6357 132.846 84.8676 132.627 81.064 132.405C79.7478 132.328 78.4274 132.251 77.0982 132.183Z" fill="#D89179"/>
<path d="M77.0982 132.183C77.0319 132.051 76.9987 131.918 76.9656 131.786C76.9324 131.653 76.8993 131.52 76.833 131.388C81.6528 129.594 86.6621 129.886 91.7007 130.179C92.6216 130.233 93.5436 130.286 94.4656 130.327C96.6762 130.423 98.8869 130.728 101.148 131.041C102.006 131.159 102.871 131.278 103.746 131.388C104.674 133.244 106.397 133.907 108.386 134.305C113.822 135.498 118.594 137.752 122.041 142.525C125.091 146.635 130.791 145.707 133.178 141.199C133.336 140.913 133.48 140.612 133.625 140.309C134.084 139.345 134.556 138.357 135.564 137.752C135.564 141.729 134.371 145.441 130.659 147.032C126.151 149.021 121.511 148.226 117.534 144.778L111.966 139.608C106.397 134.57 99.5035 132.979 92.4769 132.846C88.6357 132.846 84.8676 132.627 81.064 132.405C79.7478 132.328 78.4274 132.251 77.0982 132.183Z" stroke="#D89179"/>
<path d="M1.13241 41.2327C4.04908 42.8236 2.32559 45.7404 2.98847 47.9943C4.31423 52.5021 5.50741 53.9605 10.4127 54.3582C11.3407 54.3582 12.5339 53.8279 12.9317 55.0211C13.1968 55.9492 12.2688 56.6121 11.6059 57.0098C8.02635 59.3963 8.42408 63.3737 7.36347 66.9534C6.56802 69.605 7.2309 72.6544 4.57938 74.6431C3.25362 65.3624 3.9165 55.9492 0.999837 46.8011C0.734686 44.9449 1.13241 42.9562 1.13241 41.2327Z" fill="#ECDBB0"/>
<path d="M202.78 138.017V138.68C199.99 139.719 197.11 140.488 194.232 141.256C190.136 142.349 186.046 143.44 182.231 145.309C181.276 145.786 180.465 145.548 179.653 145.309C179.113 145.15 178.572 144.991 177.988 145.044C178.044 143.826 178.445 142.678 178.847 141.532C179.407 139.932 179.965 138.335 179.579 136.559C184.087 138.017 188.462 138.812 193.102 137.354C196.416 137.487 199.598 137.752 202.78 138.017Z" fill="#D89179"/>
<path d="M202.78 138.017V138.68C199.99 139.719 197.11 140.488 194.232 141.256C190.136 142.349 186.046 143.44 182.231 145.309C181.276 145.786 180.465 145.548 179.653 145.309C179.113 145.15 178.572 144.991 177.988 145.044C178.044 143.826 178.445 142.678 178.847 141.532C179.407 139.932 179.965 138.335 179.579 136.559C184.087 138.017 188.462 138.812 193.102 137.354C196.416 137.487 199.598 137.752 202.78 138.017Z" stroke="#D89179"/>
<path d="M24.996 0C28.0453 0 30.4316 3.31453 28.8407 7.0268C26.8521 12.1975 26.4544 17.7659 24.996 23.0691C23.8028 22.6714 22.6097 22.141 21.2839 21.7433C20.621 21.4781 19.8256 21.213 20.3559 20.2849C22.0794 17.5007 21.6816 14.3188 22.3445 11.402C23.2725 7.55712 24.996 3.97743 24.996 0Z" fill="#F4E4BA"/>
<path d="M24.9962 0C24.9962 3.97743 23.2727 7.55712 22.3447 11.402C21.6818 14.3188 22.0795 17.6333 20.356 20.2849C19.8257 21.213 20.6212 21.4781 21.2841 21.7433C22.4773 22.141 23.6704 22.6714 24.9962 23.0691C25.5265 22.8039 25.9242 22.5388 26.4545 22.2736C27.5151 23.2017 27.5151 24.3949 26.7197 25.4556C25.9242 26.3836 24.9962 25.4556 24.0682 25.1904C22.7424 24.7927 21.4167 24.1298 19.9583 23.8646C17.0417 23.4669 15.7159 22.6714 18.3674 20.0197C19.2954 15.3794 21.8144 11.2694 21.8144 6.36389C21.8144 4.11001 22.7424 1.59097 24.9962 0Z" fill="#ECDBB0"/>
<path d="M169.636 498.24C170.829 494.13 172.288 490.285 174.674 486.705C175.47 487.501 177.856 487.633 175.867 489.622C174.939 490.55 175.47 492.141 175.47 493.467C175.47 494.793 175.47 496.119 174.011 496.782C172.42 497.312 170.962 497.842 169.636 498.24Z" fill="#9FC0CA"/>
<path d="M169.636 498.24C171.095 497.709 172.42 497.312 173.879 496.781C173.879 497.709 173.879 498.637 174.011 499.565C171.36 501.554 170.299 505.134 166.72 506.062C166.985 504.869 167.25 503.675 167.515 502.482C167.648 502.217 167.913 501.952 168.045 501.687C168.576 500.626 169.106 499.433 169.636 498.24Z" fill="#ECDBB0"/>
<path d="M3.91658 19.3569C3.12112 26.1186 3.91658 33.1454 1.13249 39.6418C0.602183 33.4105 2.19309 27.4444 2.59082 21.3457C2.7234 20.5502 3.2537 19.8873 3.91658 19.3569Z" fill="#ECDBB0"/>
<path d="M93.6704 169.704C94.3333 169.704 94.8636 169.836 95.1287 170.499C94.4659 170.367 93.9356 170.234 93.6704 169.704Z" fill="#D89179"/>
<path d="M28.5755 18.031C28.3103 18.2962 28.1777 18.5613 27.9126 18.8265C28.1777 18.5613 28.3103 18.2962 28.5755 18.031Z" fill="#ECDBB0"/>
<path d="M4.71191 75.8364C4.84449 75.969 4.97707 76.1016 4.97707 76.3667C4.97707 76.3667 4.84449 76.4993 4.71191 76.4993C4.71191 76.2342 4.71191 76.1016 4.71191 75.8364Z" fill="#ECDBB0"/>
<path d="M27.7801 19.3569C27.5149 19.6221 27.3823 19.8873 27.1172 20.1524C27.3823 19.8873 27.6475 19.6221 27.7801 19.3569Z" fill="#ECDBB0"/>
<path d="M126.947 180.443C126.947 180.183 126.961 179.908 126.975 179.628C127.005 179.054 127.036 178.459 126.947 177.924C125.754 171.03 129.996 167.185 135.034 163.87C138.613 161.484 142.723 161.484 146.303 163.207C155.318 167.317 164.333 165.859 173.348 164.268C179.314 163.207 181.568 164.533 183.822 170.102C189.39 183.758 186.738 196.353 179.844 208.55C177.856 212.13 176.132 215.842 174.939 219.687C173.481 224.99 169.901 226.449 164.466 226.316C162.433 226.272 160.4 226.021 158.367 225.771C154.302 225.27 150.236 224.769 146.17 225.918C145.64 226.051 144.712 226.183 144.447 225.918C143.126 224.683 141.56 223.735 139.989 222.785C136.669 220.776 133.33 218.756 132.25 213.986C131.915 212.425 131.573 210.869 131.231 209.316C129.135 199.788 127.061 190.361 126.947 180.443Z" fill="#EFA188"/>
<path d="M126.947 180.443C126.947 180.183 126.961 179.908 126.975 179.628C127.005 179.054 127.036 178.459 126.947 177.924C125.754 171.03 129.996 167.185 135.034 163.87C138.613 161.484 142.723 161.484 146.303 163.207C155.318 167.317 164.333 165.859 173.348 164.268C179.314 163.207 181.568 164.533 183.822 170.102C189.39 183.758 186.738 196.353 179.844 208.55C177.856 212.13 176.132 215.842 174.939 219.687C173.481 224.99 169.901 226.449 164.466 226.316C162.433 226.272 160.4 226.021 158.367 225.771C154.302 225.27 150.236 224.769 146.17 225.918C145.64 226.051 144.712 226.183 144.447 225.918C143.126 224.683 141.56 223.735 139.989 222.785C136.669 220.776 133.33 218.756 132.25 213.986C131.915 212.425 131.573 210.869 131.231 209.316C129.135 199.788 127.061 190.361 126.947 180.443Z" stroke="#EFA188"/>
<path d="M153.595 233.873C159.428 233.74 164.731 235.994 170.034 238.248C173.746 239.839 176 242.623 177.193 246.733C178.784 252.434 180.773 257.87 183.026 263.306C184.22 266.355 183.424 268.477 181.568 270.863C179.579 273.382 177.061 273.382 174.409 272.719C173.821 272.577 173.236 272.429 172.651 272.282C168.889 271.336 165.186 270.404 161.284 270.863C157.941 271.341 154.556 271.436 151.162 271.532C146.076 271.675 140.971 271.818 135.962 273.25C132.78 274.178 129.201 272.719 126.814 270.068C124.693 267.681 125.223 264.764 126.284 261.848L126.284 261.848C127.875 257.472 129.466 253.097 130.792 248.59C133.443 239.574 142.06 234.006 153.595 233.873Z" fill="#EFA188"/>
<path d="M153.595 233.873C159.428 233.74 164.731 235.994 170.034 238.248C173.746 239.839 176 242.623 177.193 246.733C178.784 252.434 180.773 257.87 183.026 263.306C184.22 266.355 183.424 268.477 181.568 270.863C179.579 273.382 177.061 273.382 174.409 272.719C173.821 272.577 173.236 272.429 172.651 272.282C168.889 271.336 165.186 270.404 161.284 270.863C157.941 271.341 154.556 271.436 151.162 271.532C146.076 271.675 140.971 271.818 135.962 273.25C132.78 274.178 129.201 272.719 126.814 270.068C124.693 267.681 125.223 264.764 126.284 261.848L126.284 261.848C127.875 257.472 129.466 253.097 130.792 248.59C133.443 239.574 142.06 234.006 153.595 233.873Z" stroke="#EFA188"/>
<path d="M179.712 136.558C180.375 139.608 178.254 142.127 178.121 145.044H178.254C177.988 145.309 177.723 145.574 177.458 145.839C174.144 149.817 170.564 153.396 165.659 155.385C160.886 157.241 156.246 157.506 151.871 154.987C144.049 150.347 137.818 144.248 137.022 134.305C137.288 131.918 139.807 130.327 139.276 127.808C144.314 130.195 149.087 133.642 154.788 134.172C161.682 134.835 168.575 134.702 175.337 134.967C176 135.233 176.795 135.498 177.458 135.763C177.988 136.558 178.916 136.426 179.712 136.558Z" fill="#F4E4BA"/>
<path d="M206.36 200.065L203.443 202.982C201.99 202.878 202 201.88 202.009 200.943C202.011 200.683 202.014 200.428 201.985 200.197C201.944 199.669 201.953 199.14 201.963 198.603C201.984 197.391 202.006 196.14 201.455 194.762C199.881 196.223 199.546 197.875 199.238 199.394C199.183 199.667 199.129 199.935 199.068 200.197C198.739 201.7 198.444 203.22 198.146 204.751C197.604 207.54 197.055 210.365 196.284 213.19C191.909 229.233 192.705 245.142 198.008 260.92C198.7 263.055 199.468 265.165 200.235 267.272C201.229 270.006 202.222 272.733 203.045 275.504C204.901 281.337 206.492 287.303 208.083 293.269C205.564 292.606 203.178 291.811 201.057 290.353C201.189 283.856 199.598 277.625 197.742 271.526C195.886 265.162 194.428 258.798 193.102 252.434C192.791 250.699 192.569 248.934 192.346 247.164C191.906 243.66 191.463 240.137 190.318 236.79C189.125 233.608 187.269 231.089 183.822 230.161C180.773 229.233 181.038 227.244 182.231 225.123C183.159 223.399 184.22 221.808 185.545 220.35C191.686 213.075 194.461 204.387 197.227 195.725C198.343 192.23 199.458 188.74 200.792 185.348C201.682 183.012 202.012 180.302 202.33 177.689C202.391 177.188 202.451 176.691 202.515 176.2C202.648 175.007 203.042 173.326 204.5 172C205.748 177.908 205.849 183.905 205.947 189.78C206.006 193.265 206.064 196.708 206.36 200.065Z" fill="#D89179"/>
<path d="M206.36 200.065L203.443 202.982C201.99 202.878 202 201.88 202.009 200.943C202.011 200.683 202.014 200.428 201.985 200.197C201.944 199.669 201.953 199.14 201.963 198.603C201.984 197.391 202.006 196.14 201.455 194.762C199.881 196.223 199.546 197.875 199.238 199.394C199.183 199.667 199.129 199.935 199.068 200.197C198.739 201.7 198.444 203.22 198.146 204.751C197.604 207.54 197.055 210.365 196.284 213.19C191.909 229.233 192.705 245.142 198.008 260.92C198.7 263.055 199.468 265.165 200.235 267.272C201.229 270.006 202.222 272.733 203.045 275.504C204.901 281.337 206.492 287.303 208.083 293.269C205.564 292.606 203.178 291.811 201.057 290.353C201.189 283.856 199.598 277.625 197.742 271.526C195.886 265.162 194.428 258.798 193.102 252.434C192.791 250.699 192.569 248.934 192.346 247.164C191.906 243.66 191.463 240.137 190.318 236.79C189.125 233.608 187.269 231.089 183.822 230.161C180.773 229.233 181.038 227.244 182.231 225.123C183.159 223.399 184.22 221.808 185.545 220.35C191.686 213.075 194.461 204.387 197.227 195.725C198.343 192.23 199.458 188.74 200.792 185.348C201.682 183.012 202.012 180.302 202.33 177.689C202.391 177.188 202.451 176.691 202.515 176.2C202.648 175.007 203.042 173.326 204.5 172C205.748 177.908 205.849 183.905 205.947 189.78C206.006 193.265 206.064 196.708 206.36 200.065Z" stroke="#D89179"/>
<path d="M80.0151 157.506C82.9318 151.673 82.2689 145.574 81.3409 139.475C83.1704 139.515 85 139.483 86.8295 139.451C91.0985 139.377 95.3674 139.303 99.6364 140.138C103.746 140.934 107.591 142.392 110.11 145.839C113.689 150.479 109.977 158.965 103.481 160.423C95.2614 162.147 87.4394 161.616 80.0151 157.506Z" fill="#EFA188"/>
<path d="M80.0151 157.506C82.9318 151.673 82.2689 145.574 81.3409 139.475C83.1704 139.515 85 139.483 86.8295 139.451C91.0985 139.377 95.3674 139.303 99.6364 140.138C103.746 140.934 107.591 142.392 110.11 145.839C113.689 150.479 109.977 158.965 103.481 160.423C95.2614 162.147 87.4394 161.616 80.0151 157.506Z" stroke="#EFA188"/>
<path d="M177.458 145.839C177.723 145.574 177.988 145.309 178.253 145.044C177.988 145.309 177.723 145.574 177.458 145.839Z" fill="#D89179"/>
<path d="M135.564 137.221C135.83 136.956 136.095 136.691 136.227 136.426C136.095 136.691 135.83 136.956 135.564 137.221Z" fill="#D89179"/>
<path d="M120.451 368.31C118.86 364.731 115.943 362.212 113.291 359.427C106.132 351.605 97.5077 343.311 93.0001 333.5C91.0115 329.125 94.5982 325.752 97.9126 322.835C112.496 318.99 127.58 318.064 141.5 323.5C144.152 328.406 146.966 335.032 148.689 340.468C150.545 346.169 152.401 351.87 152.136 357.969C151.871 362.212 153.992 366.454 151.473 370.564C148.424 373.481 144.712 374.144 140.602 374.276C133.841 374.409 127.212 374.409 121.511 369.769C121.113 369.106 120.848 368.708 120.451 368.31Z" fill="#B9DDE7"/>
<path d="M30.0337 33.2779C29.9011 33.4105 29.7686 33.5431 29.7686 33.5431C29.7686 33.4105 29.7686 33.4105 29.7686 33.2779C29.7686 33.2779 29.9011 33.2779 30.0337 33.2779C30.0337 33.2779 30.0337 33.1453 30.0337 33.2779Z" fill="#FEFEFE"/>
<path d="M220.147 330.657C218.159 325.752 218.822 320.449 218.291 315.411C217.363 306.66 214.447 298.44 213.386 289.822C213.253 288.231 212.988 286.773 212.988 285.182C214.844 285.58 214.844 287.038 215.11 288.497C216.303 295.656 216.833 303.081 219.087 309.975C221.075 316.206 220.545 322.305 220.81 328.404C220.943 329.199 220.943 330.127 220.147 330.657Z" fill="#ECDBB0"/>
<path d="M215.11 337.154C215.375 336.888 215.64 336.623 215.773 336.358C215.508 336.756 215.375 337.021 215.11 337.154Z" fill="#FDFDFC"/>
<path d="M141.265 66.4231C146.038 67.7489 150.81 68.0141 155.716 67.8815C164.068 75.9689 169.238 85.6474 171.492 96.9167C172.155 100.231 173.216 103.413 173.216 106.728C173.216 107.523 173.216 109.512 174.939 109.247C176.265 108.982 176 107.523 175.867 106.463C174.541 98.5077 175.337 90.2877 173.083 82.3328C172.951 81.6699 173.216 81.1396 173.746 80.7419C174.144 82.2003 174.541 83.7912 174.939 85.2496C176.928 93.4696 180.958 102.015 179.5 110.5C178.572 115.671 174.254 122.505 172 127.013C169.481 127.145 166.019 130.867 163.5 131C156.341 131.265 150.231 129.243 144 125C142.277 123.807 140.867 119.721 138.481 119.853C134.769 112.959 130.526 106.33 129.333 98.2426C128.272 90.9506 129.466 84.4541 134.769 79.1509C138.481 75.5712 139.541 70.7983 141.265 66.4231Z" fill="#F4E4BA"/>
<path d="M170.962 124.229C173.348 119.721 175.867 115.478 176.795 110.175C178.386 101.69 177.06 93.4697 174.939 85.3823C174.541 83.9239 174.143 82.3329 173.746 80.8745C174.276 80.3442 174.806 80.2116 175.072 81.0071C177.856 86.9732 180.375 92.9394 180.242 99.8336C180.242 102.22 181.435 104.739 181.435 107.258C181.833 116.539 180.242 125.687 178.121 134.835C177.988 135.233 177.59 135.63 177.193 135.896C176.53 135.63 175.734 135.365 175.072 135.1C172.287 132.051 170.299 128.604 170.962 124.229Z" fill="#F7D67F"/>
<path d="M170.962 124.228C170.299 128.736 172.288 132.051 175.337 135.1C168.443 134.835 161.549 134.968 154.788 134.305C149.087 133.774 144.314 130.327 139.276 127.941C139.144 125.289 139.541 122.505 138.613 119.986C141 119.986 142.591 121.577 144.314 122.637C150.545 126.88 157.439 127.41 164.598 127.145C166.985 127.013 168.443 124.361 170.962 124.228Z" fill="#ECDBB0"/>
<path d="M167.382 502.615C167.117 503.808 166.852 505.001 166.587 506.195C166.056 506.46 165.924 506.99 165.924 507.653C165.261 507.918 165.128 510.702 164.068 508.714C160.356 502.085 153.992 498.903 147.894 495.456C149.219 490.948 149.219 490.948 153.462 493.069C157.704 495.058 161.019 498.505 164.863 501.024C165.659 501.687 166.189 502.615 167.382 502.615Z" fill="#B9DDE7"/>
<defs>
<filter id="filter0_f" x="42" y="312" width="237" height="77" filterUnits="userSpaceOnUse" color-interpolation-filters="sRGB">
<feFlood flood-opacity="0" result="BackgroundImageFix"/>
<feBlend mode="normal" in="SourceGraphic" in2="BackgroundImageFix" result="shape"/>
<feGaussianBlur stdDeviation="9.5" result="effect1_foregroundBlur"/>
</filter>
</defs>
</svg>
