<svg width="358" height="980" viewBox="0 0 358 980" fill="none" xmlns="http://www.w3.org/2000/svg">
<rect y="338" width="358" height="642" rx="22" fill="url(#paint0_linear)"/>
<g filter="url(#filter0_f)">
<ellipse cx="184.5" cy="350.5" rx="99.5" ry="19.5" fill="#BDD652" fill-opacity="0.57"/>
</g>
<path d="M117.67 169.704C114.984 169.559 112.456 168.777 109.914 167.991C107.814 167.342 105.704 166.689 103.485 166.389C101.098 166.124 99.2422 164.666 100.966 161.749C102.822 160.953 103.485 159.23 104.015 157.374C111.439 161.484 119.394 162.014 127.613 160.158C134.11 158.7 133.447 154.773 130 150C129.267 149.035 128.758 148.148 128.303 147.356C127.197 145.429 126.413 144.064 123.5 143.5C117.402 142.307 106.598 141.133 100.5 141C100.008 139.771 100.528 138.215 101.043 136.674C101.638 134.89 102.227 133.128 101.231 131.918C102.99 132.008 104.748 132.114 106.502 132.219C109.903 132.423 113.285 132.626 116.61 132.714C123.769 132.846 130.53 134.57 136.098 139.475L141.666 144.646C145.511 148.093 150.151 148.889 154.791 146.9C158.371 145.309 159.697 141.597 159.697 137.619V136.956C159.962 136.691 160.227 136.426 160.36 136.161C160.36 136.061 160.358 135.961 160.355 135.861C160.341 135.17 160.327 134.503 161.023 134.04C161.818 143.983 168.049 149.949 175.871 154.722C180.246 157.374 184.886 157.109 189.659 155.12C194.564 153.131 198.276 149.552 201.458 145.574L202.254 144.779H202.121C203.179 144.682 204.958 143.683 206.462 142.837C207.032 142.517 207.563 142.219 208 142C211.539 140.194 214.558 139.916 217.666 139.63C220.263 139.391 222.922 139.147 226 138C226 138.474 227.348 138.644 228.269 138.76C228.893 138.839 229.321 138.893 229 139C224.492 141.121 220.284 143.983 221.742 148.756C222.67 151.805 224.394 154.324 226.648 156.578C231.818 161.616 236.856 166.654 240.038 173.284C243.75 181.238 246.277 190.515 248 199C246.361 199.123 244.379 199.111 242.271 199.097C237.557 199.068 232.209 199.034 228.636 200.5C228.289 196.569 228.573 192.48 228.86 188.337C229.231 182.979 229.608 177.532 228.636 172.223C227.178 173.549 227.045 174.742 226.913 175.935C226.852 176.4 226.795 176.868 226.737 177.337C226.416 179.948 226.088 182.611 225.189 185.083C223.853 188.481 222.737 191.989 221.619 195.503C218.854 204.19 216.079 212.91 209.943 220.085C208.75 221.543 207.689 223.134 206.629 224.858C205.435 226.979 205.17 228.968 208.22 229.896C211.534 230.956 213.523 233.343 214.716 236.525C215.861 239.872 216.304 243.395 216.744 246.899C216.967 248.669 217.188 250.434 217.5 252.169C218.693 258.533 220.151 265.03 222.14 271.261C223.996 277.36 226.133 285.004 226 291.5C224.409 291.036 222.705 290.643 221 290.25C219.295 289.857 217.591 289.464 216 289C215.424 288.832 214.846 288.662 214.265 288.492C206.167 286.119 197.691 283.635 189.526 282.398C181.215 281.166 175.493 282.007 168.292 283.064C166.188 283.373 163.958 283.7 161.5 284C158.21 284.435 154.11 284.856 149.797 285.299C142.291 286.069 134.141 286.905 128.5 288C128.406 286.822 128.219 285.574 128.029 284.306C127.684 282.005 127.329 279.637 127.5 277.5C125.814 273.081 128.34 268.337 130.752 263.808C131.813 261.815 132.852 259.864 133.5 258C134.362 255.415 135.674 252.664 136.987 249.914C138.299 247.164 139.612 244.413 140.473 241.828C140.75 240.999 140.876 239.911 141.007 238.789C141.191 237.219 141.381 235.583 142 234.5C142.651 233.502 142.943 232.568 143.194 231.763C143.711 230.109 144.057 229 147 229C148.723 229 148.765 228.826 148.5 227.5C148.442 226.917 148.782 226.278 149.114 225.655C149.537 224.862 149.946 224.094 149.5 223.5C147.35 220.275 145.401 221.382 143.829 222.276C142.3 223.145 141.127 223.812 140.473 220.085C140.257 218.858 139.966 217.341 139.635 215.612C137.532 204.639 133.793 185.132 137 177C133.995 177 135.678 175.632 137.006 174.552C137.787 173.917 138.445 173.382 137.954 173.284C134.345 174.75 130.055 173.405 125.761 172.058C123.565 171.37 121.369 170.681 119.261 170.367C119.98 170.835 119.923 170.803 119.572 170.604C119.074 170.322 117.981 169.704 117.67 169.704ZM150.947 180.443C151.066 190.736 153.347 200.705 155.643 210.74C155.89 211.821 156.137 212.903 156.382 213.986C157.382 218.711 160.749 220.759 164.134 222.817C165.687 223.762 167.245 224.709 168.579 225.918C168.845 226.183 169.773 226.051 170.303 225.918C171.983 225.443 173.428 224.961 174.767 224.513C178.289 223.337 181.082 222.404 185.5 222.5C186.549 222.526 187.566 222.608 188.536 222.687C192.596 223.018 195.823 223.28 197 219C197.109 218.636 197.215 218.28 197.319 217.931C198.353 214.457 199.193 211.632 201 208.5C207.418 197.145 203.662 188.132 198.621 176.031C198.247 175.133 197.866 174.218 197.481 173.284C196.338 170.459 197.89 167.907 198.918 166.216C199.916 164.575 200.42 163.745 197.481 164.268C188.466 165.859 179.318 167.317 170.435 163.207C166.723 161.484 162.746 161.484 159.166 163.87C156.369 165.711 158.109 167.584 160.413 170.066C162.26 172.054 164.469 174.434 165 177.5C164.934 177.895 161.466 178.428 157.992 178.961C154.472 179.501 150.947 180.043 150.947 180.443ZM177.595 233.873C166.06 233.873 158.784 240.484 156 249.5C155.362 251.669 155.475 253.632 155.586 255.572C155.707 257.664 155.825 259.73 155 262C154.755 262.674 154.51 263.202 154.304 263.646C153.619 265.125 153.369 265.665 155 267.5C155.341 267.879 155.642 268.23 155.917 268.551C157.566 270.472 158.273 271.295 161 270.5C165.851 269.037 170.346 269.17 174.899 269.305C178.184 269.402 181.499 269.5 185 269C187.804 268.575 190.67 269.787 193.518 270.991C195.114 271.666 196.705 272.338 198.276 272.719C200.928 273.382 203.447 273.382 205.435 270.863C207.291 268.609 208.087 266.355 206.894 263.306C204.773 257.87 202.651 252.302 201.06 246.733C199.867 242.623 197.613 239.839 193.901 238.248C188.731 235.994 183.428 233.74 177.595 233.873Z" fill="#EA9A7F"/>
<path d="M117.67 169.704C114.984 169.559 112.456 168.777 109.914 167.991C107.814 167.342 105.704 166.689 103.485 166.389C101.098 166.124 99.2422 164.666 100.966 161.749C102.822 160.953 103.485 159.23 104.015 157.374C111.439 161.484 119.394 162.014 127.613 160.158C134.11 158.7 133.447 154.773 130 150C129.267 149.035 128.758 148.148 128.303 147.356C127.197 145.429 126.413 144.064 123.5 143.5C117.402 142.307 106.598 141.133 100.5 141C100.008 139.771 100.528 138.215 101.043 136.674C101.638 134.89 102.227 133.128 101.231 131.918C102.99 132.008 104.748 132.114 106.502 132.219C109.903 132.423 113.285 132.626 116.61 132.714C123.769 132.846 130.53 134.57 136.098 139.475L141.666 144.646C145.511 148.093 150.151 148.889 154.791 146.9C158.371 145.309 159.697 141.597 159.697 137.619V136.956C159.962 136.691 160.227 136.426 160.36 136.161C160.36 136.061 160.358 135.961 160.355 135.861C160.341 135.17 160.327 134.503 161.023 134.04C161.818 143.983 168.049 149.949 175.871 154.722C180.246 157.374 184.886 157.109 189.659 155.12C194.564 153.131 198.276 149.552 201.458 145.574L202.254 144.779H202.121C203.179 144.682 204.958 143.683 206.462 142.837C207.032 142.517 207.563 142.219 208 142C211.539 140.194 214.558 139.916 217.666 139.63C220.263 139.391 222.922 139.147 226 138C226 138.474 227.348 138.644 228.269 138.76C228.893 138.839 229.321 138.893 229 139C224.492 141.121 220.284 143.983 221.742 148.756C222.67 151.805 224.394 154.324 226.648 156.578C231.818 161.616 236.856 166.654 240.038 173.284C243.75 181.238 246.277 190.515 248 199C246.361 199.123 244.379 199.111 242.271 199.097C237.557 199.068 232.209 199.034 228.636 200.5C228.289 196.569 228.573 192.48 228.86 188.337C229.231 182.979 229.608 177.532 228.636 172.223C227.178 173.549 227.045 174.742 226.913 175.935C226.852 176.4 226.795 176.868 226.737 177.337C226.416 179.948 226.088 182.611 225.189 185.083C223.853 188.481 222.737 191.989 221.619 195.503C218.854 204.19 216.079 212.91 209.943 220.085C208.75 221.543 207.689 223.134 206.629 224.858C205.435 226.979 205.17 228.968 208.22 229.896C211.534 230.956 213.523 233.343 214.716 236.525C215.861 239.872 216.304 243.395 216.744 246.899C216.967 248.669 217.188 250.434 217.5 252.169C218.693 258.533 220.151 265.03 222.14 271.261C223.996 277.36 226.133 285.004 226 291.5C224.409 291.036 222.705 290.643 221 290.25C219.295 289.857 217.591 289.464 216 289C215.424 288.832 214.846 288.662 214.265 288.492C206.167 286.119 197.691 283.635 189.526 282.398C181.215 281.166 175.493 282.007 168.292 283.064C166.188 283.373 163.958 283.7 161.5 284C158.21 284.435 154.11 284.856 149.797 285.299C142.291 286.069 134.141 286.905 128.5 288C128.406 286.822 128.219 285.574 128.029 284.306C127.684 282.005 127.329 279.637 127.5 277.5C125.814 273.081 128.34 268.337 130.752 263.808C131.813 261.815 132.852 259.864 133.5 258C134.362 255.415 135.674 252.664 136.987 249.914C138.299 247.164 139.612 244.413 140.473 241.828C140.75 240.999 140.876 239.911 141.007 238.789C141.191 237.219 141.381 235.583 142 234.5C142.651 233.502 142.943 232.568 143.194 231.763C143.711 230.109 144.057 229 147 229C148.723 229 148.765 228.826 148.5 227.5C148.442 226.917 148.782 226.278 149.114 225.655C149.537 224.862 149.946 224.094 149.5 223.5C147.35 220.275 145.401 221.382 143.829 222.276C142.3 223.145 141.127 223.812 140.473 220.085C140.257 218.858 139.966 217.341 139.635 215.612C137.532 204.639 133.793 185.132 137 177C133.995 177 135.678 175.632 137.006 174.552C137.787 173.917 138.445 173.382 137.954 173.284C134.345 174.75 130.055 173.405 125.761 172.058C123.565 171.37 121.369 170.681 119.261 170.367C119.98 170.835 119.923 170.803 119.572 170.604C119.074 170.322 117.981 169.704 117.67 169.704ZM150.947 180.443C151.066 190.736 153.347 200.705 155.643 210.74C155.89 211.821 156.137 212.903 156.382 213.986C157.382 218.711 160.749 220.759 164.134 222.817C165.687 223.762 167.245 224.709 168.579 225.918C168.845 226.183 169.773 226.051 170.303 225.918C171.983 225.443 173.428 224.961 174.767 224.513C178.289 223.337 181.082 222.404 185.5 222.5C186.549 222.526 187.566 222.608 188.536 222.687C192.596 223.018 195.823 223.28 197 219C197.109 218.636 197.215 218.28 197.319 217.931C198.353 214.457 199.193 211.632 201 208.5C207.418 197.145 203.662 188.132 198.621 176.031C198.247 175.133 197.866 174.218 197.481 173.284C196.338 170.459 197.89 167.907 198.918 166.216C199.916 164.575 200.42 163.745 197.481 164.268C188.466 165.859 179.318 167.317 170.435 163.207C166.723 161.484 162.746 161.484 159.166 163.87C156.369 165.711 158.109 167.584 160.413 170.066C162.26 172.054 164.469 174.434 165 177.5C164.934 177.895 161.466 178.428 157.992 178.961C154.472 179.501 150.947 180.043 150.947 180.443ZM177.595 233.873C166.06 233.873 158.784 240.484 156 249.5C155.362 251.669 155.475 253.632 155.586 255.572C155.707 257.664 155.825 259.73 155 262C154.755 262.674 154.51 263.202 154.304 263.646C153.619 265.125 153.369 265.665 155 267.5C155.341 267.879 155.642 268.23 155.917 268.551C157.566 270.472 158.273 271.295 161 270.5C165.851 269.037 170.346 269.17 174.899 269.305C178.184 269.402 181.499 269.5 185 269C187.804 268.575 190.67 269.787 193.518 270.991C195.114 271.666 196.705 272.338 198.276 272.719C200.928 273.382 203.447 273.382 205.435 270.863C207.291 268.609 208.087 266.355 206.894 263.306C204.773 257.87 202.651 252.302 201.06 246.733C199.867 242.623 197.613 239.839 193.901 238.248C188.731 235.994 183.428 233.74 177.595 233.873Z" stroke="#EA9A7F"/>
<path d="M215.909 360.223C211.932 366.454 213.788 373.216 214.053 379.845C214.318 386.209 215.379 392.705 215.909 399.069C218.295 423.729 211.534 446.931 203.977 470C202.121 475.568 200.265 481.137 198.409 486.705C196.155 490.285 194.564 494.13 193.371 498.24C192.841 499.433 192.31 500.626 191.78 501.819C187.935 499.566 186.742 495.19 183.958 492.141C180.379 488.296 178.522 483.788 177.329 478.75C176.269 473.845 176.666 468.807 176.004 463.769C175.473 460.189 174.678 456.477 175.208 452.632C176.269 444.677 176.004 436.722 175.871 428.767C175.738 416.57 175.341 404.372 177.992 392.175C179.451 385.678 179.716 378.784 181.969 372.686C184.091 366.985 185.284 362.477 183.693 355.98C181.704 348.158 179.727 338.69 184.5 331C185.561 329.144 187.405 327.386 187.007 325C195.36 318.901 206.496 314.748 216.704 313.554C223.731 312.626 232.269 311.962 238.5 317C238.765 318.591 239.163 320.542 238.5 322C235.981 326.375 233.652 334.257 231 338.5C225.962 346.853 219.223 351.473 211.004 357.306C208.75 358.897 206.894 360.886 204.507 363.007C209.147 363.537 212.197 360.753 215.909 360.223Z" fill="#B9DDE7"/>
<path d="M237.651 317.001C231.42 311.963 223.864 312.759 216.97 313.687C206.761 315.013 197.614 319.52 189.261 325.619C185.549 326.15 183.295 329.331 179.981 330.657C179.716 329.331 181.572 327.608 180.114 326.68C178.523 325.619 176.402 326.017 174.545 326.415C173.087 326.68 174.545 328.271 174.148 329.199C170.833 328.669 168.314 325.619 164.867 325.619C150.947 320.316 136.761 318.99 122.178 322.702C116.477 323.233 111.572 325.752 107.064 329.199C106.269 323.1 108.258 317.399 109.981 311.698C112.367 304.141 113.826 296.186 118.598 289.557C122.443 288.496 126.288 287.568 130.133 286.508C139.015 284.784 147.898 283.061 156.913 282C167.784 280.674 178.655 280.807 189.394 282.53C198.276 283.856 207.159 284.917 215.776 287.303C218.958 288.231 222.14 289.292 225.322 290.22C227.443 291.678 229.962 292.474 232.348 293.137C235.265 299.368 236.591 306.13 239.375 312.361C240.038 313.952 240.701 315.676 240.701 317.532C239.242 319.255 238.58 317.001 237.651 317.001Z" fill="#9FC0CA"/>
<path d="M54.0338 33.278C56.5528 33.0128 56.4202 30.6263 57.6134 29.1679C59.0717 27.1792 60.3975 23.467 63.3141 25.0579C65.5679 26.3837 64.2422 29.8308 62.9164 32.2173C59.602 37.9183 55.227 42.9564 50.7194 47.5967C45.4164 53.0325 45.0187 59.2638 45.6816 66.1581C46.477 74.6433 48.7308 82.7307 50.0566 91.2159C50.852 96.6517 52.8406 101.822 54.9619 106.993C55.227 107.789 55.7573 108.584 55.7573 109.38C56.4202 115.08 61.0603 117.202 65.3028 118.925C74.0528 122.505 82.6702 126.482 91.8179 129.134C94.4694 129.93 97.121 130.725 99.7725 131.123C99.905 132.846 99.5073 134.04 97.7838 134.968C96.1929 135.763 94.7346 136.956 93.1437 137.752C85.3217 142.26 76.5717 144.248 67.8217 142.923C62.7838 142.127 57.8785 140.138 52.5755 141.066C47.9353 139.475 43.9581 136.426 39.5831 134.437C38.2573 133.907 37.8596 132.581 37.3293 131.388C34.9429 125.024 34.28 118.66 32.9543 112.296C31.2308 103.546 31.2308 94.5304 30.1702 85.6475C29.7725 82.5981 29.2422 79.5488 28.8444 76.4994C28.977 76.4994 29.1096 76.3668 29.1096 76.3668C29.1096 76.2342 28.977 76.1016 28.8444 75.8365C28.8444 75.3062 28.8444 74.9084 28.8444 74.3781C31.4959 72.522 29.7045 68.1516 30.5 65.5C31.428 62.0529 29.4205 59.019 33 56.5C33.6629 56.1023 34.7652 56.4281 34.5 55.5C34.1023 54.3068 33.928 55.5 33 55.5C28.0947 55.2348 28.8258 57.6403 27.5 53C26.8371 50.7461 26.5 48.5 25.5 45.5C25.5 44.9697 25 39.5303 25 39C27.5189 32.6361 27.1209 26.2512 27.9164 19.3569C28.1816 16.7053 27.3861 14.0537 28.7119 11.5347C29.2422 10.6066 29.6399 9.1482 31.2308 9.54594C32.8217 9.8111 32.2914 11.2695 32.2914 12.1976C32.2914 15.9098 32.2914 19.4895 32.6891 23.3344C34.8103 19.6221 35.3406 15.3795 36.5338 11.4021C37.3293 9.01562 37.5944 6.62916 38.2573 4.2427C38.655 2.78431 39.3179 1.06075 41.4391 1.59108C43.1626 1.98882 43.4278 3.57979 43.1626 5.17077C42.6323 9.01562 41.9694 12.993 41.3066 16.8379C41.174 18.1637 40.1134 19.7547 42.4997 20.285C39.8482 22.9366 41.4508 22.9366 44.5 23.3344C45.8258 23.467 46.5417 23.6023 48 24C48.7955 24.2652 47.7045 25.4281 48.5 24.5C49.2955 23.5719 49.0606 25.5606 48 24.5C48.2652 23.8371 51.1172 21.0805 51.3823 20.4176C51.6475 20.1524 51.78 19.8873 52.0452 19.6221C52.0452 19.3569 52.0452 19.2244 52.0452 18.9592C52.3103 18.694 52.4429 18.4289 52.7081 18.1637C54.0338 13.2582 54.0338 8.08755 57.4808 3.97754C58.1437 3.31463 58.4088 2.1214 59.602 2.38656C60.9278 2.65172 60.3975 3.84495 60.6626 4.77302C63.049 12.8605 58.4088 19.6221 55.7573 26.5163C54.8293 28.7702 53.9013 30.7589 54.0338 33.278C53.9013 33.278 53.7687 33.278 53.7687 33.4105C53.7687 33.4105 53.7687 33.5431 53.7687 33.6757C53.7687 33.4105 53.9013 33.278 54.0338 33.278Z" fill="#F4E4BA"/>
<path d="M254.223 202.186C253.295 212.13 251.837 222.073 252.102 232.15C252.235 236.525 252.765 240.9 254.223 245.143C256.079 250.844 256.742 256.81 257.14 262.776C257.803 274.045 257.405 285.315 258.068 296.584C258.731 307.721 259.394 318.725 259.261 329.862C259.261 334.37 262.841 336.358 265.625 338.48C269.735 341.396 270.663 344.844 269.337 349.351C268.144 353.196 265.492 354.124 262.443 351.473C261.913 353.726 261.647 355.98 260.985 358.102C260.587 359.427 260.322 361.018 258.333 361.151C256.344 361.151 256.61 359.427 255.947 358.102C254.753 360.621 254.488 364.068 250.909 363.935C248.39 363.803 249.318 361.416 248.92 359.56C248.39 360.356 247.992 361.151 247.329 361.681C245.075 363.803 242.822 363.272 241.894 360.356C240.833 356.776 241.098 352.931 241.098 349.219C241.098 348.291 241.628 346.567 239.64 347.363C235.397 349.086 235.265 346.435 235.265 343.518C235.265 343.12 235.265 342.855 235.265 342.457C236.458 340.734 237.651 339.01 238.844 337.286C239.11 337.021 239.375 336.756 239.507 336.491C242.954 336.093 243.485 333.442 243.882 330.79C244.678 330.26 244.678 329.332 244.545 328.536C244.28 322.305 244.81 316.339 242.822 310.107C240.568 303.213 240.038 295.921 238.844 288.629C238.579 287.171 238.579 285.712 236.723 285.315C236.458 284.519 236.325 283.856 236.06 283.061C237.784 282.796 237.386 281.337 237.386 280.144C237.386 277.625 236.988 274.973 237.519 272.587C238.844 265.295 236.723 258.931 233.144 252.567C229.962 246.866 229.697 240.635 230.625 234.138C231.685 227.377 234.337 221.278 236.458 214.914C239.375 206.959 246.003 202.186 254.223 202.186ZM249.318 357.306C249.45 357.306 249.583 357.306 249.716 357.439C249.716 353.859 249.716 350.412 249.716 346.832C249.583 346.832 249.45 346.832 249.318 346.832C249.318 350.279 249.318 353.726 249.318 357.306Z" fill="#F4E4BA"/>
<path d="M168.049 490.418C163.143 481.932 159.299 473.049 156.117 463.901C152.272 452.765 148.03 441.628 146.174 429.828C144.981 422.138 144.053 414.449 142.727 406.759C140.871 395.755 141.666 384.485 139.943 373.481C139.412 370.432 136.893 367.913 137.822 364.598C139.943 365.924 141.931 367.382 144.318 368.178C144.715 368.576 145.113 369.106 145.511 369.504C151.079 374.144 157.708 374.277 164.602 374.011C168.712 373.879 172.424 373.216 175.473 370.299C174.545 378.784 174.412 387.27 174.28 395.755C173.882 408.748 172.822 421.608 173.352 434.601C173.352 435.662 173.352 436.722 173.219 437.783C171.761 450.246 170.568 462.708 170.303 475.303C170.17 480.474 169.507 485.512 168.049 490.418Z" fill="#9FC0CA"/>
<path d="M159.432 56.347C160.36 51.0438 165.53 47.0663 171.761 46.9338C181.97 46.8012 190.587 49.718 198.541 57.0099C206.894 64.6996 212.595 73.5826 215.776 84.189C217.765 91.2158 221.477 96.7842 227.576 100.762C230.89 103.016 233.542 105.932 235.928 109.114C241.231 116.141 238.712 123.168 230.492 125.82C225.985 127.278 221.875 129.532 219.621 134.172C219.091 135.365 218.03 136.293 217.235 137.354C212.595 138.812 208.087 138.017 203.712 136.559C202.916 136.426 201.988 136.691 201.458 135.763C201.723 135.365 199.204 128.298 201.458 131.5C203.579 122.484 202.398 116.413 202 107C201.867 104.481 202.5 102.519 202.5 100C202.5 93.2384 200.663 87.8972 198.011 81.931C197.613 81.1355 198.541 80.2116 198.011 80.7419C197.481 81.1397 197.216 81.67 197.348 82.3329C199.602 90.1552 198.807 98.3752 200.132 106.463C200.265 107.523 200.663 110.235 199.337 110.5C197 109.5 197 107.295 197 106.5C196.5 103 195.663 100.182 195 97C192.614 85.7306 188.352 76.4549 180 68.5C177.348 62.799 171.496 60.457 166.326 63.9041C165.663 64.3019 165.132 65.0974 164.072 64.567C161.685 63.1086 161.553 60.0593 163.939 58.6009C164.867 58.0706 165.795 57.5402 166.723 57.0099C170.568 54.2257 177.595 54.0931 181.572 56.8773C182.235 57.4077 182.837 57.6728 183.5 57.0099C183.5 56.5 183.03 56.1629 182.5 55.5C177.86 50.0642 165.663 47.7292 161.42 55.2864C160.757 55.9493 160.227 56.347 159.432 56.347Z" fill="#FEDA7E"/>
<path d="M159.564 137.221C159.564 137.487 159.564 137.619 159.564 137.884C158.238 138.68 157.841 140.138 157.178 141.331C154.791 145.839 149.091 146.767 146.041 142.657C142.594 137.884 137.822 135.63 132.386 134.437C130.397 134.039 128.807 133.376 127.746 131.52C127.348 126.747 129.072 122.903 131.723 118.925C135.303 113.754 137.291 107.656 137.954 101.292C140.473 100.496 140.075 98.3751 140.075 96.519C139.943 89.8899 141.269 83.526 144.318 77.5599C149.091 68.1466 155.322 64.9646 165.265 66.6882C163.409 71.0634 162.348 75.8363 158.769 79.2834C153.333 84.5867 152.14 91.0831 153.333 98.3751C154.526 106.463 158.769 113.092 162.481 119.986C163.409 122.637 163.144 125.289 163.144 127.941C163.674 130.592 161.022 132.183 160.89 134.437C160.094 134.967 160.227 135.763 160.227 136.558C160.094 136.691 159.829 136.956 159.564 137.221Z" fill="#FDD97E"/>
<path d="M182.633 532.843C180.644 539.075 181.307 545.439 181.307 551.67C181.307 554.454 181.307 557.238 181.307 559.89C181.174 562.807 178.523 564.795 175.871 563.47C172.689 561.879 169.242 561.481 165.795 561.746C161.951 562.011 160.492 560.022 159.564 556.84C157.974 550.874 158.636 544.908 159.697 539.075C160.758 532.976 160.227 527.142 159.167 521.309C158.371 517.066 159.299 513.221 161.42 510.039C164.205 505.797 165.928 500.891 168.845 496.781C172.159 501.024 174.811 505.797 177.462 510.437C180.777 516.271 182.235 522.635 181.307 529.396C181.042 530.722 181.572 531.915 182.633 532.843Z" fill="#F4E4BA"/>
<path d="M246.269 198.474C245.863 196.508 245.509 194.526 245.154 192.543C244.002 186.1 242.845 179.631 239.905 173.549C236.723 166.92 231.685 161.882 226.515 156.844C224.261 154.59 222.538 152.071 221.61 149.021C220.151 144.248 220.947 142.26 225.454 140.138C226.25 139.741 226.647 139.475 226.78 138.68V138.017C236.06 139.343 243.485 143.586 248.39 151.673C252.165 157.965 253.701 165.003 255.227 172.001C255.631 173.851 256.034 175.697 256.477 177.526C257.444 181.572 257.945 185.676 258.443 189.761C258.696 191.834 258.949 193.902 259.261 195.955C259.394 196.618 259.394 197.413 259.261 198.076C258.731 202.982 258.598 202.982 254.356 201.523C252.535 198.975 249.826 198.759 247.042 198.538C246.785 198.517 246.527 198.497 246.269 198.474Z" fill="#EFA188"/>
<path d="M246.269 198.474C245.863 196.508 245.509 194.526 245.154 192.543C244.002 186.1 242.845 179.631 239.905 173.549C236.723 166.92 231.685 161.882 226.515 156.844C224.261 154.59 222.538 152.071 221.61 149.021C220.151 144.248 220.947 142.26 225.454 140.138C226.25 139.741 226.647 139.475 226.78 138.68V138.017C236.06 139.343 243.485 143.586 248.39 151.673C252.165 157.965 253.701 165.003 255.227 172.001C255.631 173.851 256.034 175.697 256.477 177.526C257.444 181.572 257.945 185.676 258.443 189.761C258.696 191.834 258.949 193.902 259.261 195.955C259.394 196.618 259.394 197.413 259.261 198.076C258.731 202.982 258.598 202.982 254.356 201.523C252.535 198.975 249.826 198.759 247.042 198.538C246.785 198.517 246.527 198.497 246.269 198.474Z" stroke="#EFA188"/>
<path d="M168.049 490.417C169.375 485.512 170.17 480.474 170.303 475.436C170.568 462.841 171.761 450.378 173.219 437.915C173.352 436.855 173.352 435.794 173.352 434.733C172.822 421.74 173.882 408.88 174.28 395.887C174.545 387.402 174.678 378.917 175.473 370.432C177.992 366.322 175.871 362.079 176.136 357.836C176.401 351.738 174.545 346.037 172.689 340.336C170.966 334.9 167.254 330.657 164.602 325.619C168.182 325.619 170.568 328.669 173.882 329.199C174.943 333.839 175.871 338.347 176.932 343.12C177.86 339.01 178.788 334.767 179.716 330.657C183.03 329.331 185.284 326.149 188.996 325.619C189.394 328.006 188.068 329.862 187.007 331.718C182.235 339.408 181.704 348.291 183.693 356.113C185.284 362.609 184.091 367.117 181.969 372.818C179.716 378.917 179.451 385.811 177.992 392.307C175.341 404.372 175.738 416.57 175.871 428.9C175.871 436.855 176.269 444.81 175.208 452.764C174.678 456.477 175.473 460.189 176.004 463.901C176.666 468.939 176.269 473.977 177.329 478.883C178.39 483.921 180.379 488.429 183.958 492.274C186.742 495.323 187.935 499.698 191.78 501.952C191.648 502.217 191.382 502.482 191.25 502.748C190.057 502.748 189.394 501.819 188.466 501.157C184.621 498.505 181.307 495.19 177.064 493.202C172.822 491.08 172.822 491.08 171.496 495.588C170.701 495.588 170.038 495.456 169.242 495.456C165.928 494.66 168.314 492.141 168.049 490.417Z" fill="#ABCDD7"/>
<path d="M130.795 286.5C128.873 287.03 126.718 287.563 124.564 288.095C122.41 288.627 120.255 289.159 118.333 289.69C119.659 283.591 121.117 277.625 124.166 272.189C128.939 263.571 133.181 254.688 136.496 245.408C137.556 242.491 137.689 239.574 137.822 236.525C138.352 223.267 137.822 210.141 136.363 197.015C135.7 191.182 134.375 185.216 131.591 179.913C129.337 175.802 125.625 172.753 120.719 171.825C120.225 171.726 119.878 171.332 119.513 170.918C119.389 170.777 119.263 170.634 119.128 170.499C122.244 170.963 125.36 171.46 128.475 171.958C131.591 172.455 134.706 172.952 137.822 173.416C139.147 173.681 139.413 174.609 138.882 175.935C135.974 183.309 137.622 190.602 139.238 197.75C139.684 199.726 140.129 201.692 140.473 203.645C141.565 209.869 145.266 215.194 148.907 220.435C149.687 221.557 150.464 222.675 151.212 223.797C152.007 224.858 152.803 225.918 153.068 227.244C153.2 228.57 153.068 229.63 151.344 229.63C147.009 229.63 144.887 232.885 142.914 235.911L142.86 235.994C141.666 237.718 141.003 239.839 140.341 241.96C138.617 247.131 136.761 252.302 134.905 257.472C132.784 263.571 131.325 270.068 130.795 276.564C130.397 279.879 130.53 283.053 130.795 286.5Z" fill="#D89179"/>
<path d="M130.795 286.5C128.873 287.03 126.718 287.563 124.564 288.095C122.41 288.627 120.255 289.159 118.333 289.69C119.659 283.591 121.117 277.625 124.166 272.189C128.939 263.571 133.181 254.688 136.496 245.408C137.556 242.491 137.689 239.574 137.822 236.525C138.352 223.267 137.822 210.141 136.363 197.015C135.7 191.182 134.375 185.216 131.591 179.913C129.337 175.802 125.625 172.753 120.719 171.825C120.225 171.726 119.878 171.332 119.513 170.918C119.389 170.777 119.263 170.634 119.128 170.499C122.244 170.963 125.36 171.46 128.475 171.958C131.591 172.455 134.706 172.952 137.822 173.416C139.147 173.681 139.413 174.609 138.882 175.935C135.974 183.309 137.622 190.602 139.238 197.75C139.684 199.726 140.129 201.692 140.473 203.645C141.565 209.869 145.266 215.194 148.907 220.435C149.687 221.557 150.464 222.675 151.212 223.797C152.007 224.858 152.803 225.918 153.068 227.244C153.2 228.57 153.068 229.63 151.344 229.63C147.009 229.63 144.887 232.885 142.914 235.911L142.86 235.994C141.666 237.718 141.003 239.839 140.341 241.96C138.617 247.131 136.761 252.302 134.905 257.472C132.784 263.571 131.325 270.068 130.795 276.564C130.397 279.879 130.53 283.053 130.795 286.5Z" stroke="#D89179"/>
<path d="M52.4429 140.801C57.7459 139.873 62.6512 141.729 67.6891 142.657C76.4391 144.116 85.0565 142.127 93.0111 137.486C94.602 136.558 95.9277 135.498 97.6512 134.702C99.3747 133.907 99.7724 132.581 99.6398 130.857C100.038 130.99 100.435 131.123 100.966 131.388C101.098 131.653 101.098 131.918 101.231 132.183C102.954 134.437 104.28 136.824 105.473 139.475C106.401 145.574 107.064 151.673 104.147 157.506C103.617 159.362 102.954 160.953 101.098 161.881C95.1323 161.086 89.6967 158.434 84.2611 156.048C74.583 151.805 64.905 147.297 55.227 142.79C54.0338 142.259 52.9732 141.862 52.4429 140.801Z" fill="#ECDBB0"/>
<path d="M246.269 198.474C249.185 198.739 252.235 198.739 254.223 201.523C254.223 201.788 254.223 201.921 254.223 202.186C245.871 202.186 239.242 206.959 236.591 214.914C234.469 221.278 231.818 227.377 230.757 234.138C229.829 240.635 230.094 246.999 233.276 252.567C236.856 258.931 238.977 265.295 237.651 272.587C237.253 274.973 237.651 277.625 237.519 280.144C237.519 281.204 237.916 282.663 236.193 283.061C236.325 280.276 235.265 277.89 234.337 275.371C229.034 260.654 225.719 245.54 225.852 229.763C225.985 220.748 227.045 211.865 227.31 202.849C228.238 201.921 229.299 200.86 230.227 199.932C235.53 197.944 240.966 198.872 246.269 198.474Z" fill="#ECDBB0"/>
<path d="M165 67C155.057 65.2764 149.773 68.2193 145 77.5C141.951 83.4662 139.943 89.6248 140.076 96.2538C140.076 98.11 140.519 101.205 138 102C138 92.9845 136.496 82.9957 139.28 74.1128C141.799 66.0253 145.909 59.5288 153.864 55.8166C156.118 54.7559 157.708 55.1537 159.432 56.2143C160.227 56.2143 160.758 55.8166 161.155 55.1537C165.398 47.5965 177.993 49.7178 182.5 55.1537C183.03 55.8166 184.928 56.3469 184 57.4076C183.337 58.203 181.97 57.275 181.307 56.7446C177.462 53.9604 170.845 54.6233 167 57.4076C166.072 58.0705 164.735 58.4697 163.807 59C161.421 60.4584 162 62 163.807 64.4344C164.735 64.9647 165.265 64.3018 166.061 63.7714C171.364 60.3243 177.849 62.299 180.5 68C175.728 68.2652 169.773 68.3258 165 67Z" fill="#F7D67F"/>
<path d="M197.879 499.698C200.398 503.808 202.651 508.183 204.375 512.824C206.363 518.392 210.606 521.972 215.644 524.889C220.284 527.54 220.947 531.915 217.5 535.893C216.439 535.893 215.644 533.241 214.451 535.628C212.727 539.34 211.004 537.749 209.148 535.893C208.22 534.965 207.159 534.169 206.098 533.374C198.674 528.203 192.045 522.37 191.25 512.426C191.117 510.835 191.117 509.111 190.057 507.653C190.057 507.123 190.189 506.592 190.72 506.195C194.166 505.267 195.36 501.687 197.879 499.698Z" fill="#F4E4BA"/>
<path d="M189.924 507.653C190.985 508.979 190.985 510.835 191.117 512.426C191.913 522.37 198.541 528.203 205.966 533.374C207.026 534.169 208.087 534.965 209.015 535.893C210.871 537.749 212.727 539.34 214.318 535.628C215.379 533.241 216.307 535.893 217.367 535.893C216.041 539.207 213.257 540.401 210.208 540.135C204.905 539.605 200.132 537.749 196.951 532.976C194.299 528.866 190.985 525.286 187.935 521.441C187.273 520.646 186.61 519.32 185.416 519.85C184.356 520.248 185.019 521.574 184.754 522.37C183.693 525.817 182.102 529.264 182.5 532.976C181.439 532.048 180.909 530.855 181.174 529.396C182.235 522.635 180.644 516.271 177.329 510.437C174.678 505.797 172.026 501.024 168.712 496.781C168.977 496.251 169.242 495.853 169.375 495.323C170.17 495.323 170.833 495.456 171.629 495.456C177.727 498.903 184.223 502.085 187.803 508.714C189.129 510.702 189.261 507.918 189.924 507.653Z" fill="#ECDBB0"/>
<path d="M144.451 368.31C142.064 367.515 140.076 366.056 137.954 364.731C130.398 357.173 120.322 352.401 113.295 344.048C109.716 339.805 107.329 334.9 106.932 329.199C111.439 325.884 116.345 323.365 122.045 322.702C118.731 325.619 117.803 328.801 119.791 333.176C124.166 342.855 130.132 351.472 137.424 359.295C139.943 362.212 142.727 364.731 144.451 368.31Z" fill="#ABCDD7"/>
<path d="M239.11 337.154C237.916 338.877 236.723 340.601 235.53 342.324C230.227 349.616 222.803 354.655 215.909 360.223C212.329 360.753 209.147 363.405 204.772 363.007C207.159 360.886 209.147 359.03 211.269 357.306C219.488 351.34 224.129 342.722 229.166 334.502C231.818 330.26 234.072 325.752 236.591 321.377C237.386 320.051 237.916 318.592 237.651 316.869C238.712 316.869 239.242 319.123 240.568 317.532C242.159 321.642 242.424 325.884 241.098 330.127C240.435 332.116 239.64 334.237 239.772 336.358C239.507 336.756 239.375 337.021 239.11 337.154Z" fill="#ABCDD7"/>
<path d="M101.098 132.183C101.032 132.051 100.999 131.918 100.966 131.786C100.932 131.653 100.899 131.52 100.833 131.388C105.653 129.594 110.662 129.886 115.701 130.179C116.622 130.233 117.544 130.286 118.466 130.327C120.676 130.423 122.887 130.728 125.148 131.041C126.006 131.159 126.871 131.278 127.746 131.388C128.674 133.244 130.397 133.907 132.386 134.305C137.822 135.498 142.594 137.752 146.041 142.525C149.091 146.635 154.791 145.707 157.178 141.199C157.336 140.913 157.48 140.612 157.625 140.309C158.084 139.345 158.556 138.357 159.564 137.752C159.564 141.729 158.371 145.441 154.659 147.032C150.151 149.021 145.511 148.226 141.534 144.778L135.966 139.608C130.397 134.57 123.503 132.979 116.477 132.846C112.636 132.846 108.868 132.627 105.064 132.405C103.748 132.328 102.427 132.251 101.098 132.183Z" fill="#D89179"/>
<path d="M101.098 132.183C101.032 132.051 100.999 131.918 100.966 131.786C100.932 131.653 100.899 131.52 100.833 131.388C105.653 129.594 110.662 129.886 115.701 130.179C116.622 130.233 117.544 130.286 118.466 130.327C120.676 130.423 122.887 130.728 125.148 131.041C126.006 131.159 126.871 131.278 127.746 131.388C128.674 133.244 130.397 133.907 132.386 134.305C137.822 135.498 142.594 137.752 146.041 142.525C149.091 146.635 154.791 145.707 157.178 141.199C157.336 140.913 157.48 140.612 157.625 140.309C158.084 139.345 158.556 138.357 159.564 137.752C159.564 141.729 158.371 145.441 154.659 147.032C150.151 149.021 145.511 148.226 141.534 144.778L135.966 139.608C130.397 134.57 123.503 132.979 116.477 132.846C112.636 132.846 108.868 132.627 105.064 132.405C103.748 132.328 102.427 132.251 101.098 132.183Z" stroke="#D89179"/>
<path d="M25.1324 41.2327C28.0491 42.8236 26.3256 45.7404 26.9885 47.9943C28.3142 52.5021 29.5074 53.9605 34.4127 54.3582C35.3407 54.3582 36.5339 53.8279 36.9317 55.0211C37.1968 55.9492 36.2688 56.6121 35.6059 57.0098C32.0264 59.3963 32.4241 63.3737 31.3635 66.9534C30.568 69.605 31.2309 72.6544 28.5794 74.6431C27.2536 65.3624 27.9165 55.9492 24.9998 46.8011C24.7347 44.9449 25.1324 42.9562 25.1324 41.2327Z" fill="#ECDBB0"/>
<path d="M226.78 138.017V138.68C223.99 139.719 221.11 140.488 218.232 141.256C214.136 142.349 210.046 143.44 206.231 145.309C205.276 145.786 204.465 145.548 203.653 145.309C203.113 145.15 202.572 144.991 201.988 145.044C202.044 143.826 202.445 142.678 202.847 141.532C203.407 139.932 203.965 138.335 203.579 136.559C208.087 138.017 212.462 138.812 217.102 137.354C220.416 137.487 223.598 137.752 226.78 138.017Z" fill="#D89179"/>
<path d="M226.78 138.017V138.68C223.99 139.719 221.11 140.488 218.232 141.256C214.136 142.349 210.046 143.44 206.231 145.309C205.276 145.786 204.465 145.548 203.653 145.309C203.113 145.15 202.572 144.991 201.988 145.044C202.044 143.826 202.445 142.678 202.847 141.532C203.407 139.932 203.965 138.335 203.579 136.559C208.087 138.017 212.462 138.812 217.102 137.354C220.416 137.487 223.598 137.752 226.78 138.017Z" stroke="#D89179"/>
<path d="M48.996 0C52.0453 0 54.4316 3.31453 52.8407 7.0268C50.8521 12.1975 50.4544 17.7659 48.996 23.0691C47.8028 22.6714 46.6097 22.141 45.2839 21.7433C44.621 21.4781 43.8256 21.213 44.3559 20.2849C46.0794 17.5007 45.6816 14.3188 46.3445 11.402C47.2725 7.55712 48.996 3.97743 48.996 0Z" fill="#F4E4BA"/>
<path d="M48.9962 0C48.9962 3.97743 47.2727 7.55712 46.3447 11.402C45.6818 14.3188 46.0795 17.6333 44.356 20.2849C43.8257 21.213 44.6212 21.4781 45.2841 21.7433C46.4773 22.141 47.6704 22.6714 48.9962 23.0691C49.5265 22.8039 49.9242 22.5388 50.4545 22.2736C51.5151 23.2017 51.5151 24.3949 50.7197 25.4556C49.9242 26.3836 48.9962 25.4556 48.0682 25.1904C46.7424 24.7927 45.4167 24.1298 43.9583 23.8646C41.0417 23.4669 39.7159 22.6714 42.3674 20.0197C43.2954 15.3794 45.8144 11.2694 45.8144 6.36389C45.8144 4.11001 46.7424 1.59097 48.9962 0Z" fill="#ECDBB0"/>
<path d="M193.636 498.24C194.829 494.13 196.288 490.285 198.674 486.705C199.47 487.501 201.856 487.633 199.867 489.622C198.939 490.55 199.47 492.141 199.47 493.467C199.47 494.793 199.47 496.119 198.011 496.782C196.42 497.312 194.962 497.842 193.636 498.24Z" fill="#9FC0CA"/>
<path d="M193.636 498.24C195.095 497.709 196.42 497.312 197.879 496.781C197.879 497.709 197.879 498.637 198.011 499.565C195.36 501.554 194.299 505.134 190.72 506.062C190.985 504.869 191.25 503.675 191.515 502.482C191.648 502.217 191.913 501.952 192.045 501.687C192.576 500.626 193.106 499.433 193.636 498.24Z" fill="#ECDBB0"/>
<path d="M27.9166 19.3569C27.1211 26.1186 27.9166 33.1454 25.1325 39.6418C24.6022 33.4105 26.1931 27.4444 26.5908 21.3457C26.7234 20.5502 27.2537 19.8873 27.9166 19.3569Z" fill="#ECDBB0"/>
<path d="M117.67 169.704C118.333 169.704 118.864 169.836 119.129 170.499C118.466 170.367 117.936 170.234 117.67 169.704Z" fill="#D89179"/>
<path d="M52.5755 18.031C52.3103 18.2962 52.1777 18.5613 51.9126 18.8265C52.1777 18.5613 52.3103 18.2962 52.5755 18.031Z" fill="#ECDBB0"/>
<path d="M28.7119 75.8364C28.8445 75.969 28.9771 76.1016 28.9771 76.3667C28.9771 76.3667 28.8445 76.4993 28.7119 76.4993C28.7119 76.2342 28.7119 76.1016 28.7119 75.8364Z" fill="#ECDBB0"/>
<path d="M51.7801 19.3569C51.5149 19.6221 51.3823 19.8873 51.1172 20.1524C51.3823 19.8873 51.6475 19.6221 51.7801 19.3569Z" fill="#ECDBB0"/>
<path d="M150.947 180.443C150.947 180.183 150.961 179.908 150.975 179.628C151.005 179.054 151.036 178.459 150.947 177.924C149.754 171.03 153.996 167.185 159.034 163.87C162.613 161.484 166.723 161.484 170.303 163.207C179.318 167.317 188.333 165.859 197.348 164.268C203.314 163.207 205.568 164.533 207.822 170.102C213.39 183.758 210.738 196.353 203.844 208.55C201.856 212.13 200.132 215.842 198.939 219.687C197.481 224.99 193.901 226.449 188.466 226.316C186.433 226.272 184.4 226.021 182.367 225.771C178.302 225.27 174.236 224.769 170.17 225.918C169.64 226.051 168.712 226.183 168.447 225.918C167.126 224.683 165.56 223.735 163.989 222.785C160.669 220.776 157.33 218.756 156.25 213.986C155.915 212.425 155.573 210.869 155.231 209.316C153.135 199.788 151.061 190.361 150.947 180.443Z" fill="#EFA188"/>
<path d="M150.947 180.443C150.947 180.183 150.961 179.908 150.975 179.628C151.005 179.054 151.036 178.459 150.947 177.924C149.754 171.03 153.996 167.185 159.034 163.87C162.613 161.484 166.723 161.484 170.303 163.207C179.318 167.317 188.333 165.859 197.348 164.268C203.314 163.207 205.568 164.533 207.822 170.102C213.39 183.758 210.738 196.353 203.844 208.55C201.856 212.13 200.132 215.842 198.939 219.687C197.481 224.99 193.901 226.449 188.466 226.316C186.433 226.272 184.4 226.021 182.367 225.771C178.302 225.27 174.236 224.769 170.17 225.918C169.64 226.051 168.712 226.183 168.447 225.918C167.126 224.683 165.56 223.735 163.989 222.785C160.669 220.776 157.33 218.756 156.25 213.986C155.915 212.425 155.573 210.869 155.231 209.316C153.135 199.788 151.061 190.361 150.947 180.443Z" stroke="#EFA188"/>
<path d="M177.595 233.873C183.428 233.74 188.731 235.994 194.034 238.248C197.746 239.839 200 242.623 201.193 246.733C202.784 252.434 204.773 257.87 207.026 263.306C208.22 266.355 207.424 268.477 205.568 270.863C203.579 273.382 201.061 273.382 198.409 272.719C197.821 272.577 197.236 272.429 196.651 272.282C192.889 271.336 189.186 270.404 185.284 270.863C181.941 271.341 178.556 271.436 175.162 271.532C170.076 271.675 164.971 271.818 159.962 273.25C156.78 274.178 153.201 272.719 150.814 270.068C148.693 267.681 149.223 264.764 150.284 261.848L150.284 261.848C151.875 257.472 153.466 253.097 154.792 248.59C157.443 239.574 166.06 234.006 177.595 233.873Z" fill="#EFA188"/>
<path d="M177.595 233.873C183.428 233.74 188.731 235.994 194.034 238.248C197.746 239.839 200 242.623 201.193 246.733C202.784 252.434 204.773 257.87 207.026 263.306C208.22 266.355 207.424 268.477 205.568 270.863C203.579 273.382 201.061 273.382 198.409 272.719C197.821 272.577 197.236 272.429 196.651 272.282C192.889 271.336 189.186 270.404 185.284 270.863C181.941 271.341 178.556 271.436 175.162 271.532C170.076 271.675 164.971 271.818 159.962 273.25C156.78 274.178 153.201 272.719 150.814 270.068C148.693 267.681 149.223 264.764 150.284 261.848L150.284 261.848C151.875 257.472 153.466 253.097 154.792 248.59C157.443 239.574 166.06 234.006 177.595 233.873Z" stroke="#EFA188"/>
<path d="M203.712 136.558C204.375 139.608 202.254 142.127 202.121 145.044H202.254C201.988 145.309 201.723 145.574 201.458 145.839C198.144 149.817 194.564 153.396 189.659 155.385C184.886 157.241 180.246 157.506 175.871 154.987C168.049 150.347 161.818 144.248 161.022 134.305C161.288 131.918 163.807 130.327 163.276 127.808C168.314 130.195 173.087 133.642 178.788 134.172C185.682 134.835 192.575 134.702 199.337 134.967C200 135.233 200.795 135.498 201.458 135.763C201.988 136.558 202.916 136.426 203.712 136.558Z" fill="#F4E4BA"/>
<path d="M230.36 200.065L227.443 202.982C225.99 202.878 226 201.88 226.009 200.943C226.011 200.683 226.014 200.428 225.985 200.197C225.944 199.669 225.953 199.14 225.963 198.603C225.984 197.391 226.006 196.14 225.455 194.762C223.881 196.223 223.546 197.875 223.238 199.394C223.183 199.667 223.129 199.935 223.068 200.197C222.739 201.7 222.444 203.22 222.146 204.751C221.604 207.54 221.055 210.365 220.284 213.19C215.909 229.233 216.705 245.142 222.008 260.92C222.7 263.055 223.468 265.165 224.235 267.272C225.229 270.006 226.222 272.733 227.045 275.504C228.901 281.337 230.492 287.303 232.083 293.269C229.564 292.606 227.178 291.811 225.057 290.353C225.189 283.856 223.598 277.625 221.742 271.526C219.886 265.162 218.428 258.798 217.102 252.434C216.791 250.699 216.569 248.934 216.346 247.164C215.906 243.66 215.463 240.137 214.318 236.79C213.125 233.608 211.269 231.089 207.822 230.161C204.773 229.233 205.038 227.244 206.231 225.123C207.159 223.399 208.22 221.808 209.545 220.35C215.686 213.075 218.461 204.387 221.227 195.725C222.343 192.23 223.458 188.74 224.792 185.348C225.682 183.012 226.012 180.302 226.33 177.689C226.391 177.188 226.451 176.691 226.515 176.2C226.648 175.007 227.042 173.326 228.5 172C229.748 177.908 229.849 183.905 229.947 189.78C230.006 193.265 230.064 196.708 230.36 200.065Z" fill="#D89179"/>
<path d="M230.36 200.065L227.443 202.982C225.99 202.878 226 201.88 226.009 200.943C226.011 200.683 226.014 200.428 225.985 200.197C225.944 199.669 225.953 199.14 225.963 198.603C225.984 197.391 226.006 196.14 225.455 194.762C223.881 196.223 223.546 197.875 223.238 199.394C223.183 199.667 223.129 199.935 223.068 200.197C222.739 201.7 222.444 203.22 222.146 204.751C221.604 207.54 221.055 210.365 220.284 213.19C215.909 229.233 216.705 245.142 222.008 260.92C222.7 263.055 223.468 265.165 224.235 267.272C225.229 270.006 226.222 272.733 227.045 275.504C228.901 281.337 230.492 287.303 232.083 293.269C229.564 292.606 227.178 291.811 225.057 290.353C225.189 283.856 223.598 277.625 221.742 271.526C219.886 265.162 218.428 258.798 217.102 252.434C216.791 250.699 216.569 248.934 216.346 247.164C215.906 243.66 215.463 240.137 214.318 236.79C213.125 233.608 211.269 231.089 207.822 230.161C204.773 229.233 205.038 227.244 206.231 225.123C207.159 223.399 208.22 221.808 209.545 220.35C215.686 213.075 218.461 204.387 221.227 195.725C222.343 192.23 223.458 188.74 224.792 185.348C225.682 183.012 226.012 180.302 226.33 177.689C226.391 177.188 226.451 176.691 226.515 176.2C226.648 175.007 227.042 173.326 228.5 172C229.748 177.908 229.849 183.905 229.947 189.78C230.006 193.265 230.064 196.708 230.36 200.065Z" stroke="#D89179"/>
<path d="M104.015 157.506C106.932 151.673 106.269 145.574 105.341 139.475C107.17 139.515 109 139.483 110.83 139.451C115.098 139.377 119.367 139.303 123.636 140.138C127.746 140.934 131.591 142.392 134.11 145.839C137.689 150.479 133.977 158.965 127.481 160.423C119.261 162.147 111.439 161.616 104.015 157.506Z" fill="#EFA188"/>
<path d="M104.015 157.506C106.932 151.673 106.269 145.574 105.341 139.475C107.17 139.515 109 139.483 110.83 139.451C115.098 139.377 119.367 139.303 123.636 140.138C127.746 140.934 131.591 142.392 134.11 145.839C137.689 150.479 133.977 158.965 127.481 160.423C119.261 162.147 111.439 161.616 104.015 157.506Z" stroke="#EFA188"/>
<path d="M201.458 145.839C201.723 145.574 201.988 145.309 202.253 145.044C201.988 145.309 201.723 145.574 201.458 145.839Z" fill="#D89179"/>
<path d="M159.564 137.221C159.83 136.956 160.095 136.691 160.227 136.426C160.095 136.691 159.83 136.956 159.564 137.221Z" fill="#D89179"/>
<path d="M144.451 368.31C142.86 364.731 139.943 362.212 137.291 359.427C130.132 351.605 121.508 343.311 117 333.5C115.011 329.125 118.598 325.752 121.913 322.835C136.496 318.99 151.58 318.064 165.5 323.5C168.152 328.406 170.966 335.032 172.689 340.468C174.545 346.169 176.401 351.87 176.136 357.969C175.871 362.212 177.992 366.454 175.473 370.564C172.424 373.481 168.712 374.144 164.602 374.276C157.841 374.409 151.212 374.409 145.511 369.769C145.113 369.106 144.848 368.708 144.451 368.31Z" fill="#B9DDE7"/>
<path d="M54.0337 33.2779C53.9011 33.4105 53.7686 33.5431 53.7686 33.5431C53.7686 33.4105 53.7686 33.4105 53.7686 33.2779C53.7686 33.2779 53.9011 33.2779 54.0337 33.2779C54.0337 33.2779 54.0337 33.1453 54.0337 33.2779Z" fill="#FEFEFE"/>
<path d="M244.147 330.657C242.159 325.752 242.822 320.449 242.291 315.411C241.363 306.66 238.447 298.44 237.386 289.822C237.253 288.231 236.988 286.773 236.988 285.182C238.844 285.58 238.844 287.038 239.11 288.497C240.303 295.656 240.833 303.081 243.087 309.975C245.075 316.206 244.545 322.305 244.81 328.404C244.943 329.199 244.943 330.127 244.147 330.657Z" fill="#ECDBB0"/>
<path d="M239.11 337.154C239.375 336.888 239.64 336.623 239.773 336.358C239.508 336.756 239.375 337.021 239.11 337.154Z" fill="#FDFDFC"/>
<path d="M165.265 66.4231C170.038 67.7489 174.81 68.0141 179.716 67.8815C188.068 75.9689 193.238 85.6474 195.492 96.9167C196.155 100.231 197.216 103.413 197.216 106.728C197.216 107.523 197.216 109.512 198.939 109.247C200.265 108.982 200 107.523 199.867 106.463C198.541 98.5077 199.337 90.2877 197.083 82.3328C196.951 81.6699 197.216 81.1396 197.746 80.7419C198.144 82.2003 198.541 83.7912 198.939 85.2496C200.928 93.4696 204.958 102.015 203.5 110.5C202.572 115.671 198.254 122.505 196 127.013C193.481 127.145 190.019 130.867 187.5 131C180.341 131.265 174.231 129.243 168 125C166.277 123.807 164.867 119.721 162.481 119.853C158.769 112.959 154.526 106.33 153.333 98.2426C152.272 90.9506 153.466 84.4541 158.769 79.1509C162.481 75.5712 163.541 70.7983 165.265 66.4231Z" fill="#F4E4BA"/>
<path d="M194.962 124.229C197.348 119.721 199.867 115.478 200.795 110.175C202.386 101.69 201.06 93.4697 198.939 85.3823C198.541 83.9239 198.143 82.3329 197.746 80.8745C198.276 80.3442 198.806 80.2116 199.072 81.0071C201.856 86.9732 204.375 92.9394 204.242 99.8336C204.242 102.22 205.435 104.739 205.435 107.258C205.833 116.539 204.242 125.687 202.121 134.835C201.988 135.233 201.59 135.63 201.193 135.896C200.53 135.63 199.734 135.365 199.072 135.1C196.287 132.051 194.299 128.604 194.962 124.229Z" fill="#F7D67F"/>
<path d="M194.962 124.228C194.299 128.736 196.288 132.051 199.337 135.1C192.443 134.835 185.549 134.968 178.788 134.305C173.087 133.774 168.314 130.327 163.276 127.941C163.144 125.289 163.541 122.505 162.613 119.986C165 119.986 166.591 121.577 168.314 122.637C174.545 126.88 181.439 127.41 188.598 127.145C190.985 127.013 192.443 124.361 194.962 124.228Z" fill="#ECDBB0"/>
<path d="M191.382 502.615C191.117 503.808 190.852 505.001 190.587 506.195C190.056 506.46 189.924 506.99 189.924 507.653C189.261 507.918 189.128 510.702 188.068 508.714C184.356 502.085 177.992 498.903 171.894 495.456C173.219 490.948 173.219 490.948 177.462 493.069C181.704 495.058 185.019 498.505 188.863 501.024C189.659 501.687 190.189 502.615 191.382 502.615Z" fill="#B9DDE7"/>
<defs>
<filter id="filter0_f" x="66" y="312" width="237" height="77" filterUnits="userSpaceOnUse" color-interpolation-filters="sRGB">
<feFlood flood-opacity="0" result="BackgroundImageFix"/>
<feBlend mode="normal" in="SourceGraphic" in2="BackgroundImageFix" result="shape"/>
<feGaussianBlur stdDeviation="9.5" result="effect1_foregroundBlur"/>
</filter>
<linearGradient id="paint0_linear" x1="179" y1="338" x2="179" y2="980" gradientUnits="userSpaceOnUse">
<stop stop-color="#E9FF70"/>
<stop offset="1" stop-color="#6ECE89"/>
</linearGradient>
</defs>
</svg>
