<svg width="34" height="34" viewBox="0 0 34 34" fill="none" xmlns="http://www.w3.org/2000/svg">
<path d="M6.84554 14.9367C7.52098 11.7898 9.68393 9.16992 12.5906 7.83398C12.8638 8.19766 14.7156 10.7137 16.4384 13.6973C11.5813 14.959 7.30848 14.9441 6.84554 14.9367ZM23.8759 9.42969C21.3259 7.21797 17.8576 6.3793 14.5714 7.15859C14.8598 7.53711 16.742 10.0457 18.442 13.0961C22.1304 11.7379 23.6862 9.68945 23.8759 9.42969ZM10.6326 25.0156C13.7063 27.3609 17.7134 27.7395 21.0527 26.3516C20.9009 25.4609 20.2938 22.3586 18.8366 18.6625C14.6549 20.0578 11.7179 22.8484 10.6326 25.0156ZM18.1308 16.9852C17.8728 16.4062 17.5844 15.8348 17.2884 15.2633C12.1125 16.7773 7.08839 16.718 6.63304 16.7031C6.63304 16.807 6.62545 16.9109 6.62545 17.0148C6.62545 19.6199 7.63482 21.9949 9.28929 23.7984C10.9741 20.9855 14.3817 18.0168 18.1308 16.9852ZM20.7795 18.1949C22.1379 21.8391 22.6844 24.8078 22.7906 25.4238C25.1205 23.8875 26.775 21.4457 27.2379 18.6254C26.8888 18.5141 24.0277 17.6828 20.7795 18.1949ZM19.2388 14.6027C19.6031 15.3301 19.8687 15.9238 20.1496 16.5918C23.6027 16.1687 27.033 16.8441 27.3746 16.9184C27.3518 14.5211 26.479 12.3242 25.0295 10.6023C24.8094 10.8918 23.0714 13.0664 19.2388 14.6027ZM34 3.9375V30.0625C34 32.0293 32.3683 33.625 30.3571 33.625H3.64286C1.6317 33.625 0 32.0293 0 30.0625V3.9375C0 1.9707 1.6317 0.375 3.64286 0.375H30.3571C32.3683 0.375 34 1.9707 34 3.9375ZM29.1429 17C29.1429 10.4539 23.6938 5.125 17 5.125C10.3063 5.125 4.85714 10.4539 4.85714 17C4.85714 23.5461 10.3063 28.875 17 28.875C23.6938 28.875 29.1429 23.5461 29.1429 17Z" fill="#343534"/>
</svg>
