<svg width="34" height="35" viewBox="0 0 34 35" fill="none" xmlns="http://www.w3.org/2000/svg">
<path fill-rule="evenodd" clip-rule="evenodd" d="M31.5302 0.453125H2.41782C1.08385 0.453125 0 1.54999 0 2.89648V31.899C0 33.2455 1.08385 34.3424 2.41782 34.3424H31.5302C32.8641 34.3424 33.9556 33.2455 33.9556 31.899V2.89648C33.9556 1.54999 32.8641 0.453125 31.5302 0.453125ZM10.4343 17.3602C10.4343 13.7639 13.3401 10.863 16.9427 10.863C20.5453 10.863 23.4512 13.7639 23.4512 17.3602C23.4512 20.9566 20.5453 23.8574 16.9427 23.8574C13.3401 23.8574 10.4343 20.9566 10.4343 17.3602ZM12.7114 17.3602C12.7114 19.6899 14.6146 21.5842 16.9427 21.5842C19.2708 21.5842 21.1741 19.6899 21.1741 17.3602C21.1741 15.0305 19.2765 13.1362 16.9427 13.1362C14.609 13.1362 12.7114 15.0305 12.7114 17.3602ZM23.7174 12.1127C24.5557 12.1127 25.2355 11.4398 25.2355 10.5973C25.2355 9.76037 24.5557 9.08182 23.7174 9.08182C22.8791 9.08182 22.1993 9.76037 22.1993 10.5973C22.1993 11.4341 22.8734 12.1127 23.7174 12.1127ZM27.4956 6.82561C28.9853 8.30713 29.4498 10.1053 29.5461 12.1353C29.6651 14.2275 29.6651 20.4929 29.5461 22.5851C29.4442 24.6151 28.9797 26.4133 27.4956 27.8948C26.0115 29.382 24.2102 29.8457 22.1767 29.9418C20.0808 30.0605 13.799 30.0605 11.7031 29.9418C9.66957 29.84 7.87395 29.3763 6.3842 27.8948C4.89445 26.4133 4.42996 24.6151 4.33367 22.5851C4.21471 20.4929 4.21471 14.2219 4.33367 12.1297C4.43563 10.0997 4.89445 8.30148 6.3842 6.81996C7.87395 5.33844 9.67524 4.87476 11.7031 4.77863C13.799 4.65989 20.0808 4.65989 22.1767 4.77863C24.2102 4.88042 26.0115 5.3441 27.4956 6.82561ZM24.4255 27.2389C25.5414 26.7922 26.3967 25.9383 26.8385 24.83C27.407 23.4041 27.3753 20.285 27.3548 18.2631C27.3514 17.9277 27.3483 17.6225 27.3483 17.3602C27.3483 17.0979 27.3514 16.7927 27.3548 16.4575C27.3753 14.4366 27.4069 11.3212 26.8385 9.89043C26.391 8.77647 25.5357 7.92262 24.4255 7.48155C22.9926 6.91717 19.8529 6.94724 17.8281 6.96663C17.4996 6.96977 17.2005 6.97264 16.9427 6.97264C16.6799 6.97264 16.3743 6.96954 16.0384 6.96615C14.0141 6.94567 10.8932 6.91411 9.45999 7.48155C8.34409 7.92827 7.48876 8.78212 7.04694 9.89043C6.48158 11.3208 6.51169 14.4551 6.53112 16.4764C6.53427 16.8043 6.53714 17.1029 6.53714 17.3602C6.53714 17.6225 6.53404 17.9277 6.53064 18.263C6.51013 20.2838 6.47851 23.3993 7.04694 24.83C7.49443 25.944 8.34976 26.7978 9.45999 27.2389C10.8929 27.8033 14.0325 27.7732 16.0573 27.7538C16.3858 27.7507 16.685 27.7478 16.9427 27.7478C17.2055 27.7478 17.5112 27.7509 17.847 27.7543C19.8714 27.7748 22.9922 27.8063 24.4255 27.2389Z" fill="#343534"/>
</svg>
