<svg width="44" height="45" viewBox="0 0 44 45" fill="none" xmlns="http://www.w3.org/2000/svg">
<path d="M39.2857 0H4.71429C2.11161 0 0 2.1596 0 4.82143V40.1786C0 42.8404 2.11161 45 4.71429 45H39.2857C41.8884 45 44 42.8404 44 40.1786V4.82143C44 2.1596 41.8884 0 39.2857 0ZM23.9446 35.096C23.9446 39.4754 21.4304 41.4743 17.767 41.4743C14.4571 41.4743 12.542 39.7266 11.5598 37.6071L14.9286 35.5279C15.5768 36.7031 16.1661 37.6975 17.5902 37.6975C18.9455 37.6975 19.8098 37.1551 19.8098 35.0357V20.6618H23.9446V35.096ZM33.7268 41.4743C29.8866 41.4743 27.4018 39.606 26.1938 37.1551L29.5625 35.1663C30.4464 36.6429 31.6054 37.7377 33.6384 37.7377C35.3473 37.7377 36.4473 36.8638 36.4473 35.6484C36.4473 34.202 35.3277 33.6897 33.4321 32.8359L32.4009 32.3839C29.4152 31.0882 27.4411 29.4509 27.4411 26.0056C27.4411 22.8315 29.808 20.4208 33.4911 20.4208C36.1232 20.4208 38.0089 21.3549 39.3643 23.8058L36.1429 25.9152C35.4357 24.6194 34.6696 24.1071 33.4812 24.1071C32.2732 24.1071 31.5071 24.8906 31.5071 25.9152C31.5071 27.1808 32.2732 27.6931 34.0509 28.4866L35.0821 28.9386C38.5982 30.4754 40.5723 32.0525 40.5723 35.5882C40.5723 39.385 37.6455 41.4743 33.7268 41.4743Z" fill="#343534"/>
</svg>
