<svg width="33" height="35" viewBox="0 0 33 35" fill="none" xmlns="http://www.w3.org/2000/svg">
<path d="M30.6429 0H2.34978C1.05335 0 0 1.13281 0 2.52344V32.4766C0 33.8672 1.05335 35 2.34978 35H30.6429C31.9393 35 33 33.8672 33 32.4766V2.52344C33 1.13281 31.9393 0 30.6429 0ZM9.97366 30H5.08259V13.2969H9.98103V30H9.97366ZM7.52812 11.0156C5.95915 11.0156 4.69219 9.66406 4.69219 8.00781C4.69219 6.35156 5.95915 5 7.52812 5C9.08973 5 10.3641 6.35156 10.3641 8.00781C10.3641 9.67188 9.0971 11.0156 7.52812 11.0156ZM28.3078 30H23.4167V21.875C23.4167 19.9375 23.3799 17.4453 20.8754 17.4453C18.3268 17.4453 17.9364 19.5547 17.9364 21.7344V30H13.0453V13.2969H17.7375V15.5781H17.8038C18.4594 14.2656 20.0578 12.8828 22.4371 12.8828C27.3871 12.8828 28.3078 16.3438 28.3078 20.8438V30Z" fill="#343534"/>
</svg>
