<svg width="217" height="33" viewBox="0 0 217 33" fill="none" xmlns="http://www.w3.org/2000/svg">
<path d="M116.316 12.5137C117.015 13.4575 117.364 14.576 117.364 15.8693C117.364 17.7917 116.595 19.2597 115.057 20.3083C113.519 21.3569 111.282 21.8812 108.381 21.8812H96.5669V0.000427246H107.752C110.548 0.000427246 112.68 0.524715 114.114 1.53836C115.582 2.55201 116.316 3.95016 116.316 5.69783C116.316 6.74643 116.071 7.65522 115.547 8.4941C115.022 9.33298 114.323 9.96213 113.379 10.4515C114.638 10.9059 115.616 11.6049 116.316 12.5137ZM102.684 4.47446V8.70381H106.948C109.045 8.70381 110.059 8.00475 110.059 6.57166C110.059 5.17352 109.01 4.47446 106.948 4.47446H102.684ZM111.142 15.2052C111.142 13.7371 110.059 13.0031 107.892 13.0031H102.719V17.4422H107.892C110.059 17.4072 111.142 16.6732 111.142 15.2052Z" fill="#343534"/>
<path d="M129.913 0.944121C131.172 0.419821 132.605 0.140198 134.248 0.140198V5.87256C133.549 5.80266 133.094 5.80265 132.849 5.80265C131.067 5.80265 129.704 6.29199 128.69 7.30564C127.676 8.28434 127.187 9.78733 127.187 11.7797V21.8463H121V0.489732H126.907V3.32097C127.641 2.27237 128.655 1.50338 129.913 0.944121Z" fill="#343534"/>
<path d="M140.644 20.7278C138.861 19.7841 137.463 18.4908 136.449 16.813C135.436 15.1353 134.946 13.2478 134.946 11.1506C134.946 9.01843 135.436 7.13094 136.449 5.48813C137.463 3.81037 138.861 2.51711 140.644 1.57337C142.426 0.629626 144.454 0.175232 146.691 0.175232C148.928 0.175232 150.955 0.629626 152.738 1.57337C154.52 2.51711 155.883 3.81037 156.897 5.48813C157.911 7.16589 158.4 9.05338 158.4 11.1506C158.4 13.2827 157.911 15.1702 156.897 16.813C155.883 18.4908 154.485 19.7841 152.738 20.7278C150.955 21.6716 148.963 22.126 146.691 22.126C144.454 22.1609 142.426 21.6716 140.644 20.7278ZM150.605 15.4498C151.619 14.3663 152.143 12.9332 152.143 11.1506C152.143 9.36796 151.619 7.89992 150.605 6.85132C149.592 5.80272 148.298 5.24347 146.691 5.24347C145.118 5.24347 143.79 5.76777 142.776 6.85132C141.762 7.93488 141.238 9.36796 141.238 11.1506C141.238 12.9682 141.762 14.4012 142.776 15.4498C143.79 16.4984 145.118 17.0577 146.691 17.0577C148.264 17.0577 149.592 16.5334 150.605 15.4498Z" fill="#343534"/>
<path d="M191.327 0.489746L185.665 21.8463H179.758L175.004 8.59894L170.076 21.8463H164.169L158.751 0.489746H164.064L167.314 14.9255L172.487 0.489746H177.661L182.694 14.9255L185.979 0.489746H191.327Z" fill="#343534"/>
<path d="M212.613 2.58697C214.255 4.15987 215.059 6.53671 215.059 9.64756V21.8812H208.872V10.5913C208.872 8.91354 208.488 7.62027 207.754 6.81634C207.02 5.97746 205.936 5.55801 204.538 5.55801C202.965 5.55801 201.742 6.04737 200.798 6.99111C199.855 7.96981 199.4 9.40289 199.4 11.2904V21.8812H193.213V0.524733H199.121V3.04136C199.924 2.13257 200.973 1.4335 202.161 0.944157C203.385 0.454809 204.713 0.210144 206.181 0.210144C208.838 0.210144 210.97 0.979114 212.613 2.58697Z" fill="#343534"/>
<path d="M3.21574 21.4614C1.88751 20.9021 0.838881 20.0982 0 19.0846L3.3905 15.0999C4.54397 16.6378 5.80226 17.3718 7.16544 17.3718C8.07423 17.3718 8.73836 17.0922 9.2277 16.5679C9.6821 16.0436 9.92677 15.2397 9.92677 14.1911V4.78862V0H16.0436V13.8066C16.0436 16.6378 15.3446 18.77 13.9115 20.1681C12.4784 21.6012 10.3812 22.3003 7.61986 22.3003C6.012 22.2653 4.54397 21.9857 3.21574 21.4614Z" fill="#343534"/>
<path d="M41.6294 13.3526H25.481C25.7606 14.6809 26.4597 15.7295 27.5433 16.4984C28.6268 17.2674 29.99 17.6519 31.5978 17.6519C32.7163 17.6519 33.695 17.4771 34.5689 17.1626C35.4427 16.848 36.2117 16.3237 36.9807 15.5897L40.2663 19.1549C38.239 21.4618 35.3029 22.6153 31.458 22.6153C29.0462 22.6153 26.9141 22.1609 25.0616 21.2171C23.209 20.2734 21.7759 18.9801 20.7623 17.3024C19.7486 15.6246 19.2593 13.7371 19.2593 11.6399C19.2593 9.54272 19.7486 7.65523 20.7623 5.97747C21.741 4.29971 23.1041 2.97147 24.8518 2.06269C26.5995 1.11894 28.522 0.664551 30.6541 0.664551C32.7513 0.664551 34.6388 1.11895 36.3165 2.02774C37.9943 2.93653 39.3225 4.2298 40.3012 5.90756C41.2799 7.58532 41.7343 9.54271 41.7343 11.7797C41.7693 11.7448 41.6994 12.304 41.6294 13.3526ZM27.1588 6.4668C26.215 7.27073 25.6208 8.3543 25.4111 9.71749H35.9321C35.7223 8.3543 35.1281 7.30569 34.1844 6.4668C33.2407 5.66288 32.0522 5.24344 30.6891 5.24344C29.2909 5.27839 28.1025 5.69783 27.1588 6.4668Z" fill="#343534"/>
<path d="M47.9899 21.9511C46.3121 21.5317 44.949 20.9724 43.9353 20.3083L45.9975 15.8692C46.9413 16.4635 48.0947 16.9878 49.4579 17.3722C50.8211 17.7567 52.1144 17.9315 53.4426 17.9315C56.0641 17.9315 57.3574 17.2674 57.3574 15.9741C57.3574 15.3799 57.0078 14.9255 56.2738 14.6808C55.5748 14.4012 54.4562 14.1915 52.9882 14.0167C51.2405 13.7371 49.8075 13.4575 48.654 13.1079C47.5005 12.7584 46.5219 12.1642 45.683 11.2904C44.8441 10.4165 44.4246 9.1582 44.4246 7.55034C44.4246 6.18716 44.8091 4.99875 45.5781 3.95015C46.3471 2.90155 47.5005 2.09762 49.0035 1.50341C50.5065 0.909205 52.2542 0.629578 54.3164 0.629578C55.8194 0.629578 57.3224 0.804332 58.8254 1.11891C60.3284 1.43349 61.5518 1.92285 62.5305 2.4821L60.4682 6.88622C58.5807 5.83762 56.5535 5.31332 54.3164 5.31332C52.9882 5.31332 52.0095 5.4881 51.3454 5.87259C50.6813 6.25707 50.3667 6.71146 50.3667 7.30567C50.3667 7.96978 50.7163 8.42417 51.4503 8.7038C52.1493 8.98343 53.3028 9.22811 54.8757 9.47278C56.6234 9.75241 58.0565 10.067 59.175 10.4165C60.2935 10.7311 61.2372 11.3603 62.0761 12.2341C62.88 13.1079 63.2994 14.3313 63.2994 15.8692C63.2994 17.1975 62.915 18.3859 62.1111 19.3995C61.3071 20.4481 60.1537 21.2171 58.6507 21.8113C57.1127 22.3706 55.3301 22.6502 53.2329 22.6502C51.4153 22.5803 49.6676 22.3706 47.9899 21.9511Z" fill="#343534"/>
<path d="M69.1381 21.9511C67.4603 21.5317 66.0971 20.9724 65.0835 20.3083L67.1457 15.8692C68.0895 16.4635 69.2429 16.9878 70.6061 17.3722C71.9693 17.7567 73.2626 17.9315 74.5908 17.9315C77.2123 17.9315 78.5056 17.2674 78.5056 15.9741C78.5056 15.3799 78.1561 14.9255 77.4221 14.6808C76.723 14.4012 75.6044 14.1915 74.1364 14.0167C72.3887 13.7371 70.9557 13.4575 69.8022 13.1079C68.6487 12.7584 67.67 12.1642 66.8312 11.2904C65.9923 10.4165 65.5728 9.1582 65.5728 7.55034C65.5728 6.18716 65.9573 4.99875 66.7612 3.95015C67.5302 2.90155 68.6837 2.09762 70.1867 1.50341C71.6897 0.909205 73.4373 0.629578 75.4996 0.629578C77.0026 0.629578 78.5056 0.804332 80.0086 1.11891C81.5116 1.43349 82.735 1.92285 83.7137 2.4821L81.6514 6.88622C79.7639 5.83762 77.7366 5.31332 75.4996 5.31332C74.1714 5.31332 73.1927 5.4881 72.5285 5.87259C71.8644 6.25707 71.5499 6.71146 71.5499 7.30567C71.5499 7.96978 71.8994 8.42417 72.6334 8.7038C73.3325 8.98343 74.4859 9.22811 76.0588 9.47278C77.8065 9.75241 79.2396 10.067 80.3581 10.4165C81.4766 10.7311 82.4204 11.3603 83.2593 12.2341C84.0632 13.1079 84.4826 14.3313 84.4826 15.8692C84.4826 17.1975 84.0981 18.3859 83.2942 19.3995C82.4902 20.4481 81.3368 21.2171 79.8338 21.8113C78.2959 22.3706 76.5132 22.6502 74.416 22.6502C72.5635 22.5803 70.8158 22.3706 69.1381 21.9511Z" fill="#343534"/>
<path d="M172.631 26.7515C173.559 26.7515 174.273 27.0015 174.773 27.4656C175.273 27.9298 175.523 28.6796 175.523 29.6437C175.523 30.1436 175.451 30.6077 175.344 31.0005C175.237 31.3933 175.059 31.7146 174.809 32.0003C174.559 32.2859 174.273 32.4644 173.916 32.6073C173.559 32.7501 173.13 32.8215 172.595 32.8215H170.524V26.7515H172.631ZM172.702 32.1074C172.809 32.1074 172.916 32.1074 173.059 32.0717C173.202 32.0717 173.345 32.036 173.488 31.9646C173.63 31.8931 173.809 31.8217 173.952 31.7146C174.094 31.6075 174.237 31.4647 174.344 31.2862C174.452 31.1076 174.559 30.8934 174.63 30.6434C174.702 30.3935 174.737 30.0722 174.737 29.6794C174.737 29.3223 174.702 29.001 174.63 28.7153C174.559 28.4297 174.452 28.1798 174.273 28.0012C174.095 27.787 173.916 27.6442 173.666 27.5371C173.416 27.4299 173.095 27.3942 172.738 27.3942H171.381V32.1074H172.702Z" fill="#666666"/>
<path d="M182.413 26.7515V27.4299H179.021V29.358H182.163V30.0365H179.021V32.1431H182.413V32.8215H178.2V26.7515H182.413Z" fill="#666666"/>
<path d="M188.163 27.5728C187.877 27.3942 187.556 27.2871 187.127 27.2871C186.949 27.2871 186.806 27.2871 186.627 27.3228C186.449 27.3585 186.306 27.4299 186.199 27.5013C186.056 27.5727 185.984 27.6799 185.877 27.8227C185.806 27.9655 185.77 28.1083 185.77 28.3226C185.77 28.5011 185.842 28.6439 185.949 28.7868C186.056 28.8939 186.199 29.001 186.377 29.0724C186.556 29.1438 186.77 29.2152 186.984 29.2509C187.198 29.2866 187.448 29.358 187.698 29.3937C187.948 29.4651 188.163 29.5009 188.412 29.608C188.662 29.7151 188.841 29.7865 189.02 29.9293C189.198 30.0721 189.341 30.215 189.448 30.4292C189.555 30.6434 189.626 30.8934 189.626 31.179C189.626 31.5004 189.555 31.786 189.412 32.0003C189.269 32.2145 189.091 32.4287 188.841 32.5716C188.627 32.7144 188.377 32.8215 188.091 32.8929C187.805 32.9643 187.52 33 187.27 33C186.913 33 186.591 32.9643 186.306 32.8572C186.02 32.7858 185.735 32.643 185.52 32.4644C185.306 32.2859 185.128 32.0717 184.985 31.786C184.842 31.5004 184.771 31.2147 184.771 30.822H185.52C185.52 31.0719 185.556 31.2862 185.663 31.4647C185.77 31.6432 185.877 31.786 186.056 31.9289C186.234 32.036 186.413 32.1431 186.627 32.1788C186.841 32.2145 187.056 32.2502 187.306 32.2502C187.484 32.2502 187.663 32.2502 187.841 32.2145C188.02 32.1788 188.198 32.1074 188.341 32.036C188.484 31.9646 188.591 31.8574 188.698 31.7146C188.805 31.5718 188.841 31.3933 188.841 31.179C188.841 30.9648 188.77 30.7863 188.662 30.6792C188.555 30.5363 188.412 30.4292 188.234 30.3578C188.055 30.2864 187.841 30.215 187.627 30.1436C187.413 30.1079 187.163 30.0364 186.913 30.0007C186.663 29.965 186.449 29.8936 186.199 29.8222C185.949 29.7508 185.77 29.6437 185.592 29.5366C185.413 29.4295 185.27 29.2866 185.163 29.0724C185.056 28.8939 184.985 28.6439 184.985 28.394C184.985 28.0726 185.056 27.8227 185.163 27.6084C185.27 27.3942 185.449 27.2157 185.663 27.0729C185.877 26.93 186.092 26.8229 186.377 26.7515C186.627 26.6801 186.913 26.6444 187.198 26.6444C187.52 26.6444 187.805 26.6801 188.055 26.7515C188.305 26.8229 188.555 26.9301 188.77 27.1086C188.984 27.2514 189.127 27.4656 189.234 27.7156C189.341 27.9655 189.412 28.2512 189.412 28.5725H188.662C188.591 28.0726 188.412 27.7513 188.163 27.5728Z" fill="#666666"/>
<path d="M193.162 26.7515V32.8215H192.341V26.7515H193.162Z" fill="#666666"/>
<path d="M199.838 32.7144C199.481 32.8572 199.124 32.9286 198.767 32.9286C198.302 32.9286 197.91 32.8572 197.553 32.6787C197.196 32.5001 196.91 32.2859 196.66 32.0003C196.41 31.7146 196.232 31.3933 196.089 31.0362C195.946 30.6792 195.91 30.2864 195.91 29.8936C195.91 29.4652 195.982 29.0367 196.089 28.6439C196.196 28.2512 196.374 27.8941 196.624 27.6084C196.874 27.3228 197.16 27.0729 197.517 26.8943C197.874 26.7158 198.302 26.6444 198.767 26.6444C199.088 26.6444 199.409 26.6801 199.695 26.7515C199.981 26.8229 200.231 26.9658 200.481 27.1086C200.695 27.2871 200.909 27.4656 201.052 27.7156C201.195 27.9655 201.302 28.2869 201.373 28.6439H200.552C200.516 28.4297 200.445 28.2155 200.338 28.0369C200.231 27.8584 200.088 27.7156 199.945 27.6084C199.802 27.5013 199.624 27.4299 199.409 27.3585C199.195 27.3228 198.981 27.2871 198.767 27.2871C198.41 27.2871 198.088 27.3585 197.803 27.5013C197.553 27.6442 197.338 27.8584 197.16 28.0726C196.981 28.3226 196.874 28.5725 196.803 28.8939C196.731 29.2152 196.696 29.5009 196.696 29.8579C196.696 30.1793 196.731 30.4649 196.838 30.7863C196.946 31.0719 197.053 31.3219 197.231 31.5718C197.41 31.786 197.624 31.9646 197.874 32.1074C198.124 32.2502 198.445 32.3216 198.767 32.3216C199.088 32.3216 199.374 32.2859 199.624 32.1788C199.874 32.0717 200.088 31.9289 200.231 31.7503C200.409 31.5718 200.516 31.3576 200.623 31.1076C200.695 30.8577 200.73 30.6077 200.73 30.3221H198.802V29.6437H201.445V32.8215H200.945L200.73 32.0717C200.516 32.3573 200.195 32.6073 199.838 32.7144Z" fill="#666666"/>
<path d="M205.193 26.7515L208.371 31.6789V26.7515H209.121V32.8215H208.228L205.05 27.9655V32.8215H204.3V26.7515H205.193Z" fill="#666666"/>
<path d="M215.192 27.5728C214.906 27.3942 214.585 27.2871 214.157 27.2871C213.978 27.2871 213.835 27.2871 213.657 27.3228C213.478 27.3585 213.335 27.4299 213.228 27.5013C213.085 27.5727 213.014 27.6799 212.907 27.8227C212.835 27.9655 212.8 28.1083 212.8 28.3226C212.8 28.5011 212.871 28.6439 212.978 28.7868C213.085 28.9296 213.228 29.001 213.407 29.0724C213.585 29.1438 213.8 29.2152 214.014 29.2509C214.228 29.2866 214.478 29.358 214.728 29.3937C214.978 29.4651 215.192 29.5009 215.442 29.608C215.692 29.7151 215.87 29.7865 216.049 29.9293C216.228 30.0721 216.37 30.215 216.477 30.4292C216.585 30.6434 216.656 30.8934 216.656 31.179C216.656 31.5004 216.585 31.786 216.442 32.0003C216.299 32.2145 216.12 32.4287 215.87 32.5716C215.656 32.7144 215.406 32.8215 215.121 32.8929C214.835 32.9643 214.549 33 214.299 33C213.942 33 213.621 32.9643 213.335 32.8572C213.05 32.7858 212.764 32.643 212.55 32.4644C212.336 32.2859 212.157 32.0717 212.014 31.786C211.871 31.5004 211.8 31.2147 211.8 30.822H212.55C212.55 31.0719 212.586 31.2862 212.693 31.4647C212.8 31.6432 212.907 31.786 213.085 31.9289C213.264 32.036 213.442 32.1431 213.657 32.1788C213.871 32.2145 214.085 32.2502 214.335 32.2502C214.514 32.2502 214.692 32.2502 214.871 32.2145C215.049 32.1788 215.228 32.1074 215.371 32.036C215.513 31.9646 215.621 31.8574 215.728 31.7146C215.835 31.5718 215.87 31.3933 215.87 31.179C215.87 30.9648 215.799 30.7863 215.692 30.6792C215.585 30.5363 215.442 30.4292 215.263 30.3578C215.085 30.2864 214.871 30.215 214.657 30.1436C214.442 30.1079 214.192 30.0364 213.942 30.0007C213.692 29.965 213.478 29.8936 213.228 29.8222C212.978 29.7508 212.8 29.6437 212.621 29.5366C212.443 29.4295 212.3 29.2866 212.193 29.0724C212.086 28.8939 212.014 28.6439 212.014 28.394C212.014 28.0726 212.086 27.8227 212.193 27.6084C212.3 27.3942 212.478 27.2157 212.693 27.0729C212.907 26.93 213.121 26.8229 213.407 26.7515C213.657 26.6801 213.942 26.6444 214.228 26.6444C214.549 26.6444 214.835 26.6801 215.085 26.7515C215.335 26.8229 215.585 26.9301 215.799 27.1086C216.013 27.2514 216.156 27.4656 216.263 27.7156C216.37 27.9655 216.442 28.2512 216.442 28.5725H215.692C215.621 28.0726 215.478 27.7513 215.192 27.5728Z" fill="#666666"/>
</svg>
