<svg width="71" height="58" viewBox="0 0 71 58" fill="none" xmlns="http://www.w3.org/2000/svg">
<path d="M33.4855 42.9245C33.4522 42.9925 33.4189 43.0469 33.4855 42.9245V42.9245ZM61.1233 33.0691C58.8921 33.0683 56.6905 33.5916 54.689 34.5984C54.0344 33.2503 53.3577 32.0722 53.2468 31.1886C53.1136 30.1577 52.9694 29.546 53.1247 28.3226C53.28 27.0991 53.979 25.3659 53.9679 25.2413C53.9568 25.1167 53.8125 24.4937 52.3815 24.4823C50.9504 24.471 49.719 24.7655 49.5758 25.1507C49.3231 25.8546 49.1265 26.5781 48.9879 27.3144C48.7327 28.6398 46.1268 33.3749 44.6513 35.8445C44.1632 34.8816 43.7527 34.032 43.664 33.3523C43.5309 32.3214 43.3866 31.7097 43.542 30.4862C43.6973 29.2628 44.3962 27.5296 44.3851 27.405C44.374 27.2804 44.2298 26.6573 42.7998 26.646C41.3698 26.6347 40.1373 26.9292 39.9931 27.3144C39.8488 27.6995 39.6935 28.6058 39.4051 29.478C39.1167 30.3503 35.6454 38.2347 34.7368 40.2851C34.2709 41.3273 33.8715 42.1655 33.5831 42.732C33.5387 42.8226 33.5054 42.8792 33.4832 42.9245C33.5165 42.8679 33.5387 42.8112 33.5387 42.8339C33.2947 43.321 33.1504 43.5929 33.1504 43.5929V43.6042C32.9618 43.9667 32.7511 44.2952 32.6512 44.2952C32.5847 44.2952 32.4404 43.3437 32.6845 42.0409C33.2059 39.2995 34.4373 35.0402 34.4262 34.8929C34.4151 34.8136 34.6592 34.0773 33.6164 33.6808C32.6068 33.307 32.2407 33.93 32.152 33.93C32.0633 33.93 31.9967 34.1566 31.9967 34.1566C31.9967 34.1566 33.1172 29.3534 29.8456 29.3534C27.8044 29.3534 24.9644 31.6417 23.5688 33.7148C22.6924 34.2019 20.7953 35.2554 18.7985 36.3769C18.033 36.8073 17.2453 37.2491 16.502 37.6683C16.4466 37.6116 16.4022 37.555 16.3467 37.4984C12.3763 33.171 5.04553 30.1124 5.35616 24.3011C5.46709 22.1827 6.18819 16.6206 19.453 9.86906C30.3249 4.34093 39.0168 5.8589 40.5134 9.23468C42.6655 14.0491 35.8662 23.0097 24.5761 24.3011C20.2728 24.7882 18.0108 23.089 17.445 22.4546C16.857 21.7862 16.7683 21.7523 16.5464 21.8769C16.1803 22.0808 16.4133 22.6698 16.5464 23.021C16.8792 23.9159 18.266 25.5019 20.6278 26.2948C22.7023 26.9859 27.7478 27.371 33.8482 24.9581C40.702 22.262 46.0369 14.7515 44.4727 8.46437C42.8797 2.0753 32.5048 -0.0203985 22.6946 3.53663C16.8493 5.65499 10.5281 8.98546 5.98073 13.3241C0.579187 18.4898 -0.285016 22.987 0.0699836 24.8675C1.33356 31.5398 10.3395 35.8898 13.9438 39.1069C13.7663 39.2089 13.5999 39.2995 13.4446 39.3902C11.6374 40.3077 4.77152 43.978 3.05309 47.8523C1.11169 52.2476 3.37481 55.3968 4.86027 55.8273C9.49634 57.1413 14.2434 54.7738 16.7938 50.8882C19.3443 47.0027 19.0347 41.9277 17.8588 39.6167C17.8477 39.5827 17.8255 39.5601 17.8144 39.5261C18.2804 39.2429 18.7574 38.9597 19.2344 38.6765C20.1541 38.1214 21.0527 37.6116 21.8404 37.1698C21.3966 38.3933 21.0749 39.8659 20.9085 41.9956C20.7088 44.4878 21.7183 47.7163 23.0274 48.9851C23.6043 49.5402 24.3021 49.5515 24.7347 49.5515C26.2657 49.5515 26.9535 48.2601 27.7178 46.7195C28.6608 44.839 29.4928 42.6527 29.4928 42.6527C29.4928 42.6527 28.45 48.5659 31.3011 48.5659C32.3428 48.5659 33.3856 47.1952 33.8527 46.4929V46.5042C33.8527 46.5042 33.8749 46.4589 33.9303 46.3683C34.0413 46.1984 34.0967 46.0964 34.0967 46.0964V46.0624C34.5183 45.3261 35.4391 43.6382 36.8247 40.8515C38.6219 37.2491 40.3403 32.7519 40.3403 32.7519C40.5064 33.7405 40.7361 34.7168 41.0281 35.6745C41.3387 36.7507 41.9933 37.9288 42.5147 39.073C42.0931 39.662 41.838 40.0019 41.838 40.0019C41.8388 40.0106 41.8427 40.0187 41.849 40.0245C41.5162 40.4777 41.139 40.9648 40.7508 41.4405C39.3319 43.1624 37.6445 45.1335 37.4226 45.6999C37.1564 46.3683 37.223 46.8667 37.7333 47.2519C38.1105 47.5464 38.7761 47.5917 39.4739 47.5351C40.7497 47.4445 41.6483 47.1273 42.0809 46.9234C42.8785 46.6313 43.6324 46.2272 44.3207 45.7226C45.7075 44.6804 46.5506 43.1851 46.4729 41.214C46.4285 40.1265 46.0846 39.039 45.6631 38.0195C45.7851 37.8382 45.9182 37.6456 46.0403 37.453C48.2357 34.1792 49.9331 30.5859 49.9331 30.5859C50.0991 31.5745 50.3289 32.5509 50.6209 33.5086C50.8871 34.4262 51.4074 35.4344 51.8845 36.4199C49.8221 38.1305 48.5463 40.1129 48.1026 41.4156C47.2817 43.8285 47.9251 44.916 49.1343 45.1652C49.6779 45.2785 50.4545 45.018 51.0313 44.7687C51.8881 44.4774 52.6959 44.0533 53.4265 43.5113C54.8132 42.4691 56.1544 41.0078 56.0657 39.0254C56.0324 38.1305 55.7883 37.2355 55.4666 36.3746C57.2083 35.6269 59.4704 35.2191 62.3547 35.559C68.5317 36.2953 69.741 40.2375 69.508 41.8801C69.275 43.5227 67.9771 44.4402 67.5444 44.7121C67.1117 44.984 66.9786 45.0859 67.0119 45.2898C67.0674 45.5844 67.2671 45.573 67.6331 45.5051C68.1435 45.4145 70.8714 44.1684 70.9934 41.1211C71.1709 37.2695 67.5444 33.0328 61.12 33.0668L61.1233 33.0691ZM13.5112 49.4609C11.471 51.7378 8.60884 52.5988 7.37855 51.8737C6.05839 51.0898 6.5798 47.739 9.09697 45.3125C10.6279 43.8398 12.6015 42.4805 13.9105 41.6422C14.2101 41.4609 14.6427 41.1891 15.1752 40.8605C15.264 40.8039 15.3084 40.7812 15.3084 40.7812C15.4082 40.7133 15.5191 40.6566 15.6301 40.5887C16.5497 44.0324 15.6634 47.0684 13.5112 49.4586V49.4609ZM28.4167 39.1069C27.7067 40.8855 26.2102 45.4167 25.3005 45.1788C24.5239 44.9749 24.0469 41.5198 25.1452 38.1214C25.6999 36.4109 26.8758 34.3718 27.5747 33.5788C28.6941 32.2987 29.9255 31.8909 30.2139 32.4007C30.6022 33.0691 28.8605 37.9968 28.4167 39.1069ZM40.7308 45.1109C40.4313 45.2695 40.1539 45.3714 40.0208 45.2921C39.921 45.2355 40.1428 45.0202 40.1428 45.0202C40.1428 45.0202 41.6849 43.3323 42.295 42.562C42.65 42.1089 43.0605 41.5765 43.5031 40.9874C43.5031 41.0441 43.5142 41.1007 43.5142 41.1687C43.4998 43.1964 41.5928 44.5671 40.7275 45.1109H40.7308ZM50.2248 42.9019C50.003 42.7433 50.0362 42.2109 50.7795 40.5569C51.068 39.9112 51.7325 38.8237 52.8873 37.7816C53.0181 38.1761 53.0891 38.5886 53.0981 39.005C53.087 41.5538 51.3009 42.5054 50.2259 42.9019H50.2248Z" fill="#343534"/>
</svg>
