<svg width="1045" height="743" viewBox="0 0 1045 743" fill="none" xmlns="http://www.w3.org/2000/svg">
<g clip-path="url(#clip0)">
<rect width="1045" height="743" fill="white"/>
<rect x="138" width="907" height="743" rx="89" fill="#B6CFE0"/>
<g filter="url(#filter0_d)">
<path d="M856.63 188.08H63.4564C28.571 188.08 0 159.56 0 124.675C0 89.7904 28.571 61.3333 63.4564 61.3333H856.568C891.515 61.3333 920.024 89.8528 920.024 124.675C920.086 159.56 891.515 188.08 856.63 188.08Z" fill="#235387"/>
<path d="M129.014 113.907V107.65H123.634V127.144H127.025V130.384H116.368V127.144H119.69V107.65H114.344V113.907H111.126V104.41H132.232V113.907H129.014Z" fill="white"/>
<path d="M152.058 121.353C152.058 123.111 151.637 124.719 150.795 126.179C149.953 127.638 148.805 128.793 147.352 129.643C145.899 130.493 144.29 130.918 142.525 130.918C140.703 130.918 139.06 130.493 137.595 129.643C136.13 128.793 134.989 127.638 134.17 126.179C133.362 124.719 132.959 123.111 132.959 121.353C132.959 119.514 133.362 117.871 134.17 116.423C134.989 114.975 136.125 113.843 137.578 113.028C139.031 112.2 140.68 111.787 142.525 111.787C144.313 111.787 145.933 112.223 147.387 113.097C148.84 113.958 149.982 115.119 150.812 116.578C151.642 118.037 152.058 119.629 152.058 121.353ZM142.525 127.454C143.586 127.454 144.561 127.178 145.449 126.627C146.337 126.075 147.029 125.334 147.525 124.403C148.021 123.473 148.269 122.456 148.269 121.353C148.269 120.272 148.021 119.267 147.525 118.336C147.029 117.406 146.337 116.659 145.449 116.096C144.561 115.521 143.575 115.234 142.491 115.234C141.43 115.234 140.455 115.515 139.567 116.078C138.679 116.63 137.981 117.377 137.474 118.319C136.966 119.261 136.713 120.272 136.713 121.353C136.713 122.433 136.966 123.444 137.474 124.386C137.981 125.328 138.685 126.075 139.584 126.627C140.484 127.178 141.464 127.454 142.525 127.454Z" fill="white"/>
<path d="M177.125 115.234H174.253V112.269H184.322V115.234H181.519L174.72 120.853L181.138 127.213H184.322V130.384H179.599L170.499 121.249V127.213H173.578V130.384H163.666V127.213H166.918V107.547H163.666V104.41H170.499V120.784L177.125 115.234Z" fill="white"/>
<path d="M203.559 118.198V127.213H206.604V130.384H199.978V118.422C199.978 117.285 199.811 116.469 199.476 115.975C199.153 115.481 198.617 115.234 197.867 115.234C196.276 115.234 194.488 116.015 192.504 117.578V127.213H195.636V130.384H185.775V127.213H188.975V115.458H185.775V112.269H192.504V114.458C194.73 112.838 196.823 112.028 198.784 112.028C200.41 112.028 201.61 112.528 202.382 113.527C203.167 114.527 203.559 116.084 203.559 118.198Z" fill="white"/>
<path d="M227.726 121.353C227.726 123.111 227.306 124.719 226.464 126.179C225.622 127.638 224.474 128.793 223.021 129.643C221.568 130.493 219.959 130.918 218.194 130.918C216.372 130.918 214.729 130.493 213.264 129.643C211.799 128.793 210.657 127.638 209.839 126.179C209.031 124.719 208.628 123.111 208.628 121.353C208.628 119.514 209.031 117.871 209.839 116.423C210.657 114.975 211.793 113.843 213.247 113.028C214.7 112.2 216.349 111.787 218.194 111.787C219.982 111.787 221.602 112.223 223.056 113.097C224.509 113.958 225.651 115.119 226.481 116.578C227.311 118.037 227.726 119.629 227.726 121.353ZM218.194 127.454C219.255 127.454 220.23 127.178 221.118 126.627C222.006 126.075 222.698 125.334 223.194 124.403C223.69 123.473 223.938 122.456 223.938 121.353C223.938 120.272 223.69 119.267 223.194 118.336C222.698 117.406 222.006 116.659 221.118 116.096C220.23 115.521 219.244 115.234 218.16 115.234C217.099 115.234 216.124 115.515 215.236 116.078C214.348 116.63 213.65 117.377 213.143 118.319C212.635 119.261 212.382 120.272 212.382 121.353C212.382 122.433 212.635 123.444 213.143 124.386C213.65 125.328 214.354 126.075 215.253 126.627C216.153 127.178 217.133 127.454 218.194 127.454Z" fill="white"/>
<path d="M234.923 115.458L238.366 126.368L241.826 115.458H239.888V112.269H248.625V115.458H246.618L250.13 126.368L253.624 115.458H251.116V112.269H259.298V115.458H256.669L251.825 130.694H248.452L244.282 117.612L240.061 130.694H236.722L231.844 115.458H229.647V112.269H237.293V115.458H234.923Z" fill="white"/>
<path d="M290.04 122.232H274.799C275.018 123.967 275.693 125.34 276.823 126.351C277.953 127.351 279.337 127.85 280.975 127.85C282.174 127.85 283.287 127.603 284.314 127.109C285.34 126.615 286.199 125.857 286.891 124.834L290.04 126.248C289.048 127.787 287.745 128.954 286.13 129.746C284.527 130.528 282.78 130.918 280.888 130.918C278.928 130.918 277.186 130.511 275.664 129.695C274.142 128.879 272.954 127.741 272.1 126.282C271.258 124.823 270.837 123.18 270.837 121.353C270.837 119.537 271.253 117.9 272.083 116.44C272.925 114.981 274.072 113.843 275.526 113.028C276.979 112.2 278.582 111.787 280.335 111.787C282.249 111.787 283.916 112.212 285.334 113.062C286.765 113.901 287.889 115.107 288.708 116.682C289.527 118.244 289.971 120.094 290.04 122.232ZM280.404 114.751C279.055 114.751 277.873 115.205 276.858 116.113C275.843 117.009 275.191 118.198 274.903 119.681H286.286C285.952 118.198 285.242 117.009 284.158 116.113C283.074 115.205 281.823 114.751 280.404 114.751Z" fill="white"/>
<path d="M298.759 115.458L302.046 119.026L305.108 115.458H303.257V112.269H311.838V115.458H308.827L304.035 120.887L309.814 127.213H311.838V130.384H303.257V127.213H305.592L301.977 123.111L298.413 127.213H300.749V130.384H291.96V127.213H294.607L300.074 121.094L294.901 115.458H292.41V112.269H300.956V115.458H298.759Z" fill="white"/>
<path d="M329.224 118.664V127.213H332.269V130.384H326.075V128.161C324.345 129.85 322.419 130.694 320.297 130.694C319.178 130.694 318.152 130.436 317.218 129.919C316.295 129.402 315.551 128.712 314.986 127.85C314.433 126.977 314.156 126.012 314.156 124.955C314.156 123.817 314.461 122.806 315.073 121.921C315.695 121.025 316.532 120.336 317.581 119.853C318.631 119.37 319.686 119.129 320.747 119.129C322.523 119.129 324.178 119.646 325.712 120.68V118.733C325.712 117.319 325.412 116.308 324.812 115.699C324.213 115.09 323.227 114.786 321.854 114.786C320.885 114.786 320.072 114.964 319.415 115.32C318.769 115.665 318.233 116.193 317.806 116.906L314.381 116.061C315.153 114.625 316.197 113.556 317.512 112.855C318.827 112.143 320.389 111.787 322.2 111.787C324.634 111.787 326.41 112.338 327.528 113.441C328.659 114.544 329.224 116.285 329.224 118.664ZM320.782 127.954C322.535 127.954 324.178 127.224 325.712 125.765V123.645C324.155 122.438 322.598 121.835 321.041 121.835C320.095 121.835 319.277 122.134 318.585 122.731C317.904 123.317 317.564 124.059 317.564 124.955C317.564 125.817 317.864 126.535 318.463 127.109C319.063 127.672 319.836 127.954 320.782 127.954Z" fill="white"/>
<path d="M348.323 113.579V112.269H351.506V119.129H348.323C348.184 117.808 347.654 116.802 346.731 116.113C345.809 115.412 344.742 115.061 343.531 115.061C342.493 115.061 341.559 115.337 340.728 115.889C339.909 116.44 339.275 117.187 338.825 118.129C338.375 119.072 338.15 120.1 338.15 121.215C338.15 123.111 338.658 124.662 339.673 125.868C340.688 127.063 342.026 127.661 343.686 127.661C346.258 127.661 348.075 126.472 349.136 124.093L352.111 125.506C350.439 129.114 347.579 130.918 343.531 130.918C341.72 130.918 340.111 130.493 338.704 129.643C337.297 128.793 336.207 127.626 335.434 126.144C334.673 124.662 334.293 123.019 334.293 121.215C334.293 119.445 334.679 117.836 335.452 116.389C336.236 114.941 337.309 113.815 338.669 113.01C340.03 112.195 341.547 111.787 343.219 111.787C345.203 111.787 346.904 112.384 348.323 113.579Z" fill="white"/>
<path d="M363.425 112.269V115.458H360.104V124.955C360.104 125.943 360.208 126.587 360.415 126.885C360.634 127.173 361.003 127.316 361.522 127.316C362.157 127.316 362.791 127.207 363.425 126.989V130.212C362.318 130.534 361.424 130.694 360.744 130.694C359.245 130.694 358.166 130.321 357.509 129.574C356.851 128.816 356.523 127.523 356.523 125.696V115.458H354.153V112.269H356.523V109.529L360.104 106.271V112.269H363.425Z" fill="white"/>
<path d="M374.774 127.213V130.384H365.207V127.213H368.425V107.547H365.207V104.41H372.006V127.213H374.774Z" fill="white"/>
<path d="M383.424 115.458L387.368 125.696L391.191 115.458H388.769V112.269H397.454V115.458H394.772L385.794 138.502H379.739V135.4H383.32L385.482 130.074L379.531 115.458H376.487V112.269H385.586V115.458H383.424Z" fill="white"/>
<path d="M413.491 115.458L416.933 126.368L420.393 115.458H418.456V112.269H427.192V115.458H425.185L428.697 126.368L432.192 115.458H429.683V112.269H437.866V115.458H435.236L430.393 130.694H427.019L422.85 117.612L418.629 130.694H415.29L410.411 115.458H408.214V112.269H415.861V115.458H413.491Z" fill="white"/>
<path d="M451.896 111.787C455.275 111.787 456.965 113.608 456.965 117.25V127.213H460.044V130.384H453.384V118.526C453.384 117.227 453.194 116.314 452.813 115.785C452.444 115.257 451.867 114.992 451.083 114.992C449.757 114.992 448.032 115.768 445.91 117.319V127.213H449.059V130.384H439.077V127.213H442.329V107.547H439.077V104.41H445.91V114.389C448.056 112.654 450.051 111.787 451.896 111.787Z" fill="white"/>
<path d="M481.236 122.232H465.995C466.214 123.967 466.889 125.34 468.019 126.351C469.15 127.351 470.534 127.85 472.171 127.85C473.371 127.85 474.484 127.603 475.51 127.109C476.537 126.615 477.396 125.857 478.088 124.834L481.236 126.248C480.245 127.787 478.941 128.954 477.327 129.746C475.724 130.528 473.976 130.918 472.085 130.918C470.124 130.918 468.383 130.511 466.86 129.695C465.338 128.879 464.15 127.741 463.297 126.282C462.455 124.823 462.034 123.18 462.034 121.353C462.034 119.537 462.449 117.9 463.279 116.44C464.121 114.981 465.269 113.843 466.722 113.028C468.175 112.2 469.778 111.787 471.531 111.787C473.446 111.787 475.112 112.212 476.531 113.062C477.961 113.901 479.085 115.107 479.904 116.682C480.723 118.244 481.167 120.094 481.236 122.232ZM471.6 114.751C470.251 114.751 469.069 115.205 468.054 116.113C467.039 117.009 466.387 118.198 466.099 119.681H477.482C477.148 118.198 476.439 117.009 475.354 116.113C474.27 115.205 473.019 114.751 471.6 114.751Z" fill="white"/>
<path d="M501.252 118.198V127.213H504.297V130.384H497.671V118.422C497.671 117.285 497.504 116.469 497.169 115.975C496.846 115.481 496.31 115.234 495.561 115.234C493.969 115.234 492.181 116.015 490.198 117.578V127.213H493.329V130.384H483.468V127.213H486.668V115.458H483.468V112.269H490.198V114.458C492.424 112.838 494.517 112.028 496.477 112.028C498.104 112.028 499.303 112.528 500.076 113.527C500.86 114.527 501.252 116.084 501.252 118.198Z" fill="white"/>
<path d="M525.039 112.269V115.458H521.718V124.955C521.718 125.943 521.821 126.587 522.029 126.885C522.248 127.173 522.617 127.316 523.136 127.316C523.771 127.316 524.405 127.207 525.039 126.989V130.212C523.932 130.534 523.038 130.694 522.358 130.694C520.858 130.694 519.78 130.321 519.123 129.574C518.465 128.816 518.137 127.523 518.137 125.696V115.458H515.767V112.269H518.137V109.529L521.718 106.271V112.269H525.039Z" fill="white"/>
<path d="M539.606 111.787C542.985 111.787 544.674 113.608 544.674 117.25V127.213H547.754V130.384H541.093V118.526C541.093 117.227 540.903 116.314 540.522 115.785C540.153 115.257 539.577 114.992 538.792 114.992C537.466 114.992 535.742 115.768 533.62 117.319V127.213H536.768V130.384H526.786V127.213H530.039V107.547H526.786V104.41H533.62V114.389C535.765 112.654 537.76 111.787 539.606 111.787Z" fill="white"/>
<path d="M568.946 122.232H553.705C553.924 123.967 554.599 125.34 555.729 126.351C556.859 127.351 558.243 127.85 559.881 127.85C561.08 127.85 562.193 127.603 563.22 127.109C564.246 126.615 565.105 125.857 565.797 124.834L568.946 126.248C567.954 127.787 566.651 128.954 565.036 129.746C563.433 130.528 561.686 130.918 559.794 130.918C557.834 130.918 556.092 130.511 554.57 129.695C553.047 128.879 551.86 127.741 551.006 126.282C550.164 124.823 549.743 123.18 549.743 121.353C549.743 119.537 550.158 117.9 550.989 116.44C551.831 114.981 552.978 113.843 554.431 113.028C555.885 112.2 557.488 111.787 559.241 111.787C561.155 111.787 562.822 112.212 564.24 113.062C565.67 113.901 566.795 115.107 567.614 116.682C568.433 118.244 568.877 120.094 568.946 122.232ZM559.31 114.751C557.961 114.751 556.778 115.205 555.763 116.113C554.749 117.009 554.097 118.198 553.809 119.681H565.192C564.857 118.198 564.148 117.009 563.064 116.113C561.98 115.205 560.729 114.751 559.31 114.751Z" fill="white"/>
<path d="M577.803 106.168C577.803 106.754 577.59 107.259 577.163 107.684C576.737 108.11 576.229 108.322 575.641 108.322C575.053 108.322 574.551 108.11 574.136 107.684C573.721 107.259 573.513 106.754 573.513 106.168C573.513 105.582 573.721 105.076 574.136 104.651C574.551 104.226 575.053 104.013 575.641 104.013C576.252 104.013 576.765 104.22 577.181 104.634C577.596 105.047 577.803 105.559 577.803 106.168ZM580.364 127.213V130.384H571.178V127.213H574.015V115.458H571.178V112.269H577.596V127.213H580.364Z" fill="white"/>
<path d="M589.135 123.111V127.213H593.096V130.384H581.938V127.213H585.588V115.458H581.938V112.269H588.425V116.371C589.152 114.751 590.052 113.625 591.124 112.993C592.208 112.35 593.754 112.028 595.76 112.028H596.573V115.63H595.795C593.857 115.63 592.416 115.883 591.47 116.389C590.524 116.894 589.896 117.658 589.584 118.681C589.285 119.704 589.135 121.18 589.135 123.111Z" fill="white"/>
<path d="M620.828 111.787C622.5 111.787 624.011 112.212 625.36 113.062C626.71 113.901 627.759 115.038 628.509 116.475C629.27 117.911 629.651 119.462 629.651 121.128C629.651 122.852 629.264 124.444 628.491 125.903C627.73 127.362 626.675 128.528 625.326 129.402C623.976 130.264 622.465 130.694 620.793 130.694C619.467 130.694 618.204 130.424 617.004 129.884C615.817 129.344 614.882 128.603 614.202 127.661V130.384H607.507V127.213H610.725V107.547H607.507V104.41H614.202V114.855C616.024 112.809 618.233 111.787 620.828 111.787ZM620.084 127.523C621.214 127.523 622.223 127.218 623.111 126.609C623.999 126 624.686 125.202 625.17 124.214C625.654 123.226 625.896 122.174 625.896 121.06C625.896 119.956 625.649 118.945 625.153 118.026C624.657 117.107 623.97 116.377 623.094 115.837C622.217 115.297 621.226 115.027 620.118 115.027C619.011 115.027 618.019 115.308 617.143 115.872C616.266 116.435 615.58 117.199 615.084 118.164C614.588 119.129 614.34 120.203 614.34 121.387C614.34 122.513 614.594 123.547 615.101 124.489C615.609 125.432 616.301 126.173 617.177 126.713C618.054 127.253 619.023 127.523 620.084 127.523Z" fill="white"/>
<path d="M640.515 127.592C642.118 127.592 643.854 126.816 645.722 125.265V115.458H642.504V112.269H649.303V127.213H652.417V130.384H645.722V128.299C643.623 129.896 641.628 130.694 639.736 130.694C638.029 130.694 636.766 130.189 635.948 129.178C635.14 128.166 634.737 126.489 634.737 124.145V115.458H632.194V112.269H638.318V124.886C638.318 125.817 638.485 126.5 638.819 126.937C639.165 127.374 639.73 127.592 640.515 127.592Z" fill="white"/>
<path d="M665.565 113.045V112.269H668.679V118.285H665.565V117.181C664.527 115.699 663.108 114.958 661.309 114.958C660.363 114.958 659.591 115.165 658.991 115.578C658.391 115.992 658.091 116.526 658.091 117.181C658.091 117.767 658.316 118.227 658.766 118.56C659.227 118.894 660.254 119.187 661.845 119.439L664.25 119.905C667.837 120.56 669.63 122.312 669.63 125.162C669.63 126.828 668.979 128.166 667.675 129.178C666.384 130.189 664.665 130.694 662.52 130.694C661.667 130.694 660.825 130.574 659.994 130.332C659.175 130.08 658.489 129.769 657.936 129.402V130.384H654.752V124.179H657.936V124.8C658.109 125.673 658.593 126.374 659.389 126.903C660.196 127.431 661.13 127.695 662.191 127.695C663.356 127.695 664.273 127.494 664.942 127.092C665.611 126.678 665.945 126.069 665.945 125.265C665.945 124.679 665.68 124.242 665.15 123.955C664.619 123.656 663.552 123.352 661.949 123.042L660.098 122.645C658.264 122.278 656.921 121.646 656.067 120.749C655.214 119.853 654.787 118.71 654.787 117.319C654.787 116.193 655.098 115.234 655.721 114.441C656.356 113.637 657.163 113.033 658.143 112.631C659.123 112.229 660.133 112.028 661.171 112.028C662.912 112.028 664.377 112.367 665.565 113.045Z" fill="white"/>
<path d="M688.106 106.168C688.106 106.754 687.893 107.259 687.466 107.684C687.039 108.11 686.532 108.322 685.944 108.322C685.356 108.322 684.854 108.11 684.439 107.684C684.024 107.259 683.816 106.754 683.816 106.168C683.816 105.582 684.024 105.076 684.439 104.651C684.854 104.226 685.356 104.013 685.944 104.013C686.555 104.013 687.068 104.22 687.483 104.634C687.899 105.047 688.106 105.559 688.106 106.168ZM690.667 127.213V130.384H681.48V127.213H684.318V115.458H681.48V112.269H687.899V127.213H690.667Z" fill="white"/>
<path d="M703.832 113.045V112.269H706.946V118.285H703.832V117.181C702.794 115.699 701.375 114.958 699.576 114.958C698.63 114.958 697.858 115.165 697.258 115.578C696.658 115.992 696.358 116.526 696.358 117.181C696.358 117.767 696.583 118.227 697.033 118.56C697.494 118.894 698.521 119.187 700.112 119.439L702.517 119.905C706.104 120.56 707.897 122.312 707.897 125.162C707.897 126.828 707.245 128.166 705.942 129.178C704.651 130.189 702.932 130.694 700.787 130.694C699.933 130.694 699.092 130.574 698.261 130.332C697.442 130.08 696.756 129.769 696.203 129.402V130.384H693.019V124.179H696.203V124.8C696.375 125.673 696.86 126.374 697.656 126.903C698.463 127.431 699.397 127.695 700.458 127.695C701.623 127.695 702.54 127.494 703.209 127.092C703.878 126.678 704.212 126.069 704.212 125.265C704.212 124.679 703.947 124.242 703.416 123.955C702.886 123.656 701.819 123.352 700.216 123.042L698.365 122.645C696.531 122.278 695.188 121.646 694.334 120.749C693.481 119.853 693.054 118.71 693.054 117.319C693.054 116.193 693.365 115.234 693.988 114.441C694.622 113.637 695.43 113.033 696.41 112.631C697.39 112.229 698.4 112.028 699.438 112.028C701.179 112.028 702.644 112.367 703.832 113.045Z" fill="white"/>
<path d="M735.698 118.664V127.213H738.742V130.384H732.549V128.161C730.819 129.85 728.893 130.694 726.771 130.694C725.652 130.694 724.626 130.436 723.692 129.919C722.769 129.402 722.025 128.712 721.46 127.85C720.906 126.977 720.63 126.012 720.63 124.955C720.63 123.817 720.935 122.806 721.547 121.921C722.169 121.025 723.006 120.336 724.055 119.853C725.105 119.37 726.16 119.129 727.221 119.129C728.997 119.129 730.652 119.646 732.186 120.68V118.733C732.186 117.319 731.886 116.308 731.286 115.699C730.687 115.09 729.7 114.786 728.328 114.786C727.359 114.786 726.546 114.964 725.889 115.32C725.243 115.665 724.707 116.193 724.28 116.906L720.855 116.061C721.627 114.625 722.671 113.556 723.986 112.855C725.301 112.143 726.863 111.787 728.674 111.787C731.108 111.787 732.884 112.338 734.002 113.441C735.133 114.544 735.698 116.285 735.698 118.664ZM727.255 127.954C729.009 127.954 730.652 127.224 732.186 125.765V123.645C730.629 122.438 729.072 121.835 727.515 121.835C726.569 121.835 725.75 122.134 725.058 122.731C724.378 123.317 724.038 124.059 724.038 124.955C724.038 125.817 724.338 126.535 724.937 127.109C725.537 127.672 726.31 127.954 727.255 127.954Z" fill="white"/>
<path d="M747.392 123.111V127.213H751.354V130.384H740.196V127.213H743.846V115.458H740.196V112.269H746.683V116.371C747.41 114.751 748.309 113.625 749.382 112.993C750.466 112.35 752.011 112.028 754.018 112.028H754.831V115.63H754.053C752.115 115.63 750.674 115.883 749.728 116.389C748.782 116.894 748.154 117.658 747.842 118.681C747.542 119.704 747.392 121.18 747.392 123.111Z" fill="white"/>
<path d="M763.446 123.111V127.213H767.408V130.384H756.25V127.213H759.9V115.458H756.25V112.269H762.737V116.371C763.464 114.751 764.363 113.625 765.436 112.993C766.52 112.35 768.065 112.028 770.072 112.028H770.885V115.63H770.107C768.169 115.63 766.728 115.883 765.782 116.389C764.836 116.894 764.208 117.658 763.896 118.681C763.596 119.704 763.446 121.18 763.446 123.111Z" fill="white"/>
<path d="M779.033 106.168C779.033 106.754 778.82 107.259 778.393 107.684C777.967 108.11 777.459 108.322 776.871 108.322C776.283 108.322 775.781 108.11 775.366 107.684C774.951 107.259 774.743 106.754 774.743 106.168C774.743 105.582 774.951 105.076 775.366 104.651C775.781 104.226 776.283 104.013 776.871 104.013C777.482 104.013 777.996 104.22 778.411 104.634C778.826 105.047 779.033 105.559 779.033 106.168ZM781.594 127.213V130.384H772.408V127.213H775.245V115.458H772.408V112.269H778.826V127.213H781.594Z" fill="white"/>
<path d="M789.137 115.458L793.064 125.73L796.973 115.458H794.448V112.269H803.167V115.458H800.399L794.603 130.694H791.368L785.452 115.458H782.234V112.269H791.507V115.458H789.137Z" fill="white"/>
<path d="M811.246 106.168C811.246 106.754 811.032 107.259 810.605 107.684C810.179 108.11 809.671 108.322 809.083 108.322C808.495 108.322 807.993 108.11 807.578 107.684C807.163 107.259 806.955 106.754 806.955 106.168C806.955 105.582 807.163 105.076 807.578 104.651C807.993 104.226 808.495 104.013 809.083 104.013C809.694 104.013 810.208 104.22 810.623 104.634C811.038 105.047 811.246 105.559 811.246 106.168ZM813.806 127.213V130.384H804.62V127.213H807.457V115.458H804.62V112.269H811.038V127.213H813.806Z" fill="white"/>
<path d="M833.268 118.198V127.213H836.313V130.384H829.687V118.422C829.687 117.285 829.52 116.469 829.185 115.975C828.862 115.481 828.326 115.234 827.576 115.234C825.985 115.234 824.197 116.015 822.214 117.578V127.213H825.345V130.384H815.484V127.213H818.684V115.458H815.484V112.269H822.214V114.458C824.439 112.838 826.533 112.028 828.493 112.028C830.12 112.028 831.319 112.528 832.092 113.527C832.876 114.527 833.268 116.084 833.268 118.198Z" fill="white"/>
<path d="M853.751 114.889V112.269H860.584V115.458H857.297V129.04C857.297 132.2 856.496 134.636 854.893 136.348C853.301 138.071 850.971 138.933 847.904 138.933C844.997 138.933 842.518 138.117 840.465 136.486L842.766 133.918C843.596 134.527 844.426 134.98 845.257 135.279C846.099 135.589 847.016 135.745 848.007 135.745C849.807 135.745 851.214 135.187 852.229 134.073C853.243 132.958 853.751 131.482 853.751 129.643V127.954C852.967 128.873 851.969 129.597 850.758 130.126C849.559 130.654 848.359 130.918 847.16 130.918C845.476 130.918 843.959 130.493 842.61 129.643C841.272 128.793 840.223 127.667 839.461 126.265C838.712 124.851 838.337 123.306 838.337 121.628C838.337 119.916 838.729 118.325 839.513 116.854C840.309 115.383 841.393 114.211 842.766 113.338C844.138 112.465 845.66 112.028 847.333 112.028C848.532 112.028 849.651 112.263 850.689 112.735C851.738 113.206 852.759 113.924 853.751 114.889ZM847.834 127.73C848.965 127.73 849.985 127.448 850.896 126.885C851.808 126.322 852.517 125.564 853.024 124.61C853.532 123.656 853.786 122.628 853.786 121.525C853.786 120.491 853.532 119.497 853.024 118.543C852.517 117.589 851.813 116.819 850.914 116.233C850.014 115.647 849.011 115.354 847.904 115.354C846.82 115.354 845.833 115.636 844.945 116.199C844.057 116.762 843.365 117.52 842.869 118.474C842.373 119.428 842.126 120.456 842.126 121.559C842.126 122.685 842.362 123.72 842.835 124.662C843.308 125.604 843.977 126.351 844.842 126.903C845.718 127.454 846.716 127.73 847.834 127.73Z" fill="white"/>
<path d="M59.9466 102.909H52.979V92.3733H72.3615V140.227H59.9466V102.909Z" fill="white"/>
<path d="M856.63 363.973H63.5189C28.571 363.973 0 335.44 0 300.6C0 265.698 28.571 237.227 63.4564 237.227H856.568C891.515 237.227 920.024 265.76 920.024 300.6C920.087 335.44 891.515 363.973 856.63 363.973Z" fill="#235387"/>
<path d="M125.158 292.485V286.253H119.772V305.67H123.166V308.898H112.498V305.67H115.823V286.253H110.471V292.485H107.25V283.025H128.38V292.485H125.158Z" fill="white"/>
<path d="M148.227 299.902C148.227 301.653 147.806 303.255 146.963 304.709C146.12 306.162 144.971 307.313 143.517 308.16C142.062 309.006 140.451 309.43 138.685 309.43C136.86 309.43 135.215 309.006 133.749 308.16C132.282 307.313 131.139 306.162 130.319 304.709C129.511 303.255 129.107 301.653 129.107 299.902C129.107 298.07 129.511 296.434 130.319 294.992C131.139 293.549 132.276 292.422 133.731 291.609C135.186 290.785 136.837 290.373 138.685 290.373C140.474 290.373 142.096 290.808 143.551 291.678C145.006 292.537 146.149 293.693 146.981 295.146C147.812 296.6 148.227 298.185 148.227 299.902ZM138.685 305.979C139.747 305.979 140.722 305.704 141.612 305.155C142.501 304.606 143.193 303.867 143.69 302.94C144.186 302.013 144.435 301 144.435 299.902C144.435 298.826 144.186 297.824 143.69 296.897C143.193 295.97 142.501 295.226 141.612 294.665C140.722 294.093 139.735 293.807 138.65 293.807C137.588 293.807 136.612 294.087 135.723 294.648C134.834 295.198 134.135 295.942 133.627 296.88C133.119 297.819 132.865 298.826 132.865 299.902C132.865 300.978 133.119 301.985 133.627 302.923C134.135 303.862 134.84 304.606 135.74 305.155C136.641 305.704 137.622 305.979 138.685 305.979Z" fill="white"/>
<path d="M172.44 286.648L169.253 287.129C169.149 285.961 168.699 285.377 167.902 285.377C167.336 285.377 166.955 285.578 166.759 285.978C166.574 286.379 166.482 287.094 166.482 288.124V290.854H169.6V294.03H166.482V305.739H169.911V308.898H160.23V305.739H162.897V294.03H160.23V290.854H162.897V288.056C162.897 286.408 163.301 285.068 164.109 284.038C164.929 283.008 166.136 282.493 167.729 282.493C169.045 282.493 170.102 282.842 170.898 283.54C171.707 284.227 172.221 285.263 172.44 286.648Z" fill="white"/>
<path d="M191.006 300.777H175.748C175.967 302.505 176.643 303.873 177.774 304.88C178.906 305.876 180.291 306.374 181.931 306.374C183.132 306.374 184.246 306.128 185.273 305.636C186.301 305.144 187.161 304.388 187.854 303.37L191.006 304.777C190.013 306.311 188.708 307.473 187.092 308.263C185.487 309.041 183.738 309.43 181.844 309.43C179.881 309.43 178.138 309.024 176.614 308.211C175.09 307.398 173.9 306.265 173.046 304.812C172.203 303.358 171.782 301.721 171.782 299.902C171.782 298.093 172.197 296.462 173.029 295.009C173.872 293.555 175.02 292.422 176.475 291.609C177.93 290.785 179.535 290.373 181.29 290.373C183.207 290.373 184.875 290.797 186.295 291.644C187.727 292.479 188.853 293.681 189.673 295.249C190.492 296.806 190.937 298.648 191.006 300.777ZM181.359 293.326C180.008 293.326 178.825 293.778 177.809 294.683C176.793 295.575 176.14 296.76 175.852 298.236H187.248C186.913 296.76 186.203 295.575 185.118 294.683C184.032 293.778 182.78 293.326 181.359 293.326Z" fill="white"/>
<path d="M212.932 300.777H197.674C197.894 302.505 198.569 303.873 199.7 304.88C200.832 305.876 202.218 306.374 203.857 306.374C205.058 306.374 206.172 306.128 207.2 305.636C208.227 305.144 209.088 304.388 209.78 303.37L212.932 304.777C211.939 306.311 210.635 307.473 209.018 308.263C207.413 309.041 205.664 309.43 203.771 309.43C201.808 309.43 200.064 309.024 198.54 308.211C197.016 307.398 195.827 306.265 194.972 304.812C194.129 303.358 193.708 301.721 193.708 299.902C193.708 298.093 194.124 296.462 194.955 295.009C195.798 293.555 196.947 292.422 198.402 291.609C199.856 290.785 201.461 290.373 203.216 290.373C205.133 290.373 206.801 290.797 208.222 291.644C209.653 292.479 210.779 293.681 211.599 295.249C212.419 296.806 212.863 298.648 212.932 300.777ZM203.286 293.326C201.935 293.326 200.751 293.778 199.735 294.683C198.719 295.575 198.067 296.76 197.778 298.236H209.174C208.839 296.76 208.129 295.575 207.044 294.683C205.959 293.778 204.706 293.326 203.286 293.326Z" fill="white"/>
<path d="M224.536 305.739V308.898H214.959V305.739H218.18V286.15H214.959V283.025H221.765V305.739H224.536Z" fill="white"/>
<path d="M247.692 291.627V290.854H250.81V296.846H247.692V295.747C246.653 294.271 245.233 293.532 243.432 293.532C242.485 293.532 241.711 293.738 241.111 294.15C240.511 294.562 240.21 295.095 240.21 295.747C240.21 296.331 240.436 296.789 240.886 297.12C241.348 297.452 242.375 297.744 243.969 297.996L246.376 298.46C249.967 299.112 251.762 300.857 251.762 303.696C251.762 305.355 251.11 306.689 249.805 307.696C248.512 308.703 246.792 309.207 244.644 309.207C243.79 309.207 242.947 309.087 242.115 308.846C241.296 308.594 240.609 308.285 240.054 307.919V308.898H236.868V302.717H240.054V303.335C240.228 304.205 240.713 304.903 241.509 305.43C242.318 305.956 243.253 306.22 244.315 306.22C245.481 306.22 246.399 306.019 247.069 305.619C247.738 305.207 248.073 304.6 248.073 303.799C248.073 303.215 247.808 302.78 247.277 302.494C246.746 302.196 245.677 301.893 244.073 301.584L242.219 301.189C240.384 300.823 239.038 300.194 238.184 299.301C237.33 298.408 236.902 297.269 236.902 295.884C236.902 294.763 237.214 293.807 237.838 293.017C238.473 292.216 239.281 291.615 240.262 291.215C241.244 290.814 242.254 290.614 243.293 290.614C245.037 290.614 246.503 290.951 247.692 291.627Z" fill="white"/>
<path d="M269.965 297.223V305.739H273.013V308.898H266.813V306.683C265.081 308.366 263.153 309.207 261.028 309.207C259.908 309.207 258.881 308.949 257.945 308.434C257.022 307.919 256.277 307.232 255.711 306.374C255.157 305.504 254.88 304.543 254.88 303.49C254.88 302.357 255.186 301.35 255.798 300.468C256.421 299.575 257.258 298.889 258.309 298.408C259.36 297.927 260.416 297.687 261.478 297.687C263.257 297.687 264.913 298.202 266.449 299.232V297.292C266.449 295.884 266.149 294.877 265.549 294.271C264.948 293.664 263.961 293.361 262.587 293.361C261.617 293.361 260.803 293.538 260.145 293.893C259.498 294.236 258.961 294.763 258.534 295.472L255.105 294.631C255.879 293.2 256.923 292.136 258.24 291.438C259.556 290.728 261.121 290.373 262.933 290.373C265.37 290.373 267.148 290.923 268.268 292.021C269.399 293.12 269.965 294.854 269.965 297.223ZM261.513 306.477C263.268 306.477 264.913 305.75 266.449 304.297V302.185C264.89 300.983 263.332 300.382 261.773 300.382C260.826 300.382 260.006 300.68 259.314 301.275C258.632 301.859 258.292 302.597 258.292 303.49C258.292 304.348 258.592 305.064 259.192 305.636C259.793 306.197 260.566 306.477 261.513 306.477Z" fill="white"/>
<path d="M286.921 286.648L283.734 287.129C283.63 285.961 283.18 285.377 282.383 285.377C281.817 285.377 281.436 285.578 281.24 285.978C281.055 286.379 280.963 287.094 280.963 288.124V290.854H284.08V294.03H280.963V305.739H284.392V308.898H274.71V305.739H277.378V294.03H274.71V290.854H277.378V288.056C277.378 286.408 277.782 285.068 278.59 284.038C279.41 283.008 280.616 282.493 282.21 282.493C283.526 282.493 284.582 282.842 285.379 283.54C286.187 284.227 286.701 285.263 286.921 286.648Z" fill="white"/>
<path d="M305.487 300.777H290.229C290.448 302.505 291.123 303.873 292.255 304.88C293.386 305.876 294.772 306.374 296.412 306.374C297.612 306.374 298.727 306.128 299.754 305.636C300.782 305.144 301.642 304.388 302.335 303.37L305.487 304.777C304.494 306.311 303.189 307.473 301.573 308.263C299.968 309.041 298.219 309.43 296.325 309.43C294.362 309.43 292.619 309.024 291.094 308.211C289.57 307.398 288.381 306.265 287.527 304.812C286.684 303.358 286.262 301.721 286.262 299.902C286.262 298.093 286.678 296.462 287.509 295.009C288.352 293.555 289.501 292.422 290.956 291.609C292.411 290.785 294.016 290.373 295.771 290.373C297.687 290.373 299.356 290.797 300.776 291.644C302.208 292.479 303.333 293.681 304.153 295.249C304.973 296.806 305.418 298.648 305.487 300.777ZM295.84 293.326C294.489 293.326 293.306 293.778 292.29 294.683C291.273 295.575 290.621 296.76 290.332 298.236H301.729C301.394 296.76 300.684 295.575 299.598 294.683C298.513 293.778 297.26 293.326 295.84 293.326Z" fill="white"/>
<path d="M333.319 297.223V305.739H336.367V308.898H330.167V306.683C328.435 308.366 326.507 309.207 324.382 309.207C323.262 309.207 322.235 308.949 321.299 308.434C320.376 307.919 319.631 307.232 319.065 306.374C318.511 305.504 318.234 304.543 318.234 303.49C318.234 302.357 318.54 301.35 319.152 300.468C319.775 299.575 320.612 298.889 321.663 298.408C322.714 297.927 323.77 297.687 324.833 297.687C326.611 297.687 328.268 298.202 329.803 299.232V297.292C329.803 295.884 329.503 294.877 328.903 294.271C328.302 293.664 327.315 293.361 325.941 293.361C324.971 293.361 324.157 293.538 323.499 293.893C322.852 294.236 322.315 294.763 321.888 295.472L318.459 294.631C319.233 293.2 320.278 292.136 321.594 291.438C322.91 290.728 324.475 290.373 326.287 290.373C328.724 290.373 330.502 290.923 331.622 292.021C332.753 293.12 333.319 294.854 333.319 297.223ZM324.867 306.477C326.622 306.477 328.268 305.75 329.803 304.297V302.185C328.244 300.983 326.686 300.382 325.127 300.382C324.18 300.382 323.36 300.68 322.668 301.275C321.986 301.859 321.646 302.597 321.646 303.49C321.646 304.348 321.946 305.064 322.546 305.636C323.147 306.197 323.92 306.477 324.867 306.477Z" fill="white"/>
<path d="M355.73 296.76V305.739H358.778V308.898H352.145V296.983C352.145 295.85 351.978 295.037 351.643 294.545C351.32 294.053 350.783 293.807 350.032 293.807C348.439 293.807 346.649 294.585 344.663 296.142V305.739H347.798V308.898H337.926V305.739H341.13V294.03H337.926V290.854H344.663V293.034C346.892 291.421 348.987 290.614 350.95 290.614C352.578 290.614 353.779 291.112 354.552 292.107C355.338 293.103 355.73 294.654 355.73 296.76Z" fill="white"/>
<path d="M383.077 305.739V308.898H376.236V306.254C374.412 308.222 372.235 309.207 369.707 309.207C367.952 309.207 366.399 308.8 365.048 307.988C363.709 307.164 362.664 306.048 361.913 304.64C361.174 303.232 360.805 301.676 360.805 299.97C360.805 298.231 361.197 296.628 361.982 295.163C362.779 293.698 363.876 292.537 365.273 291.678C366.67 290.808 368.183 290.373 369.811 290.373C370.988 290.373 372.103 290.608 373.153 291.077C374.216 291.546 375.243 292.285 376.236 293.292V286.15H372.72V283.025H379.787V305.739H383.077ZM370.382 306.048C371.491 306.048 372.489 305.756 373.379 305.172C374.268 304.589 374.966 303.81 375.474 302.837C375.982 301.865 376.236 300.823 376.236 299.713C376.236 298.591 375.982 297.567 375.474 296.64C374.966 295.713 374.262 294.98 373.361 294.442C372.461 293.904 371.445 293.635 370.313 293.635C369.216 293.635 368.235 293.927 367.369 294.511C366.514 295.083 365.839 295.85 365.342 296.811C364.846 297.761 364.598 298.78 364.598 299.867C364.598 301.035 364.852 302.088 365.36 303.026C365.868 303.965 366.561 304.703 367.438 305.241C368.316 305.779 369.297 306.048 370.382 306.048Z" fill="white"/>
<path d="M408.554 292.159V290.854H411.741V297.687H408.554C408.416 296.371 407.884 295.369 406.961 294.683C406.037 293.984 404.969 293.635 403.757 293.635C402.717 293.635 401.782 293.91 400.951 294.459C400.131 295.009 399.496 295.753 399.046 296.691C398.595 297.63 398.37 298.654 398.37 299.764C398.37 301.653 398.878 303.198 399.894 304.4C400.91 305.59 402.25 306.185 403.912 306.185C406.487 306.185 408.306 305.001 409.368 302.631L412.347 304.039C410.673 307.633 407.809 309.43 403.757 309.43C401.944 309.43 400.333 309.006 398.925 308.16C397.516 307.313 396.425 306.151 395.651 304.674C394.889 303.198 394.508 301.561 394.508 299.764C394.508 298.002 394.895 296.399 395.668 294.957C396.454 293.515 397.527 292.393 398.89 291.592C400.252 290.78 401.771 290.373 403.445 290.373C405.431 290.373 407.134 290.969 408.554 292.159Z" fill="white"/>
<path d="M433.684 299.902C433.684 301.653 433.263 303.255 432.42 304.709C431.577 306.162 430.428 307.313 428.974 308.16C427.519 309.006 425.908 309.43 424.141 309.43C422.317 309.43 420.672 309.006 419.205 308.16C417.739 307.313 416.596 306.162 415.776 304.709C414.968 303.255 414.564 301.653 414.564 299.902C414.564 298.07 414.968 296.434 415.776 294.992C416.596 293.549 417.733 292.422 419.188 291.609C420.643 290.785 422.294 290.373 424.141 290.373C425.931 290.373 427.553 290.808 429.008 291.678C430.463 292.537 431.606 293.693 432.437 295.146C433.269 296.6 433.684 298.185 433.684 299.902ZM424.141 305.979C425.204 305.979 426.179 305.704 427.068 305.155C427.957 304.606 428.65 303.867 429.147 302.94C429.643 302.013 429.891 301 429.891 299.902C429.891 298.826 429.643 297.824 429.147 296.897C428.65 295.97 427.957 295.226 427.068 294.665C426.179 294.093 425.192 293.807 424.107 293.807C423.045 293.807 422.069 294.087 421.18 294.648C420.291 295.198 419.592 295.942 419.084 296.88C418.576 297.819 418.322 298.826 418.322 299.902C418.322 300.978 418.576 301.985 419.084 302.923C419.592 303.862 420.297 304.606 421.197 305.155C422.098 305.704 423.079 305.979 424.141 305.979Z" fill="white"/>
<path d="M439.123 305.739V294.03H436.057V290.854H442.69V293.137C444.826 291.455 446.922 290.614 448.977 290.614C451.079 290.614 452.522 291.552 453.307 293.429C455.64 291.552 457.839 290.614 459.906 290.614C461.372 290.614 462.538 291.043 463.404 291.901C464.282 292.76 464.721 294.076 464.721 295.85V305.739H467.907V308.898H461.17V297.464C461.17 296.674 461.13 296.033 461.049 295.541C460.968 295.049 460.754 294.631 460.408 294.288C460.073 293.944 459.536 293.773 458.797 293.773C458.139 293.773 457.371 293.967 456.494 294.356C455.616 294.745 454.693 295.329 453.723 296.107V305.739H456.806V308.898H450.138V297.017C450.138 295.861 449.959 295.032 449.601 294.528C449.254 294.024 448.677 293.773 447.869 293.773C446.553 293.773 444.826 294.551 442.69 296.107V305.739H445.895V308.898H435.849V305.739H439.123Z" fill="white"/>
<path d="M481.694 286.648L478.507 287.129C478.403 285.961 477.953 285.377 477.156 285.377C476.59 285.377 476.209 285.578 476.013 285.978C475.828 286.379 475.736 287.094 475.736 288.124V290.854H478.853V294.03H475.736V305.739H479.165V308.898H469.483V305.739H472.151V294.03H469.483V290.854H472.151V288.056C472.151 286.408 472.555 285.068 473.363 284.038C474.183 283.008 475.389 282.493 476.983 282.493C478.299 282.493 479.355 282.842 480.152 283.54C480.96 284.227 481.474 285.263 481.694 286.648Z" fill="white"/>
<path d="M500.156 299.902C500.156 301.653 499.734 303.255 498.892 304.709C498.049 306.162 496.9 307.313 495.445 308.16C493.99 309.006 492.38 309.43 490.613 309.43C488.789 309.43 487.143 309.006 485.677 308.16C484.211 307.313 483.068 306.162 482.248 304.709C481.44 303.255 481.035 301.653 481.035 299.902C481.035 298.07 481.44 296.434 482.248 294.992C483.068 293.549 484.205 292.422 485.66 291.609C487.114 290.785 488.766 290.373 490.613 290.373C492.403 290.373 494.025 290.808 495.48 291.678C496.935 292.537 498.078 293.693 498.909 295.146C499.74 296.6 500.156 298.185 500.156 299.902ZM490.613 305.979C491.675 305.979 492.651 305.704 493.54 305.155C494.429 304.606 495.122 303.867 495.618 302.94C496.115 302.013 496.363 301 496.363 299.902C496.363 298.826 496.115 297.824 495.618 296.897C495.122 295.97 494.429 295.226 493.54 294.665C492.651 294.093 491.664 293.807 490.578 293.807C489.516 293.807 488.54 294.087 487.651 294.648C486.762 295.198 486.064 295.942 485.556 296.88C485.048 297.819 484.794 298.826 484.794 299.902C484.794 300.978 485.048 301.985 485.556 302.923C486.064 303.862 486.768 304.606 487.669 305.155C488.569 305.704 489.551 305.979 490.613 305.979Z" fill="white"/>
<path d="M509.491 301.653V305.739H513.457V308.898H502.286V305.739H505.941V294.03H502.286V290.854H508.781V294.94C509.508 293.326 510.409 292.205 511.483 291.575C512.568 290.934 514.115 290.614 516.124 290.614H516.938V294.202H516.159C514.219 294.202 512.776 294.454 511.829 294.957C510.882 295.461 510.253 296.222 509.941 297.241C509.641 298.259 509.491 299.73 509.491 301.653Z" fill="white"/>
<path d="M528.04 290.854V294.03H524.715V303.49C524.715 304.474 524.819 305.115 525.026 305.413C525.246 305.699 525.615 305.842 526.135 305.842C526.77 305.842 527.405 305.733 528.04 305.516V308.726C526.932 309.047 526.037 309.207 525.356 309.207C523.854 309.207 522.775 308.835 522.117 308.091C521.459 307.335 521.13 306.048 521.13 304.228V294.03H518.757V290.854H521.13V288.124L524.715 284.88V290.854H528.04Z" fill="white"/>
<path d="M546 297.223V305.739H549.048V308.898H542.848V306.683C541.116 308.366 539.188 309.207 537.063 309.207C535.943 309.207 534.916 308.949 533.981 308.434C533.057 307.919 532.312 307.232 531.746 306.374C531.192 305.504 530.915 304.543 530.915 303.49C530.915 302.357 531.221 301.35 531.833 300.468C532.456 299.575 533.294 298.889 534.344 298.408C535.395 297.927 536.451 297.687 537.514 297.687C539.292 297.687 540.949 298.202 542.484 299.232V297.292C542.484 295.884 542.184 294.877 541.584 294.271C540.983 293.664 539.996 293.361 538.622 293.361C537.652 293.361 536.838 293.538 536.18 293.893C535.533 294.236 534.997 294.763 534.569 295.472L531.14 294.631C531.914 293.2 532.959 292.136 534.275 291.438C535.591 290.728 537.156 290.373 538.968 290.373C541.405 290.373 543.183 290.923 544.303 292.021C545.434 293.12 546 294.854 546 297.223ZM537.548 306.477C539.303 306.477 540.949 305.75 542.484 304.297V302.185C540.926 300.983 539.367 300.382 537.808 300.382C536.861 300.382 536.042 300.68 535.349 301.275C534.668 301.859 534.327 302.597 534.327 303.49C534.327 304.348 534.627 305.064 535.228 305.636C535.828 306.197 536.602 306.477 537.548 306.477Z" fill="white"/>
<path d="M563.735 290.373C565.409 290.373 566.922 290.797 568.273 291.644C569.624 292.479 570.674 293.612 571.425 295.043C572.187 296.474 572.568 298.019 572.568 299.678C572.568 301.395 572.181 302.98 571.408 304.434C570.646 305.888 569.589 307.049 568.238 307.919C566.887 308.778 565.375 309.207 563.7 309.207C562.373 309.207 561.108 308.938 559.908 308.4C558.718 307.862 557.783 307.124 557.102 306.185V308.898H550.399V305.739H553.621V286.15H550.399V283.025H557.102V293.429C558.926 291.392 561.137 290.373 563.735 290.373ZM562.99 306.048C564.122 306.048 565.132 305.745 566.021 305.138C566.91 304.531 567.597 303.736 568.082 302.752C568.567 301.767 568.81 300.72 568.81 299.61C568.81 298.511 568.561 297.504 568.065 296.588C567.568 295.673 566.881 294.946 566.004 294.408C565.126 293.87 564.133 293.601 563.025 293.601C561.917 293.601 560.924 293.881 560.046 294.442C559.169 295.003 558.482 295.764 557.985 296.726C557.489 297.687 557.24 298.757 557.24 299.936C557.24 301.058 557.494 302.088 558.002 303.026C558.51 303.965 559.203 304.703 560.081 305.241C560.958 305.779 561.928 306.048 562.99 306.048Z" fill="white"/>
<path d="M584.189 305.739V308.898H574.612V305.739H577.833V286.15H574.612V283.025H581.418V305.739H584.189Z" fill="white"/>
<path d="M605.908 300.777H590.649C590.869 302.505 591.544 303.873 592.676 304.88C593.807 305.876 595.193 306.374 596.832 306.374C598.033 306.374 599.147 306.128 600.175 305.636C601.203 305.144 602.063 304.388 602.756 303.37L605.908 304.777C604.915 306.311 603.61 307.473 601.993 308.263C600.389 309.041 598.639 309.43 596.746 309.43C594.783 309.43 593.039 309.024 591.515 308.211C589.991 307.398 588.802 306.265 587.947 304.812C587.105 303.358 586.683 301.721 586.683 299.902C586.683 298.093 587.099 296.462 587.93 295.009C588.773 293.555 589.922 292.422 591.377 291.609C592.832 290.785 594.436 290.373 596.191 290.373C598.108 290.373 599.777 290.797 601.197 291.644C602.629 292.479 603.754 293.681 604.574 295.249C605.394 296.806 605.838 298.648 605.908 300.777ZM596.261 293.326C594.91 293.326 593.726 293.778 592.71 294.683C591.694 295.575 591.042 296.76 590.753 298.236H602.149C601.814 296.76 601.104 295.575 600.019 294.683C598.934 293.778 597.681 293.326 596.261 293.326Z" fill="white"/>
<path d="M624.872 301.653V305.739H628.838V308.898H617.667V305.739H621.322V294.03H617.667V290.854H624.162V294.94C624.89 293.326 625.79 292.205 626.864 291.575C627.949 290.934 629.497 290.614 631.506 290.614H632.32V294.202H631.54C629.6 294.202 628.157 294.454 627.21 294.957C626.264 295.461 625.634 296.222 625.323 297.241C625.022 298.259 624.872 299.73 624.872 301.653Z" fill="white"/>
<path d="M640.477 284.777C640.477 285.36 640.263 285.864 639.836 286.287C639.409 286.711 638.901 286.923 638.312 286.923C637.723 286.923 637.221 286.711 636.805 286.287C636.39 285.864 636.182 285.36 636.182 284.777C636.182 284.193 636.39 283.689 636.805 283.266C637.221 282.842 637.723 282.631 638.312 282.631C638.924 282.631 639.438 282.837 639.853 283.249C640.269 283.661 640.477 284.17 640.477 284.777ZM643.04 305.739V308.898H633.844V305.739H636.684V294.03H633.844V290.854H640.269V305.739H643.04Z" fill="white"/>
<path d="M667.46 305.739V308.898H660.619V306.254C658.795 308.222 656.619 309.207 654.09 309.207C652.335 309.207 650.782 308.8 649.431 307.988C648.092 307.164 647.047 306.048 646.296 304.64C645.557 303.232 645.188 301.676 645.188 299.97C645.188 298.231 645.58 296.628 646.366 295.163C647.162 293.698 648.259 292.537 649.656 291.678C651.053 290.808 652.566 290.373 654.194 290.373C655.372 290.373 656.486 290.608 657.536 291.077C658.599 291.546 659.626 292.285 660.619 293.292V286.15H657.104V283.025H664.17V305.739H667.46ZM654.765 306.048C655.874 306.048 656.873 305.756 657.762 305.172C658.651 304.589 659.349 303.81 659.857 302.837C660.365 301.865 660.619 300.823 660.619 299.713C660.619 298.591 660.365 297.567 659.857 296.64C659.349 295.713 658.645 294.98 657.744 294.442C656.844 293.904 655.828 293.635 654.696 293.635C653.599 293.635 652.618 293.927 651.752 294.511C650.897 295.083 650.222 295.85 649.725 296.811C649.229 297.761 648.981 298.78 648.981 299.867C648.981 301.035 649.235 302.088 649.743 303.026C650.251 303.965 650.944 304.703 651.821 305.241C652.699 305.779 653.68 306.048 654.765 306.048Z" fill="white"/>
<path d="M675.427 284.777C675.427 285.36 675.214 285.864 674.787 286.287C674.359 286.711 673.851 286.923 673.262 286.923C672.674 286.923 672.171 286.711 671.756 286.287C671.34 285.864 671.132 285.36 671.132 284.777C671.132 284.193 671.34 283.689 671.756 283.266C672.171 282.842 672.674 282.631 673.262 282.631C673.874 282.631 674.388 282.837 674.804 283.249C675.22 283.661 675.427 284.17 675.427 284.777ZM677.991 305.739V308.898H668.794V305.739H671.634V294.03H668.794V290.854H675.22V305.739H677.991Z" fill="white"/>
<path d="M697.475 296.76V305.739H700.523V308.898H693.89V296.983C693.89 295.85 693.722 295.037 693.387 294.545C693.064 294.053 692.527 293.807 691.777 293.807C690.183 293.807 688.394 294.585 686.408 296.142V305.739H689.543V308.898H679.671V305.739H682.875V294.03H679.671V290.854H686.408V293.034C688.636 291.421 690.732 290.614 692.695 290.614C694.323 290.614 695.524 291.112 696.297 292.107C697.082 293.103 697.475 294.654 697.475 296.76Z" fill="white"/>
<path d="M717.981 293.464V290.854H724.822V294.03H721.531V307.559C721.531 310.706 720.729 313.133 719.124 314.838C717.531 316.555 715.198 317.413 712.127 317.413C709.217 317.413 706.735 316.601 704.68 314.975L706.983 312.417C707.814 313.024 708.646 313.476 709.477 313.774C710.32 314.083 711.238 314.237 712.231 314.237C714.032 314.237 715.441 313.682 716.457 312.572C717.473 311.462 717.981 309.991 717.981 308.16V306.477C717.196 307.393 716.197 308.114 714.985 308.64C713.784 309.167 712.583 309.43 711.382 309.43C709.696 309.43 708.178 309.006 706.827 308.16C705.488 307.313 704.437 306.191 703.675 304.795C702.925 303.387 702.549 301.847 702.549 300.176C702.549 298.471 702.942 296.886 703.727 295.421C704.524 293.956 705.609 292.788 706.983 291.918C708.357 291.049 709.881 290.614 711.555 290.614C712.756 290.614 713.876 290.848 714.915 291.318C715.966 291.787 716.988 292.502 717.981 293.464ZM712.058 306.254C713.189 306.254 714.211 305.973 715.123 305.413C716.035 304.852 716.745 304.096 717.253 303.146C717.762 302.196 718.016 301.172 718.016 300.073C718.016 299.043 717.762 298.053 717.253 297.103C716.745 296.153 716.041 295.386 715.141 294.803C714.24 294.219 713.235 293.927 712.127 293.927C711.042 293.927 710.054 294.208 709.165 294.768C708.276 295.329 707.584 296.085 707.087 297.035C706.591 297.985 706.342 299.009 706.342 300.108C706.342 301.229 706.579 302.259 707.052 303.198C707.526 304.136 708.195 304.88 709.061 305.43C709.939 305.979 710.938 306.254 712.058 306.254Z" fill="white"/>
<path d="M745.363 290.854V294.03H742.037V303.49C742.037 304.474 742.141 305.115 742.349 305.413C742.569 305.699 742.938 305.842 743.458 305.842C744.093 305.842 744.728 305.733 745.363 305.516V308.726C744.254 309.047 743.359 309.207 742.678 309.207C741.177 309.207 740.098 308.835 739.44 308.091C738.781 307.335 738.452 306.048 738.452 304.228V294.03H736.08V290.854H738.452V288.124L742.037 284.88V290.854H745.363Z" fill="white"/>
<path d="M759.946 290.373C763.329 290.373 765.02 292.187 765.02 295.816V305.739H768.103V308.898H761.435V297.086C761.435 295.793 761.245 294.883 760.864 294.356C760.494 293.83 759.917 293.567 759.132 293.567C757.804 293.567 756.078 294.339 753.953 295.884V305.739H757.105V308.898H747.112V305.739H750.368V286.15H747.112V283.025H753.953V292.966C756.101 291.237 758.098 290.373 759.946 290.373Z" fill="white"/>
<path d="M789.319 300.777H774.061C774.28 302.505 774.956 303.873 776.087 304.88C777.219 305.876 778.604 306.374 780.244 306.374C781.445 306.374 782.559 306.128 783.586 305.636C784.614 305.144 785.474 304.388 786.167 303.37L789.319 304.777C788.326 306.311 787.021 307.473 785.405 308.263C783.8 309.041 782.051 309.43 780.157 309.43C778.194 309.43 776.451 309.024 774.927 308.211C773.403 307.398 772.213 306.265 771.359 304.812C770.516 303.358 770.095 301.721 770.095 299.902C770.095 298.093 770.51 296.462 771.342 295.009C772.185 293.555 773.333 292.422 774.788 291.609C776.243 290.785 777.848 290.373 779.603 290.373C781.52 290.373 783.188 290.797 784.608 291.644C786.04 292.479 787.166 293.681 787.986 295.249C788.805 296.806 789.25 298.648 789.319 300.777ZM779.672 293.326C778.321 293.326 777.138 293.778 776.122 294.683C775.106 295.575 774.453 296.76 774.165 298.236H785.561C785.226 296.76 784.516 295.575 783.431 294.683C782.345 293.778 781.092 293.326 779.672 293.326Z" fill="white"/>
<path d="M814.311 290.373C815.985 290.373 817.498 290.797 818.849 291.644C820.199 292.479 821.25 293.612 822.001 295.043C822.763 296.474 823.144 298.019 823.144 299.678C823.144 301.395 822.757 302.98 821.983 304.434C821.221 305.888 820.165 307.049 818.814 307.919C817.463 308.778 815.95 309.207 814.276 309.207C812.948 309.207 811.684 308.938 810.483 308.4C809.294 307.862 808.359 307.124 807.678 306.185V308.898H800.975V305.739H804.196V286.15H800.975V283.025H807.678V293.429C809.502 291.392 811.713 290.373 814.311 290.373ZM813.566 306.048C814.698 306.048 815.708 305.745 816.597 305.138C817.486 304.531 818.173 303.736 818.658 302.752C819.143 301.767 819.385 300.72 819.385 299.61C819.385 298.511 819.137 297.504 818.641 296.588C818.144 295.673 817.457 294.946 816.58 294.408C815.702 293.87 814.709 293.601 813.601 293.601C812.492 293.601 811.499 293.881 810.622 294.442C809.744 295.003 809.057 295.764 808.561 296.726C808.064 297.687 807.816 298.757 807.816 299.936C807.816 301.058 808.07 302.088 808.578 303.026C809.086 303.965 809.779 304.703 810.657 305.241C811.534 305.779 812.504 306.048 813.566 306.048Z" fill="white"/>
<path d="M834.02 306.117C835.625 306.117 837.363 305.344 839.233 303.799V294.03H836.012V290.854H842.818V305.739H845.936V308.898H839.233V306.82C837.132 308.411 835.134 309.207 833.241 309.207C831.532 309.207 830.268 308.703 829.448 307.696C828.64 306.689 828.236 305.018 828.236 302.683V294.03H825.69V290.854H831.821V303.421C831.821 304.348 831.988 305.029 832.323 305.464C832.669 305.899 833.235 306.117 834.02 306.117Z" fill="white"/>
<path d="M859.099 291.627V290.854H862.216V296.846H859.099V295.747C858.059 294.271 856.639 293.532 854.838 293.532C853.891 293.532 853.118 293.738 852.517 294.15C851.917 294.562 851.617 295.095 851.617 295.747C851.617 296.331 851.842 296.789 852.292 297.12C852.754 297.452 853.782 297.744 855.375 297.996L857.782 298.46C861.373 299.112 863.169 300.857 863.169 303.696C863.169 305.355 862.516 306.689 861.212 307.696C859.918 308.703 858.198 309.207 856.05 309.207C855.196 309.207 854.353 309.087 853.522 308.846C852.702 308.594 852.015 308.285 851.461 307.919V308.898H848.274V302.717H851.461V303.335C851.634 304.205 852.119 304.903 852.916 305.43C853.724 305.956 854.659 306.22 855.721 306.22C856.888 306.22 857.805 306.019 858.475 305.619C859.145 305.207 859.48 304.6 859.48 303.799C859.48 303.215 859.214 302.78 858.683 302.494C858.152 302.196 857.084 301.893 855.479 301.584L853.626 301.189C851.79 300.823 850.445 300.194 849.59 299.301C848.736 298.408 848.309 297.269 848.309 295.884C848.309 294.763 848.62 293.807 849.244 293.017C849.879 292.216 850.687 291.615 851.669 291.215C852.65 290.814 853.66 290.614 854.7 290.614C856.443 290.614 857.909 290.951 859.099 291.627Z" fill="white"/>
<path d="M83.9911 318.706H45.2261L57.1685 306.388C60.3191 303.129 62.7885 300.377 64.5767 298.133C66.3648 295.848 67.6847 293.921 68.5362 292.355C69.4303 290.789 69.9838 289.519 70.1967 288.545C70.4095 287.572 70.516 286.746 70.516 286.069C70.516 285.349 70.3882 284.651 70.1328 283.974C69.9199 283.296 69.5793 282.704 69.111 282.196C68.6426 281.645 68.0679 281.222 67.3867 280.926C66.748 280.587 65.9817 280.418 65.0876 280.418C63.3846 280.418 62.0434 280.968 61.0642 282.069C60.1275 283.169 59.6592 284.545 59.6592 286.196C59.6592 286.662 59.7231 287.339 59.8508 288.228H46.184C46.184 285.434 46.6311 282.894 47.5252 280.608C48.4618 278.322 49.7604 276.354 51.4208 274.703C53.0813 273.052 55.0397 271.782 57.2963 270.893C59.5953 270.004 62.1073 269.56 64.8321 269.56C67.5144 269.56 69.9838 269.983 72.2403 270.83C74.5394 271.676 76.5191 272.862 78.1796 274.386C79.84 275.91 81.1386 277.73 82.0752 279.846C83.0119 281.921 83.4802 284.185 83.4802 286.641C83.4802 289.265 82.9055 291.699 81.7559 293.943C80.649 296.144 78.8608 298.409 76.3914 300.737L68.4085 308.166H83.9911V318.706Z" fill="white"/>
<path d="M856.63 530.813H63.4564C28.571 530.813 0 501.989 0 466.793C0 431.535 28.571 402.773 63.4564 402.773H856.568C891.515 402.773 920.024 431.598 920.024 466.793C920.086 501.989 891.515 530.813 856.63 530.813Z" fill="#235387"/>
<path d="M129.02 461.912V455.68H123.638V475.097H127.03V478.325H116.37V475.097H119.692V455.68H114.345V461.912H111.126V452.452H132.239V461.912H129.02Z" fill="white"/>
<path d="M152.07 469.329C152.07 471.08 151.649 472.682 150.807 474.136C149.965 475.589 148.817 476.74 147.363 477.587C145.91 478.434 144.3 478.857 142.535 478.857C140.712 478.857 139.068 478.434 137.603 477.587C136.138 476.74 134.996 475.589 134.177 474.136C133.369 472.682 132.965 471.08 132.965 469.329C132.965 467.497 133.369 465.861 134.177 464.419C134.996 462.976 136.132 461.849 137.586 461.036C139.039 460.212 140.689 459.8 142.535 459.8C144.323 459.8 145.944 460.235 147.398 461.105C148.851 461.964 149.994 463.12 150.824 464.573C151.655 466.027 152.07 467.612 152.07 469.329ZM142.535 475.406C143.596 475.406 144.571 475.132 145.46 474.582C146.348 474.033 147.04 473.295 147.536 472.367C148.032 471.44 148.28 470.427 148.28 469.329C148.28 468.253 148.032 467.251 147.536 466.324C147.04 465.397 146.348 464.653 145.46 464.092C144.571 463.52 143.585 463.234 142.5 463.234C141.439 463.234 140.464 463.514 139.576 464.075C138.688 464.625 137.99 465.369 137.482 466.307C136.974 467.246 136.721 468.253 136.721 469.329C136.721 470.405 136.974 471.412 137.482 472.35C137.99 473.289 138.693 474.033 139.593 474.582C140.493 475.132 141.474 475.406 142.535 475.406Z" fill="white"/>
<path d="M177.041 459.8C178.714 459.8 180.225 460.224 181.575 461.071C182.925 461.906 183.975 463.039 184.725 464.47C185.486 465.901 185.867 467.446 185.867 469.105C185.867 470.822 185.48 472.407 184.707 473.861C183.946 475.315 182.89 476.476 181.541 477.346C180.191 478.205 178.68 478.634 177.007 478.634C175.68 478.634 174.417 478.365 173.217 477.827C172.029 477.289 171.094 476.551 170.414 475.612V478.325H163.716V475.166H166.935V455.577H163.716V452.452H170.414V462.856C172.236 460.819 174.446 459.8 177.041 459.8ZM176.297 475.475C177.428 475.475 178.437 475.172 179.326 474.565C180.214 473.958 180.9 473.163 181.385 472.179C181.869 471.194 182.112 470.147 182.112 469.037C182.112 467.938 181.864 466.931 181.368 466.015C180.872 465.1 180.185 464.373 179.308 463.835C178.432 463.297 177.439 463.028 176.332 463.028C175.224 463.028 174.232 463.308 173.355 463.869C172.479 464.43 171.792 465.191 171.296 466.153C170.8 467.114 170.552 468.184 170.552 469.363C170.552 470.485 170.806 471.515 171.313 472.453C171.821 473.392 172.513 474.13 173.39 474.668C174.267 475.206 175.236 475.475 176.297 475.475Z" fill="white"/>
<path d="M207.792 470.204H192.547C192.766 471.933 193.441 473.3 194.571 474.307C195.702 475.303 197.086 475.801 198.725 475.801C199.924 475.801 201.038 475.555 202.064 475.063C203.091 474.571 203.951 473.815 204.643 472.797L207.792 474.204C206.8 475.738 205.497 476.9 203.881 477.69C202.278 478.468 200.53 478.857 198.638 478.857C196.677 478.857 194.935 478.451 193.412 477.638C191.889 476.825 190.701 475.692 189.847 474.239C189.005 472.785 188.584 471.148 188.584 469.329C188.584 467.52 188.999 465.889 189.83 464.436C190.672 462.982 191.82 461.849 193.273 461.036C194.727 460.212 196.331 459.8 198.084 459.8C199.999 459.8 201.666 460.224 203.085 461.071C204.516 461.906 205.641 463.108 206.46 464.676C207.279 466.233 207.723 468.075 207.792 470.204ZM198.153 462.753C196.804 462.753 195.621 463.205 194.606 464.11C193.591 465.002 192.939 466.187 192.65 467.663H204.037C203.703 466.187 202.993 465.002 201.909 464.11C200.824 463.205 199.573 462.753 198.153 462.753Z" fill="white"/>
<path d="M239.322 470.204H224.076C224.296 471.933 224.971 473.3 226.101 474.307C227.232 475.303 228.616 475.801 230.254 475.801C231.454 475.801 232.567 475.555 233.594 475.063C234.621 474.571 235.48 473.815 236.173 472.797L239.322 474.204C238.33 475.738 237.026 476.9 235.411 477.69C233.808 478.468 232.06 478.857 230.168 478.857C228.207 478.857 226.465 478.451 224.942 477.638C223.419 476.825 222.231 475.692 221.377 474.239C220.535 472.785 220.114 471.148 220.114 469.329C220.114 467.52 220.529 465.889 221.36 464.436C222.202 462.982 223.35 461.849 224.803 461.036C226.257 460.212 227.86 459.8 229.614 459.8C231.529 459.8 233.196 460.224 234.615 461.071C236.046 461.906 237.171 463.108 237.99 464.676C238.809 466.233 239.253 468.075 239.322 470.204ZM229.683 462.753C228.333 462.753 227.151 463.205 226.136 464.11C225.121 465.002 224.469 466.187 224.18 467.663H235.567C235.232 466.187 234.523 465.002 233.438 464.11C232.354 463.205 231.102 462.753 229.683 462.753Z" fill="white"/>
<path d="M259.344 466.187V475.166H262.39V478.325H255.762V466.41C255.762 465.277 255.595 464.464 255.26 463.972C254.937 463.48 254.401 463.234 253.651 463.234C252.059 463.234 250.271 464.012 248.286 465.569V475.166H251.418V478.325H241.555V475.166H244.756V463.457H241.555V460.281H248.286V462.461C250.513 460.848 252.607 460.041 254.568 460.041C256.195 460.041 257.394 460.539 258.167 461.534C258.952 462.53 259.344 464.081 259.344 466.187Z" fill="white"/>
<path d="M273.517 460.281V463.457H270.194V472.917C270.194 473.901 270.298 474.542 270.506 474.84C270.725 475.126 271.094 475.269 271.613 475.269C272.248 475.269 272.882 475.16 273.517 474.943V478.153C272.409 478.474 271.515 478.634 270.835 478.634C269.335 478.634 268.256 478.262 267.599 477.518C266.941 476.762 266.612 475.475 266.612 473.655V463.457H264.241V460.281H266.612V457.551L270.194 454.307V460.281H273.517Z" fill="white"/>
<path d="M295.183 470.204H279.937C280.156 471.933 280.831 473.3 281.962 474.307C283.092 475.303 284.477 475.801 286.115 475.801C287.315 475.801 288.428 475.555 289.455 475.063C290.482 474.571 291.341 473.815 292.033 472.797L295.183 474.204C294.191 475.738 292.887 476.9 291.272 477.69C289.668 478.468 287.92 478.857 286.028 478.857C284.067 478.857 282.325 478.451 280.802 477.638C279.28 476.825 278.091 475.692 277.238 474.239C276.395 472.785 275.974 471.148 275.974 469.329C275.974 467.52 276.39 465.889 277.22 464.436C278.062 462.982 279.21 461.849 280.664 461.036C282.118 460.212 283.721 459.8 285.475 459.8C287.39 459.8 289.057 460.224 290.476 461.071C291.906 461.906 293.031 463.108 293.85 464.676C294.669 466.233 295.114 468.075 295.183 470.204ZM285.544 462.753C284.194 462.753 283.012 463.205 281.996 464.11C280.981 465.002 280.329 466.187 280.041 467.663H291.428C291.093 466.187 290.384 465.002 289.299 464.11C288.215 463.205 286.963 462.753 285.544 462.753Z" fill="white"/>
<path d="M304.51 471.08V475.166H308.473V478.325H297.311V475.166H300.963V463.457H297.311V460.281H303.801V464.367C304.528 462.753 305.427 461.632 306.5 461.002C307.585 460.361 309.131 460.041 311.138 460.041H311.951V463.629H311.173C309.235 463.629 307.792 463.881 306.846 464.384C305.9 464.888 305.272 465.649 304.96 466.668C304.66 467.686 304.51 469.157 304.51 471.08Z" fill="white"/>
<path d="M329.43 466.65V475.166H332.475V478.325H326.28V476.11C324.549 477.793 322.623 478.634 320.5 478.634C319.381 478.634 318.354 478.376 317.42 477.861C316.497 477.346 315.753 476.659 315.187 475.801C314.634 474.931 314.357 473.97 314.357 472.917C314.357 471.784 314.663 470.777 315.274 469.895C315.897 469.002 316.733 468.316 317.783 467.835C318.833 467.354 319.889 467.114 320.95 467.114C322.727 467.114 324.382 467.629 325.917 468.659V466.719C325.917 465.311 325.617 464.304 325.017 463.698C324.417 463.091 323.43 462.788 322.058 462.788C321.088 462.788 320.275 462.965 319.618 463.32C318.972 463.663 318.435 464.19 318.008 464.899L314.582 464.058C315.355 462.627 316.399 461.563 317.714 460.865C319.029 460.155 320.592 459.8 322.404 459.8C324.838 459.8 326.615 460.35 327.734 461.448C328.864 462.547 329.43 464.281 329.43 466.65ZM320.985 475.904C322.738 475.904 324.382 475.177 325.917 473.724V471.612C324.359 470.41 322.802 469.809 321.244 469.809C320.298 469.809 319.479 470.107 318.787 470.702C318.106 471.286 317.766 472.024 317.766 472.917C317.766 473.775 318.066 474.491 318.666 475.063C319.266 475.624 320.039 475.904 320.985 475.904Z" fill="white"/>
<path d="M343.602 460.281V463.457H340.28V472.917C340.28 473.901 340.384 474.542 340.591 474.84C340.81 475.126 341.18 475.269 341.699 475.269C342.333 475.269 342.968 475.16 343.602 474.943V478.153C342.495 478.474 341.601 478.634 340.92 478.634C339.42 478.634 338.342 478.262 337.684 477.518C337.026 476.762 336.698 475.475 336.698 473.655V463.457H334.327V460.281H336.698V457.551L340.28 454.307V460.281H343.602Z" fill="white"/>
<path d="M352.22 454.204C352.22 454.787 352.007 455.291 351.58 455.714C351.153 456.138 350.645 456.35 350.057 456.35C349.469 456.35 348.967 456.138 348.552 455.714C348.136 455.291 347.929 454.787 347.929 454.204C347.929 453.62 348.136 453.116 348.552 452.693C348.967 452.269 349.469 452.058 350.057 452.058C350.669 452.058 351.182 452.264 351.597 452.676C352.013 453.088 352.22 453.597 352.22 454.204ZM354.781 475.166V478.325H345.592V475.166H348.43V463.457H345.592V460.281H352.013V475.166H354.781Z" fill="white"/>
<path d="M374.25 466.187V475.166H377.295V478.325H370.667V466.41C370.667 465.277 370.5 464.464 370.166 463.972C369.843 463.48 369.306 463.234 368.556 463.234C366.964 463.234 365.176 464.012 363.192 465.569V475.166H366.324V478.325H356.46V475.166H359.661V463.457H356.46V460.281H363.192V462.461C365.418 460.848 367.512 460.041 369.473 460.041C371.1 460.041 372.3 460.539 373.073 461.534C373.857 462.53 374.25 464.081 374.25 466.187Z" fill="white"/>
<path d="M398.529 470.204H383.283C383.502 471.933 384.177 473.3 385.307 474.307C386.438 475.303 387.822 475.801 389.461 475.801C390.661 475.801 391.774 475.555 392.801 475.063C393.827 474.571 394.687 473.815 395.379 472.797L398.529 474.204C397.536 475.738 396.233 476.9 394.618 477.69C393.014 478.468 391.266 478.857 389.374 478.857C387.413 478.857 385.671 478.451 384.148 477.638C382.625 476.825 381.437 475.692 380.583 474.239C379.741 472.785 379.32 471.148 379.32 469.329C379.32 467.52 379.735 465.889 380.566 464.436C381.408 462.982 382.556 461.849 384.01 461.036C385.463 460.212 387.067 459.8 388.82 459.8C390.735 459.8 392.403 460.224 393.822 461.071C395.252 461.906 396.377 463.108 397.196 464.676C398.015 466.233 398.459 468.075 398.529 470.204ZM388.89 462.753C387.54 462.753 386.357 463.205 385.342 464.11C384.327 465.002 383.675 466.187 383.387 467.663H394.773C394.439 466.187 393.729 465.002 392.645 464.11C391.56 463.205 390.309 462.753 388.89 462.753Z" fill="white"/>
<path d="M423.482 475.166V478.325H416.647V475.681C414.824 477.649 412.649 478.634 410.123 478.634C408.369 478.634 406.818 478.227 405.468 477.415C404.13 476.591 403.086 475.475 402.336 474.067C401.597 472.659 401.228 471.103 401.228 469.397C401.228 467.658 401.62 466.055 402.405 464.59C403.201 463.125 404.297 461.964 405.693 461.105C407.089 460.235 408.6 459.8 410.227 459.8C411.403 459.8 412.517 460.035 413.567 460.504C414.628 460.974 415.655 461.712 416.647 462.719V455.577H413.134V452.452H420.194V475.166H423.482ZM410.798 475.475C411.905 475.475 412.903 475.183 413.792 474.599C414.68 474.016 415.378 473.237 415.885 472.264C416.393 471.292 416.647 470.25 416.647 469.14C416.647 468.018 416.393 466.994 415.885 466.067C415.378 465.14 414.674 464.407 413.774 463.869C412.874 463.331 411.859 463.062 410.729 463.062C409.633 463.062 408.652 463.354 407.787 463.938C406.933 464.51 406.258 465.277 405.762 466.238C405.266 467.188 405.018 468.207 405.018 469.294C405.018 470.462 405.272 471.515 405.779 472.453C406.287 473.392 406.979 474.13 407.856 474.668C408.733 475.206 409.713 475.475 410.798 475.475Z" fill="white"/>
<path d="M439.403 463.457L442.847 474.325L446.308 463.457H444.37V460.281H453.109V463.457H451.101L454.614 474.325L458.11 463.457H455.601V460.281H463.786V463.457H461.155L456.31 478.634H452.936L448.765 465.603L444.543 478.634H441.203L436.323 463.457H434.125V460.281H441.774V463.457H439.403Z" fill="white"/>
<path d="M477.82 459.8C481.2 459.8 482.891 461.614 482.891 465.243V475.166H485.971V478.325H479.308V466.513C479.308 465.22 479.118 464.31 478.737 463.783C478.368 463.257 477.791 462.994 477.007 462.994C475.68 462.994 473.955 463.766 471.833 465.311V475.166H474.982V478.325H464.997V475.166H468.251V455.577H464.997V452.452H471.833V462.393C473.978 460.664 475.974 459.8 477.82 459.8Z" fill="white"/>
<path d="M507.17 470.204H491.924C492.143 471.933 492.818 473.3 493.949 474.307C495.079 475.303 496.463 475.801 498.102 475.801C499.302 475.801 500.415 475.555 501.442 475.063C502.468 474.571 503.328 473.815 504.02 472.797L507.17 474.204C506.177 475.738 504.874 476.9 503.259 477.69C501.655 478.468 499.907 478.857 498.015 478.857C496.054 478.857 494.312 478.451 492.789 477.638C491.266 476.825 490.078 475.692 489.224 474.239C488.382 472.785 487.961 471.148 487.961 469.329C487.961 467.52 488.376 465.889 489.207 464.436C490.049 462.982 491.197 461.849 492.651 461.036C494.104 460.212 495.708 459.8 497.461 459.8C499.377 459.8 501.044 460.224 502.463 461.071C503.893 461.906 505.018 463.108 505.837 464.676C506.656 466.233 507.1 468.075 507.17 470.204ZM497.531 462.753C496.181 462.753 494.998 463.205 493.983 464.11C492.968 465.002 492.316 466.187 492.028 467.663H503.414C503.08 466.187 502.37 465.002 501.286 464.11C500.201 463.205 498.95 462.753 497.531 462.753Z" fill="white"/>
<path d="M527.191 466.187V475.166H530.237V478.325H523.609V466.41C523.609 465.277 523.442 464.464 523.107 463.972C522.784 463.48 522.248 463.234 521.498 463.234C519.906 463.234 518.118 464.012 516.134 465.569V475.166H519.266V478.325H509.402V475.166H512.603V463.457H509.402V460.281H516.134V462.461C518.36 460.848 520.454 460.041 522.415 460.041C524.042 460.041 525.242 460.539 526.015 461.534C526.799 462.53 527.191 464.081 527.191 466.187Z" fill="white"/>
<path d="M546.383 463.457L549.826 474.325L553.287 463.457H551.349V460.281H560.088V463.457H558.081L561.594 474.325L565.09 463.457H562.58V460.281H570.766V463.457H568.135L563.29 478.634H559.915L555.745 465.603L551.522 478.634H548.182L543.302 463.457H541.105V460.281H548.754V463.457H546.383Z" fill="white"/>
<path d="M587.102 466.65V475.166H590.147V478.325H583.952V476.11C582.221 477.793 580.295 478.634 578.172 478.634C577.053 478.634 576.026 478.376 575.092 477.861C574.169 477.346 573.425 476.659 572.859 475.801C572.306 474.931 572.029 473.97 572.029 472.917C572.029 471.784 572.335 470.777 572.946 469.895C573.569 469.002 574.405 468.316 575.455 467.835C576.505 467.354 577.561 467.114 578.622 467.114C580.399 467.114 582.054 467.629 583.589 468.659V466.719C583.589 465.311 583.289 464.304 582.689 463.698C582.089 463.091 581.102 462.788 579.73 462.788C578.76 462.788 577.947 462.965 577.29 463.32C576.644 463.663 576.107 464.19 575.68 464.899L572.254 464.058C573.027 462.627 574.071 461.563 575.386 460.865C576.701 460.155 578.264 459.8 580.076 459.8C582.51 459.8 584.287 460.35 585.406 461.448C586.536 462.547 587.102 464.281 587.102 466.65ZM578.657 475.904C580.41 475.904 582.054 475.177 583.589 473.724V471.612C582.031 470.41 580.474 469.809 578.916 469.809C577.97 469.809 577.151 470.107 576.459 470.702C575.778 471.286 575.438 472.024 575.438 472.917C575.438 473.775 575.738 474.491 576.338 475.063C576.938 475.624 577.711 475.904 578.657 475.904Z" fill="white"/>
<path d="M598.332 454.204C598.332 454.787 598.119 455.291 597.692 455.714C597.265 456.138 596.758 456.35 596.169 456.35C595.581 456.35 595.079 456.138 594.664 455.714C594.248 455.291 594.041 454.787 594.041 454.204C594.041 453.62 594.248 453.116 594.664 452.693C595.079 452.269 595.581 452.058 596.169 452.058C596.781 452.058 597.294 452.264 597.71 452.676C598.125 453.088 598.332 453.597 598.332 454.204ZM600.894 475.166V478.325H591.705V475.166H594.543V463.457H591.705V460.281H598.125V475.166H600.894Z" fill="white"/>
<path d="M612.142 460.281V463.457H608.819V472.917C608.819 473.901 608.923 474.542 609.131 474.84C609.35 475.126 609.719 475.269 610.238 475.269C610.873 475.269 611.507 475.16 612.142 474.943V478.153C611.034 478.474 610.14 478.634 609.46 478.634C607.96 478.634 606.881 478.262 606.224 477.518C605.566 476.762 605.237 475.475 605.237 473.655V463.457H602.866V460.281H605.237V457.551L608.819 454.307V460.281H612.142Z" fill="white"/>
<path d="M620.76 454.204C620.76 454.787 620.546 455.291 620.12 455.714C619.693 456.138 619.185 456.35 618.597 456.35C618.008 456.35 617.506 456.138 617.091 455.714C616.676 455.291 616.468 454.787 616.468 454.204C616.468 453.62 616.676 453.116 617.091 452.693C617.506 452.269 618.008 452.058 618.597 452.058C619.208 452.058 619.722 452.264 620.137 452.676C620.552 453.088 620.76 453.597 620.76 454.204ZM623.321 475.166V478.325H614.132V475.166H616.97V463.457H614.132V460.281H620.552V475.166H623.321Z" fill="white"/>
<path d="M642.789 466.187V475.166H645.835V478.325H639.207V466.41C639.207 465.277 639.04 464.464 638.705 463.972C638.382 463.48 637.846 463.234 637.096 463.234C635.504 463.234 633.716 464.012 631.731 465.569V475.166H634.863V478.325H625V475.166H628.201V463.457H625V460.281H631.731V462.461C633.958 460.848 636.052 460.041 638.013 460.041C639.64 460.041 640.839 460.539 641.612 461.534C642.397 462.53 642.789 464.081 642.789 466.187Z" fill="white"/>
<path d="M663.278 462.891V460.281H670.114V463.457H666.826V476.986C666.826 480.133 666.024 482.56 664.42 484.265C662.828 485.982 660.498 486.84 657.429 486.84C654.522 486.84 652.042 486.028 649.988 484.402L652.29 481.844C653.12 482.451 653.951 482.903 654.782 483.201C655.624 483.51 656.541 483.664 657.533 483.664C659.333 483.664 660.74 483.109 661.755 481.999C662.771 480.889 663.278 479.418 663.278 477.587V475.904C662.494 476.82 661.496 477.541 660.285 478.067C659.085 478.594 657.885 478.857 656.685 478.857C655.001 478.857 653.484 478.434 652.134 477.587C650.796 476.74 649.746 475.618 648.984 474.222C648.234 472.814 647.86 471.274 647.86 469.603C647.86 467.898 648.252 466.313 649.036 464.848C649.832 463.383 650.917 462.215 652.29 461.345C653.662 460.476 655.185 460.041 656.858 460.041C658.058 460.041 659.177 460.275 660.215 460.745C661.265 461.214 662.286 461.929 663.278 462.891ZM657.36 475.681C658.491 475.681 659.512 475.4 660.423 474.84C661.334 474.279 662.044 473.523 662.551 472.573C663.059 471.623 663.313 470.599 663.313 469.5C663.313 468.47 663.059 467.48 662.551 466.53C662.044 465.58 661.34 464.813 660.44 464.23C659.54 463.646 658.537 463.354 657.429 463.354C656.345 463.354 655.358 463.635 654.47 464.195C653.582 464.756 652.89 465.512 652.393 466.462C651.897 467.412 651.649 468.436 651.649 469.535C651.649 470.656 651.886 471.686 652.359 472.625C652.832 473.563 653.501 474.307 654.366 474.857C655.243 475.406 656.241 475.681 657.36 475.681Z" fill="white"/>
<path d="M693.406 456.075L690.222 456.556C690.118 455.388 689.668 454.804 688.872 454.804C688.307 454.804 687.926 455.005 687.73 455.405C687.546 455.806 687.453 456.521 687.453 457.551V460.281H690.568V463.457H687.453V475.166H690.88V478.325H681.206V475.166H683.871V463.457H681.206V460.281H683.871V457.483C683.871 455.835 684.275 454.495 685.083 453.465C685.902 452.435 687.107 451.92 688.699 451.92C690.015 451.92 691.07 452.269 691.866 452.967C692.674 453.654 693.187 454.69 693.406 456.075Z" fill="white"/>
<path d="M711.854 469.329C711.854 471.08 711.432 472.682 710.59 474.136C709.748 475.589 708.6 476.74 707.147 477.587C705.693 478.434 704.084 478.857 702.318 478.857C700.496 478.857 698.852 478.434 697.387 477.587C695.921 476.74 694.779 475.589 693.96 474.136C693.153 472.682 692.749 471.08 692.749 469.329C692.749 467.497 693.153 465.861 693.96 464.419C694.779 462.976 695.916 461.849 697.369 461.036C698.823 460.212 700.473 459.8 702.318 459.8C704.107 459.8 705.728 460.235 707.181 461.105C708.635 461.964 709.777 463.12 710.608 464.573C711.438 466.027 711.854 467.612 711.854 469.329ZM702.318 475.406C703.38 475.406 704.355 475.132 705.243 474.582C706.131 474.033 706.824 473.295 707.32 472.367C707.816 471.44 708.064 470.427 708.064 469.329C708.064 468.253 707.816 467.251 707.32 466.324C706.824 465.397 706.131 464.653 705.243 464.092C704.355 463.52 703.368 463.234 702.284 463.234C701.222 463.234 700.248 463.514 699.359 464.075C698.471 464.625 697.773 465.369 697.265 466.307C696.758 467.246 696.504 468.253 696.504 469.329C696.504 470.405 696.758 471.412 697.265 472.35C697.773 473.289 698.477 474.033 699.377 474.582C700.276 475.132 701.257 475.406 702.318 475.406Z" fill="white"/>
<path d="M721.181 471.08V475.166H725.144V478.325H713.982V475.166H717.633V463.457H713.982V460.281H720.471V464.367C721.198 462.753 722.098 461.632 723.171 461.002C724.255 460.361 725.801 460.041 727.809 460.041H728.622V463.629H727.843C725.905 463.629 724.463 463.881 723.517 464.384C722.571 464.888 721.942 465.649 721.631 466.668C721.331 467.686 721.181 469.157 721.181 471.08Z" fill="white"/>
<path d="M749.336 460.281V463.457H746.014V472.917C746.014 473.901 746.118 474.542 746.325 474.84C746.544 475.126 746.914 475.269 747.433 475.269C748.067 475.269 748.702 475.16 749.336 474.943V478.153C748.229 478.474 747.335 478.634 746.654 478.634C745.154 478.634 744.076 478.262 743.418 477.518C742.76 476.762 742.432 475.475 742.432 473.655V463.457H740.061V460.281H742.432V457.551L746.014 454.307V460.281H749.336Z" fill="white"/>
<path d="M763.907 459.8C767.287 459.8 768.977 461.614 768.977 465.243V475.166H772.058V478.325H765.395V466.513C765.395 465.22 765.205 464.31 764.824 463.783C764.455 463.257 763.878 462.994 763.094 462.994C761.767 462.994 760.042 463.766 757.92 465.311V475.166H761.069V478.325H751.084V475.166H754.337V455.577H751.084V452.452H757.92V462.393C760.065 460.664 762.061 459.8 763.907 459.8Z" fill="white"/>
<path d="M793.256 470.204H778.011C778.23 471.933 778.905 473.3 780.035 474.307C781.166 475.303 782.55 475.801 784.189 475.801C785.388 475.801 786.502 475.555 787.528 475.063C788.555 474.571 789.415 473.815 790.107 472.797L793.256 474.204C792.264 475.738 790.961 476.9 789.345 477.69C787.742 478.468 785.994 478.857 784.102 478.857C782.141 478.857 780.399 478.451 778.876 477.638C777.353 476.825 776.165 475.692 775.311 474.239C774.469 472.785 774.048 471.148 774.048 469.329C774.048 467.52 774.463 465.889 775.294 464.436C776.136 462.982 777.284 461.849 778.738 461.036C780.191 460.212 781.795 459.8 783.548 459.8C785.463 459.8 787.13 460.224 788.549 461.071C789.98 461.906 791.105 463.108 791.924 464.676C792.743 466.233 793.187 468.075 793.256 470.204ZM783.618 462.753C782.268 462.753 781.085 463.205 780.07 464.11C779.055 465.002 778.403 466.187 778.115 467.663H789.501C789.167 466.187 788.457 465.002 787.373 464.11C786.288 463.205 785.037 462.753 783.618 462.753Z" fill="white"/>
<path d="M818.228 459.8C819.9 459.8 821.412 460.224 822.762 461.071C824.111 461.906 825.161 463.039 825.911 464.47C826.672 465.901 827.053 467.446 827.053 469.105C827.053 470.822 826.667 472.407 825.894 473.861C825.132 475.315 824.077 476.476 822.727 477.346C821.377 478.205 819.866 478.634 818.193 478.634C816.866 478.634 815.603 478.365 814.403 477.827C813.215 477.289 812.28 476.551 811.6 475.612V478.325H804.903V475.166H808.121V455.577H804.903V452.452H811.6V462.856C813.423 460.819 815.632 459.8 818.228 459.8ZM817.483 475.475C818.614 475.475 819.624 475.172 820.512 474.565C821.4 473.958 822.087 473.163 822.571 472.179C823.056 471.194 823.298 470.147 823.298 469.037C823.298 467.938 823.05 466.931 822.554 466.015C822.058 465.1 821.371 464.373 820.495 463.835C819.618 463.297 818.626 463.028 817.518 463.028C816.411 463.028 815.418 463.308 814.542 463.869C813.665 464.43 812.978 465.191 812.482 466.153C811.986 467.114 811.738 468.184 811.738 469.363C811.738 470.485 811.992 471.515 812.5 472.453C813.007 473.392 813.699 474.13 814.576 474.668C815.453 475.206 816.422 475.475 817.483 475.475Z" fill="white"/>
<path d="M837.921 475.544C839.524 475.544 841.261 474.771 843.13 473.226V463.457H839.911V460.281H846.712V475.166H849.827V478.325H843.13V476.247C841.03 477.838 839.034 478.634 837.142 478.634C835.435 478.634 834.171 478.13 833.352 477.123C832.545 476.116 832.141 474.445 832.141 472.11V463.457H829.597V460.281H835.723V472.848C835.723 473.775 835.89 474.456 836.225 474.891C836.571 475.326 837.136 475.544 837.921 475.544Z" fill="white"/>
<path d="M862.978 461.054V460.281H866.093V466.273H862.978V465.174C861.94 463.698 860.521 462.959 858.721 462.959C857.775 462.959 857.002 463.165 856.403 463.577C855.803 463.989 855.503 464.522 855.503 465.174C855.503 465.758 855.728 466.216 856.178 466.547C856.639 466.879 857.666 467.171 859.258 467.423L861.663 467.887C865.251 468.539 867.045 470.284 867.045 473.123C867.045 474.782 866.393 476.116 865.09 477.123C863.798 478.13 862.079 478.634 859.933 478.634C859.079 478.634 858.237 478.514 857.406 478.273C856.587 478.021 855.901 477.712 855.347 477.346V478.325H852.163V472.144H855.347V472.762C855.52 473.632 856.004 474.33 856.801 474.857C857.608 475.383 858.543 475.647 859.604 475.647C860.769 475.647 861.686 475.446 862.355 475.046C863.025 474.634 863.359 474.027 863.359 473.226C863.359 472.642 863.094 472.207 862.563 471.921C862.032 471.623 860.965 471.32 859.362 471.011L857.51 470.616C855.676 470.25 854.332 469.621 853.478 468.728C852.624 467.835 852.197 466.696 852.197 465.311C852.197 464.19 852.509 463.234 853.132 462.444C853.766 461.643 854.574 461.042 855.555 460.642C856.535 460.241 857.545 460.041 858.583 460.041C860.325 460.041 861.79 460.378 862.978 461.054Z" fill="white"/>
<path d="M61.8946 458.947C62.2288 458.99 62.5004 459.011 62.7092 459.011C62.9599 459.011 63.1688 459.011 63.3359 459.011C64.8816 459.011 66.1349 458.546 67.0957 457.617C68.0565 456.687 68.537 455.483 68.537 454.005C68.537 452.568 68.0774 451.407 67.1584 450.52C66.2811 449.632 65.1322 449.189 63.7119 449.189C62.2079 449.189 60.9964 449.696 60.0774 450.71C59.1583 451.724 58.6988 453.033 58.6988 454.638H47.3566C47.6491 452.146 48.2548 449.928 49.1739 447.985C50.1347 446.042 51.3462 444.415 52.8084 443.106C54.2705 441.754 55.9833 440.74 57.9468 440.064C59.9103 439.346 62.0826 438.987 64.4638 438.987C66.8033 438.987 68.913 439.325 70.7929 440.001C72.7145 440.634 74.3438 441.564 75.6806 442.789C77.0592 443.972 78.1036 445.429 78.8138 447.161C79.5658 448.851 79.9418 450.752 79.9418 452.864C79.9418 455.145 79.5031 457.025 78.6258 458.504C77.7903 459.94 76.5788 461.186 74.9913 462.242C77.4143 463.003 79.2942 464.376 80.6311 466.361C82.0097 468.305 82.699 470.712 82.699 473.585C82.699 475.951 82.2394 478.105 81.3204 480.049C80.4013 481.992 79.1062 483.66 77.4352 485.054C75.806 486.449 73.8425 487.526 71.5448 488.286C69.2889 489.047 66.8033 489.427 64.0878 489.427C60.4534 489.427 57.174 488.709 54.2496 487.272C51.3253 485.836 48.9859 483.555 47.2313 480.429C46.4376 479.035 45.8945 477.641 45.6021 476.246C45.3514 474.852 45.2261 473.437 45.2261 472.001H57.3828C57.4664 474.24 58.1139 475.951 59.3254 477.134C60.5369 478.274 62.1662 478.845 64.2132 478.845C66.3855 478.845 67.973 478.253 68.9756 477.07C69.9782 475.887 70.4795 474.43 70.4795 472.698C70.4795 470.628 69.8738 469.065 68.6623 468.009C67.4508 466.953 66.0095 466.425 64.3385 466.425C63.9207 466.425 63.5239 466.467 63.1479 466.551C62.7719 466.594 62.3542 466.657 61.8946 466.741V458.947Z" fill="white"/>
</g>
</g>
<defs>
<filter id="filter0_d" x="-2" y="57" width="959" height="496" filterUnits="userSpaceOnUse" color-interpolation-filters="sRGB">
<feFlood flood-opacity="0" result="BackgroundImageFix"/>
<feColorMatrix in="SourceAlpha" type="matrix" values="0 0 0 0 0 0 0 0 0 0 0 0 0 0 0 0 0 0 127 0"/>
<feOffset dx="11" dy="9"/>
<feGaussianBlur stdDeviation="6.5"/>
<feColorMatrix type="matrix" values="0 0 0 0 0 0 0 0 0 0 0 0 0 0 0 0 0 0 0.1 0"/>
<feBlend mode="normal" in2="BackgroundImageFix" result="effect1_dropShadow"/>
<feBlend mode="normal" in="SourceGraphic" in2="effect1_dropShadow" result="shape"/>
</filter>
<clipPath id="clip0">
<rect width="1045" height="743" fill="white"/>
</clipPath>
</defs>
</svg>
