<svg width="45" height="45" viewBox="0 0 45 45" fill="none" xmlns="http://www.w3.org/2000/svg">
<path d="M29.9781 0H15.083C6.79874 0 0.0830078 6.71574 0.0830078 15V29.6224C0.0830078 37.9066 6.79875 44.6224 15.083 44.6224H29.9781C38.2623 44.6224 44.9781 37.9066 44.9781 29.6224V15C44.9781 6.71573 38.2623 0 29.9781 0Z" fill="#343534"/>
<path fill-rule="evenodd" clip-rule="evenodd" d="M7.85772 12.0523C8.0107 12.3835 8.23868 12.7893 8.32267 12.9594C8.55664 13.4249 8.78462 13.8575 9.01559 14.3171L12.7802 21.7708C12.8912 21.9886 13.0981 22.2333 12.9932 22.469L7.71073 32.5008C7.58475 32.7485 7.30578 33.0379 7.81272 33.0379H10.9444C11.3883 33.0379 11.3943 32.8052 11.6763 32.2084L15.2609 24.7368C15.5069 24.9516 18.4346 31.2744 19.1425 32.7186C19.2655 32.9693 19.2955 33.0379 19.6554 33.0379C20.1624 33.0379 22.9491 33.0976 23.216 32.9842C23.273 32.6918 22.7661 31.8861 22.6161 31.6027L21.2243 28.947C20.1234 26.8404 18.8635 24.2832 17.7476 22.281C17.5197 21.8722 17.6067 21.8931 18.1196 20.9472C18.3686 20.4877 18.5755 20.067 18.8245 19.6075C19.0525 19.1808 19.2835 18.7422 19.5114 18.2976L21.6052 14.2902C21.8002 13.9232 22.7271 12.285 22.8831 11.739C22.9341 11.557 22.6311 11.5689 22.4151 11.5689L19.6494 11.5719C19.6344 11.5719 19.6194 11.5719 19.6044 11.5719C19.3015 11.5719 19.2565 11.6316 19.1485 11.8494L16.4308 17.6172C16.2988 17.9097 15.5759 19.5955 15.4439 19.7C15.1589 18.9988 14.811 18.3214 14.502 17.6232L12.5162 13.4637C12.3362 13.1235 12.1982 12.7774 12.0273 12.4402C11.9343 12.2552 11.8533 12.1 11.7723 11.918C11.6583 11.6644 11.6733 11.5719 11.3343 11.5719L8.16368 11.5749C7.69274 11.5779 7.64474 11.5928 7.85772 12.0523Z" fill="#FCFCFC"/>
<path fill-rule="evenodd" clip-rule="evenodd" d="M27.5748 25.187C27.5748 23.901 27.7063 22.6799 28.4195 21.6003C28.5686 21.3703 28.82 21.0311 28.9895 20.8747C29.8605 20.0813 31.319 19.4855 32.874 19.9957L32.8799 29.7648C29.8371 30.6497 27.5748 28.756 27.5748 25.187ZM32.8799 16.8869L31.6406 16.8633C29.2642 16.8633 27.2767 18.0195 26.1981 19.164C25.0874 20.3438 24.0469 22.4616 24.0469 24.8006C24.0469 27.3609 24.5145 29.225 25.8854 30.8473C26.8558 32.0006 28.744 33.0536 31.0209 33.0536C32.2105 33.0536 33.0757 32.9887 34.239 32.6731C34.806 32.5168 36.0921 32.095 36.4312 31.803C36.4721 31.5847 36.3844 30.9535 36.3727 30.6733C36.3318 29.5111 36.3581 27.9597 36.361 26.7739L36.3639 11.9522C36.3669 11.6572 36.3815 11.5688 36.0746 11.5688H33.1663C32.7629 11.5688 32.8799 11.8195 32.8799 12.6778V16.8869Z" fill="#FCFCFC"/>
</svg>
